<mxfile host="app.diagrams.net" modified="2021-11-06T17:30:47.343Z" agent="5.0 (Windows)" etag="8vEp0rQFP0bxH1Be1P8g" version="15.6.8" type="github">
  <diagram id="_JuT9ymBrP4a11gev69j" name="Page-1">
    <mxGraphModel dx="1695" dy="1647" grid="1" gridSize="10" guides="1" tooltips="1" connect="1" arrows="1" fold="1" page="1" pageScale="1" pageWidth="827" pageHeight="1169" math="0" shadow="0">
      <root>
        <mxCell id="0" />
        <mxCell id="1" parent="0" />
        <mxCell id="xeQGUiYXKvnCCXj6hmbg-8" style="edgeStyle=orthogonalEdgeStyle;rounded=0;orthogonalLoop=1;jettySize=auto;html=1;entryX=0.5;entryY=1;entryDx=0;entryDy=0;fontSize=17;" parent="1" source="ZLB3XHUYT8p_NBxtVnVK-3" target="uo45ZAAMJ8PjfpSmK8Dm-3" edge="1">
          <mxGeometry relative="1" as="geometry">
            <mxPoint x="-150" y="-860" as="sourcePoint" />
            <Array as="points">
              <mxPoint x="-226" y="-851" />
              <mxPoint x="-230" y="-851" />
            </Array>
          </mxGeometry>
        </mxCell>
        <mxCell id="YEjJ85sY0pqEXyLxRJ9N-1" value="" style="rounded=0;whiteSpace=wrap;html=1;" parent="1" vertex="1">
          <mxGeometry x="-555" y="-818" width="440" height="428" as="geometry" />
        </mxCell>
        <mxCell id="YEjJ85sY0pqEXyLxRJ9N-4" value="" style="verticalLabelPosition=bottom;shadow=0;dashed=0;align=center;html=1;verticalAlign=top;strokeWidth=1;shape=mxgraph.mockup.misc.shoppingCart;strokeColor=#999999;" parent="1" vertex="1">
          <mxGeometry x="-160" y="-804" width="20" height="20" as="geometry" />
        </mxCell>
        <mxCell id="YEjJ85sY0pqEXyLxRJ9N-6" value="" style="rounded=1;whiteSpace=wrap;html=1;" parent="1" vertex="1">
          <mxGeometry x="-80" y="-849" width="200" height="250" as="geometry" />
        </mxCell>
        <mxCell id="YEjJ85sY0pqEXyLxRJ9N-7" value="&lt;div align=&quot;center&quot;&gt;Thanh toán&lt;/div&gt;" style="rounded=0;whiteSpace=wrap;html=1;align=center;" parent="1" vertex="1">
          <mxGeometry x="-60" y="-661.5" width="160" height="40" as="geometry" />
        </mxCell>
        <mxCell id="YEjJ85sY0pqEXyLxRJ9N-9" value="" style="endArrow=classic;html=1;rounded=0;exitX=0.5;exitY=1;exitDx=0;exitDy=0;entryX=0.5;entryY=0;entryDx=0;entryDy=0;" parent="1" source="YEjJ85sY0pqEXyLxRJ9N-7" target="Dez18VXg3sy8JYcPx_31-77" edge="1">
          <mxGeometry width="50" height="50" relative="1" as="geometry">
            <mxPoint x="60" y="-549" as="sourcePoint" />
            <mxPoint x="20" y="-539" as="targetPoint" />
          </mxGeometry>
        </mxCell>
        <mxCell id="UhXUJmDLFSBg67kvH6BW-1" value="Giỏ hàng (sidebar)" style="text;html=1;strokeColor=none;fillColor=none;align=center;verticalAlign=middle;whiteSpace=wrap;rounded=0;" parent="1" vertex="1">
          <mxGeometry x="-10" y="-881.5" width="60" height="30" as="geometry" />
        </mxCell>
        <mxCell id="5mCJbAE3rlhFRFKoQs4u-1" value="&lt;div style=&quot;font-size: 8px;&quot; align=&quot;center&quot;&gt;&lt;font style=&quot;font-size: 8px;&quot;&gt;Tổng giá đơn&lt;/font&gt;&lt;/div&gt;" style="rounded=0;whiteSpace=wrap;html=1;align=center;fontSize=8;" parent="1" vertex="1">
          <mxGeometry x="-60" y="-679" width="160" height="17.5" as="geometry" />
        </mxCell>
        <mxCell id="5mCJbAE3rlhFRFKoQs4u-2" value="&lt;div align=&quot;center&quot;&gt;ẢNH MINH HỌA&lt;/div&gt;" style="rounded=0;whiteSpace=wrap;html=1;fontSize=8;align=center;" parent="1" vertex="1">
          <mxGeometry x="-70" y="-809" width="50" height="50" as="geometry" />
        </mxCell>
        <mxCell id="5mCJbAE3rlhFRFKoQs4u-5" value="-" style="whiteSpace=wrap;html=1;aspect=fixed;fontSize=12;align=center;fontStyle=1" parent="1" vertex="1">
          <mxGeometry x="-20" y="-779" width="20" height="20" as="geometry" />
        </mxCell>
        <mxCell id="5mCJbAE3rlhFRFKoQs4u-6" value="+" style="whiteSpace=wrap;html=1;aspect=fixed;fontSize=10;align=center;fontStyle=1" parent="1" vertex="1">
          <mxGeometry x="30" y="-779" width="20" height="20" as="geometry" />
        </mxCell>
        <mxCell id="5mCJbAE3rlhFRFKoQs4u-7" value="Số lượng" style="rounded=0;whiteSpace=wrap;html=1;fontSize=6;align=center;" parent="1" vertex="1">
          <mxGeometry y="-779" width="30" height="20" as="geometry" />
        </mxCell>
        <mxCell id="5mCJbAE3rlhFRFKoQs4u-8" value="Tổng giá món" style="rounded=0;whiteSpace=wrap;html=1;fontSize=8;align=center;" parent="1" vertex="1">
          <mxGeometry x="50" y="-809" width="60" height="50" as="geometry" />
        </mxCell>
        <mxCell id="5mCJbAE3rlhFRFKoQs4u-9" value="Tên món A" style="rounded=0;whiteSpace=wrap;html=1;fontSize=8;align=center;" parent="1" vertex="1">
          <mxGeometry x="-20" y="-809" width="70" height="30" as="geometry" />
        </mxCell>
        <mxCell id="ZFKp8kCMU9PMvtYDz0S7-18" style="edgeStyle=orthogonalEdgeStyle;rounded=0;orthogonalLoop=1;jettySize=auto;html=1;entryX=0;entryY=1;entryDx=0;entryDy=0;" parent="1" source="5mCJbAE3rlhFRFKoQs4u-10" target="ZFKp8kCMU9PMvtYDz0S7-17" edge="1">
          <mxGeometry relative="1" as="geometry" />
        </mxCell>
        <mxCell id="5mCJbAE3rlhFRFKoQs4u-10" value="Tùy chọn" style="rounded=0;whiteSpace=wrap;html=1;fontSize=5;align=center;" parent="1" vertex="1">
          <mxGeometry x="80" y="-834" width="30" height="20" as="geometry" />
        </mxCell>
        <mxCell id="5mCJbAE3rlhFRFKoQs4u-11" value="DineIn" style="rounded=0;whiteSpace=wrap;html=1;fontSize=5;align=center;" parent="1" vertex="1">
          <mxGeometry x="110" y="-881.5" width="30" height="20" as="geometry" />
        </mxCell>
        <mxCell id="5mCJbAE3rlhFRFKoQs4u-32" value="Search Bar" style="rounded=0;whiteSpace=wrap;html=1;fontSize=12;align=center;verticalAlign=middle;" parent="1" vertex="1">
          <mxGeometry x="-480" y="-641.5" width="290" height="25" as="geometry" />
        </mxCell>
        <mxCell id="xeQGUiYXKvnCCXj6hmbg-22" style="edgeStyle=orthogonalEdgeStyle;rounded=0;orthogonalLoop=1;jettySize=auto;html=1;exitX=0.5;exitY=0;exitDx=0;exitDy=0;entryX=0.5;entryY=1;entryDx=0;entryDy=0;fontSize=12;endArrow=none;endFill=0;" parent="1" source="5mCJbAE3rlhFRFKoQs4u-43" target="xeQGUiYXKvnCCXj6hmbg-19" edge="1">
          <mxGeometry relative="1" as="geometry" />
        </mxCell>
        <mxCell id="5mCJbAE3rlhFRFKoQs4u-43" value="Về trang chủ" style="rounded=1;whiteSpace=wrap;html=1;fontSize=18;align=center;verticalAlign=middle;" parent="1" vertex="1">
          <mxGeometry x="-555" y="-809" width="130" height="40" as="geometry" />
        </mxCell>
        <mxCell id="5mCJbAE3rlhFRFKoQs4u-44" value="THỰC ĐƠN" style="text;html=1;strokeColor=none;fillColor=none;align=center;verticalAlign=middle;whiteSpace=wrap;rounded=0;fontSize=18;" parent="1" vertex="1">
          <mxGeometry x="-425" y="-804" width="150" height="30" as="geometry" />
        </mxCell>
        <mxCell id="5mCJbAE3rlhFRFKoQs4u-45" value="&lt;div&gt;[ảnh]&lt;br&gt;&lt;/div&gt;&lt;div&gt;MỤC A&lt;/div&gt;" style="rounded=0;whiteSpace=wrap;html=1;fontSize=18;align=center;verticalAlign=middle;" parent="1" vertex="1">
          <mxGeometry x="-510" y="-709" width="70" height="50" as="geometry" />
        </mxCell>
        <mxCell id="ZFKp8kCMU9PMvtYDz0S7-10" style="edgeStyle=orthogonalEdgeStyle;rounded=0;orthogonalLoop=1;jettySize=auto;html=1;exitX=0;exitY=0.5;exitDx=0;exitDy=0;entryX=1;entryY=0.25;entryDx=0;entryDy=0;" parent="1" source="5mCJbAE3rlhFRFKoQs4u-58" target="5mCJbAE3rlhFRFKoQs4u-167" edge="1">
          <mxGeometry relative="1" as="geometry" />
        </mxCell>
        <mxCell id="5mCJbAE3rlhFRFKoQs4u-58" value="" style="rounded=1;whiteSpace=wrap;html=1;fontSize=10;align=center;verticalAlign=middle;" parent="1" vertex="1">
          <mxGeometry x="-550" y="-609" width="120" height="100" as="geometry" />
        </mxCell>
        <mxCell id="5mCJbAE3rlhFRFKoQs4u-56" value="Ảnh minh họa" style="rounded=0;whiteSpace=wrap;html=1;fontSize=10;align=center;verticalAlign=middle;" parent="1" vertex="1">
          <mxGeometry x="-540" y="-599" width="100" height="40" as="geometry" />
        </mxCell>
        <mxCell id="5mCJbAE3rlhFRFKoQs4u-60" value="Tên sản phẩm" style="text;html=1;strokeColor=none;fillColor=none;align=center;verticalAlign=middle;whiteSpace=wrap;rounded=0;fontSize=10;" parent="1" vertex="1">
          <mxGeometry x="-540" y="-559" width="100" height="20" as="geometry" />
        </mxCell>
        <mxCell id="5mCJbAE3rlhFRFKoQs4u-61" value="Giá tiền" style="rounded=0;whiteSpace=wrap;html=1;fontSize=10;align=center;verticalAlign=middle;" parent="1" vertex="1">
          <mxGeometry x="-540" y="-539" width="70" height="20" as="geometry" />
        </mxCell>
        <mxCell id="5mCJbAE3rlhFRFKoQs4u-62" value="" style="verticalLabelPosition=bottom;shadow=0;dashed=0;align=center;html=1;verticalAlign=top;strokeWidth=1;shape=mxgraph.mockup.misc.shoppingCart;strokeColor=#999999;" parent="1" vertex="1">
          <mxGeometry x="-460" y="-539" width="20" height="20" as="geometry" />
        </mxCell>
        <mxCell id="5mCJbAE3rlhFRFKoQs4u-87" value="..." style="rounded=1;whiteSpace=wrap;html=1;fontSize=20;align=center;verticalAlign=middle;fontStyle=1" parent="1" vertex="1">
          <mxGeometry x="-540" y="-499" width="30" height="100" as="geometry" />
        </mxCell>
        <mxCell id="5mCJbAE3rlhFRFKoQs4u-103" value="..." style="rounded=1;whiteSpace=wrap;html=1;fontSize=20;align=center;verticalAlign=middle;fontStyle=1" parent="1" vertex="1">
          <mxGeometry x="-418.75" y="-609" width="30" height="100" as="geometry" />
        </mxCell>
        <mxCell id="5mCJbAE3rlhFRFKoQs4u-167" value="" style="rounded=1;whiteSpace=wrap;html=1;" parent="1" vertex="1">
          <mxGeometry x="-800" y="-609" width="200" height="200" as="geometry" />
        </mxCell>
        <mxCell id="5mCJbAE3rlhFRFKoQs4u-168" value="&amp;nbsp;&amp;nbsp;&amp;nbsp;&amp;nbsp;&amp;nbsp; " style="rounded=0;whiteSpace=wrap;html=1;align=left;" parent="1" vertex="1">
          <mxGeometry x="-780" y="-449" width="160" height="30" as="geometry" />
        </mxCell>
        <mxCell id="5mCJbAE3rlhFRFKoQs4u-169" value="&lt;div style=&quot;font-size: 8px&quot; align=&quot;center&quot;&gt;&lt;font style=&quot;font-size: 8px&quot;&gt;Tổng giá &lt;br&gt;&lt;/font&gt;&lt;/div&gt;" style="rounded=0;whiteSpace=wrap;html=1;align=center;fontSize=8;" parent="1" vertex="1">
          <mxGeometry x="-702.5" y="-444" width="72.5" height="20" as="geometry" />
        </mxCell>
        <mxCell id="5mCJbAE3rlhFRFKoQs4u-170" value="&lt;div align=&quot;center&quot;&gt;ẢNH MINH HỌA&lt;/div&gt;" style="rounded=0;whiteSpace=wrap;html=1;fontSize=8;align=center;" parent="1" vertex="1">
          <mxGeometry x="-790" y="-599" width="60" height="60" as="geometry" />
        </mxCell>
        <mxCell id="5mCJbAE3rlhFRFKoQs4u-171" value="-" style="whiteSpace=wrap;html=1;aspect=fixed;fontSize=12;align=center;fontStyle=1" parent="1" vertex="1">
          <mxGeometry x="-680" y="-539" width="20" height="20" as="geometry" />
        </mxCell>
        <mxCell id="5mCJbAE3rlhFRFKoQs4u-172" value="+" style="whiteSpace=wrap;html=1;aspect=fixed;fontSize=10;align=center;fontStyle=1" parent="1" vertex="1">
          <mxGeometry x="-630" y="-539" width="20" height="20" as="geometry" />
        </mxCell>
        <mxCell id="5mCJbAE3rlhFRFKoQs4u-173" value="Số lượng" style="rounded=0;whiteSpace=wrap;html=1;fontSize=6;align=center;" parent="1" vertex="1">
          <mxGeometry x="-660" y="-539" width="30" height="20" as="geometry" />
        </mxCell>
        <mxCell id="5mCJbAE3rlhFRFKoQs4u-175" value="Tên món " style="rounded=0;whiteSpace=wrap;html=1;fontSize=8;align=center;" parent="1" vertex="1">
          <mxGeometry x="-730" y="-599" width="120" height="40" as="geometry" />
        </mxCell>
        <mxCell id="5mCJbAE3rlhFRFKoQs4u-176" value="Tùy chọn" style="rounded=0;whiteSpace=wrap;html=1;fontSize=5;align=center;" parent="1" vertex="1">
          <mxGeometry x="-730" y="-539" width="50" height="20" as="geometry" />
        </mxCell>
        <mxCell id="5mCJbAE3rlhFRFKoQs4u-186" value="" style="verticalLabelPosition=bottom;shadow=0;dashed=0;align=center;html=1;verticalAlign=top;strokeWidth=1;shape=mxgraph.mockup.misc.shoppingCart;strokeColor=#999999;" parent="1" vertex="1">
          <mxGeometry x="-750" y="-444" width="20" height="20" as="geometry" />
        </mxCell>
        <mxCell id="5mCJbAE3rlhFRFKoQs4u-197" value="Mô tả: ..." style="text;html=1;strokeColor=none;fillColor=none;align=left;verticalAlign=middle;whiteSpace=wrap;rounded=0;fontSize=10;" parent="1" vertex="1">
          <mxGeometry x="-790" y="-514" width="60" height="30" as="geometry" />
        </mxCell>
        <mxCell id="5mCJbAE3rlhFRFKoQs4u-199" value="Thành phần: ..." style="text;html=1;strokeColor=none;fillColor=none;align=left;verticalAlign=middle;whiteSpace=wrap;rounded=0;fontSize=10;" parent="1" vertex="1">
          <mxGeometry x="-790" y="-484" width="80" height="30" as="geometry" />
        </mxCell>
        <mxCell id="5mCJbAE3rlhFRFKoQs4u-201" value="Giá tiền" style="rounded=0;whiteSpace=wrap;html=1;fontSize=8;align=center;" parent="1" vertex="1">
          <mxGeometry x="-730" y="-559" width="120" height="20" as="geometry" />
        </mxCell>
        <mxCell id="5mCJbAE3rlhFRFKoQs4u-207" value="(Pop-up) Chi tiết sản phẩm" style="text;html=1;strokeColor=none;fillColor=none;align=center;verticalAlign=middle;whiteSpace=wrap;rounded=0;fontSize=10;" parent="1" vertex="1">
          <mxGeometry x="-752.5" y="-639" width="122.5" height="30" as="geometry" />
        </mxCell>
        <mxCell id="uo45ZAAMJ8PjfpSmK8Dm-3" value="" style="rounded=0;whiteSpace=wrap;html=1;" parent="1" vertex="1">
          <mxGeometry x="-330" y="-1120" width="200" height="221" as="geometry" />
        </mxCell>
        <mxCell id="uo45ZAAMJ8PjfpSmK8Dm-4" value="" style="rounded=1;whiteSpace=wrap;html=1;" parent="1" vertex="1">
          <mxGeometry x="-260" y="-1089" width="120" height="21" as="geometry" />
        </mxCell>
        <mxCell id="uo45ZAAMJ8PjfpSmK8Dm-5" value="Account:" style="text;html=1;strokeColor=none;fillColor=none;align=center;verticalAlign=middle;whiteSpace=wrap;rounded=0;" parent="1" vertex="1">
          <mxGeometry x="-360" y="-1090" width="120" height="20" as="geometry" />
        </mxCell>
        <mxCell id="uo45ZAAMJ8PjfpSmK8Dm-8" value="Password:" style="text;html=1;strokeColor=none;fillColor=none;align=center;verticalAlign=middle;whiteSpace=wrap;rounded=0;" parent="1" vertex="1">
          <mxGeometry x="-360" y="-1050" width="120" height="20" as="geometry" />
        </mxCell>
        <mxCell id="uo45ZAAMJ8PjfpSmK8Dm-10" value="" style="rounded=1;whiteSpace=wrap;html=1;" parent="1" vertex="1">
          <mxGeometry x="-260" y="-1050" width="120" height="21" as="geometry" />
        </mxCell>
        <mxCell id="uo45ZAAMJ8PjfpSmK8Dm-13" value="Login" style="rounded=1;whiteSpace=wrap;html=1;" parent="1" vertex="1">
          <mxGeometry x="-290" y="-1009" width="120" height="29" as="geometry" />
        </mxCell>
        <mxCell id="uo45ZAAMJ8PjfpSmK8Dm-14" value="&lt;u&gt;Register Account&lt;/u&gt;" style="text;html=1;strokeColor=none;fillColor=none;align=center;verticalAlign=middle;whiteSpace=wrap;rounded=0;" parent="1" vertex="1">
          <mxGeometry x="-280" y="-969" width="100" height="30" as="geometry" />
        </mxCell>
        <mxCell id="LOJPQQswRovQg6wYEp-n-1" value="Forgot password?" style="text;html=1;align=center;verticalAlign=middle;resizable=0;points=[];autosize=1;strokeColor=none;fillColor=none;" parent="1" vertex="1">
          <mxGeometry x="-285" y="-939" width="110" height="20" as="geometry" />
        </mxCell>
        <mxCell id="ZFKp8kCMU9PMvtYDz0S7-4" value="&lt;b style=&quot;font-size: 17px;&quot;&gt;Mục A&lt;/b&gt;" style="text;html=1;strokeColor=none;fillColor=none;align=center;verticalAlign=middle;whiteSpace=wrap;rounded=0;fontSize=17;" parent="1" vertex="1">
          <mxGeometry x="-550" y="-649" width="70" height="40" as="geometry" />
        </mxCell>
        <mxCell id="ZFKp8kCMU9PMvtYDz0S7-7" value="" style="triangle;whiteSpace=wrap;html=1;direction=east;" parent="1" vertex="1">
          <mxGeometry x="-160" y="-709" width="20" height="50" as="geometry" />
        </mxCell>
        <mxCell id="ZFKp8kCMU9PMvtYDz0S7-9" value="" style="triangle;whiteSpace=wrap;html=1;direction=west;" parent="1" vertex="1">
          <mxGeometry x="-530" y="-709" width="10" height="50" as="geometry" />
        </mxCell>
        <mxCell id="ZFKp8kCMU9PMvtYDz0S7-11" value="&lt;div align=&quot;center&quot;&gt;ẢNH MINH HỌA&lt;/div&gt;" style="rounded=0;whiteSpace=wrap;html=1;fontSize=8;align=center;" parent="1" vertex="1">
          <mxGeometry x="-70" y="-749" width="50" height="50" as="geometry" />
        </mxCell>
        <mxCell id="ZFKp8kCMU9PMvtYDz0S7-12" value="-" style="whiteSpace=wrap;html=1;aspect=fixed;fontSize=12;align=center;fontStyle=1" parent="1" vertex="1">
          <mxGeometry x="-20" y="-719" width="20" height="20" as="geometry" />
        </mxCell>
        <mxCell id="ZFKp8kCMU9PMvtYDz0S7-13" value="+" style="whiteSpace=wrap;html=1;aspect=fixed;fontSize=10;align=center;fontStyle=1" parent="1" vertex="1">
          <mxGeometry x="30" y="-719" width="20" height="20" as="geometry" />
        </mxCell>
        <mxCell id="ZFKp8kCMU9PMvtYDz0S7-14" value="Số lượng" style="rounded=0;whiteSpace=wrap;html=1;fontSize=6;align=center;" parent="1" vertex="1">
          <mxGeometry y="-719" width="30" height="20" as="geometry" />
        </mxCell>
        <mxCell id="ZFKp8kCMU9PMvtYDz0S7-15" value="Tổng giá món" style="rounded=0;whiteSpace=wrap;html=1;fontSize=8;align=center;" parent="1" vertex="1">
          <mxGeometry x="50" y="-749" width="60" height="50" as="geometry" />
        </mxCell>
        <mxCell id="ZFKp8kCMU9PMvtYDz0S7-16" value="Tên món B" style="rounded=0;whiteSpace=wrap;html=1;fontSize=8;align=center;" parent="1" vertex="1">
          <mxGeometry x="-20" y="-749" width="70" height="30" as="geometry" />
        </mxCell>
        <mxCell id="ZFKp8kCMU9PMvtYDz0S7-17" value="TakeOut" style="rounded=0;whiteSpace=wrap;html=1;fontSize=5;align=center;" parent="1" vertex="1">
          <mxGeometry x="140" y="-881.5" width="30" height="20" as="geometry" />
        </mxCell>
        <mxCell id="Dez18VXg3sy8JYcPx_31-77" value="" style="rounded=0;whiteSpace=wrap;html=1;" parent="1" vertex="1">
          <mxGeometry x="275" y="-648" width="310" height="398" as="geometry" />
        </mxCell>
        <mxCell id="Dez18VXg3sy8JYcPx_31-78" value="Thông tin chi tiết" style="text;html=1;strokeColor=none;fillColor=none;align=center;verticalAlign=middle;whiteSpace=wrap;rounded=0;" parent="1" vertex="1">
          <mxGeometry x="354" y="-641.5" width="120" height="20" as="geometry" />
        </mxCell>
        <mxCell id="Dez18VXg3sy8JYcPx_31-79" value="&lt;font style=&quot;font-size: 10px&quot;&gt;Thanh toán&lt;/font&gt;" style="rounded=1;whiteSpace=wrap;html=1;" parent="1" vertex="1">
          <mxGeometry x="380" y="-300" width="110" height="40" as="geometry" />
        </mxCell>
        <mxCell id="Dez18VXg3sy8JYcPx_31-80" value="" style="shape=table;html=1;whiteSpace=wrap;startSize=0;container=1;collapsible=0;childLayout=tableLayout;" parent="1" vertex="1">
          <mxGeometry x="285" y="-619" width="290" height="120" as="geometry" />
        </mxCell>
        <mxCell id="Dez18VXg3sy8JYcPx_31-81" value="" style="shape=partialRectangle;html=1;whiteSpace=wrap;collapsible=0;dropTarget=0;pointerEvents=0;fillColor=none;top=0;left=0;bottom=0;right=0;points=[[0,0.5],[1,0.5]];portConstraint=eastwest;" parent="Dez18VXg3sy8JYcPx_31-80" vertex="1">
          <mxGeometry width="290" height="30" as="geometry" />
        </mxCell>
        <mxCell id="Dez18VXg3sy8JYcPx_31-82" value="Tên" style="shape=partialRectangle;html=1;whiteSpace=wrap;connectable=0;fillColor=none;top=0;left=0;bottom=0;right=0;overflow=hidden;pointerEvents=1;" parent="Dez18VXg3sy8JYcPx_31-81" vertex="1">
          <mxGeometry width="96" height="30" as="geometry">
            <mxRectangle width="96" height="30" as="alternateBounds" />
          </mxGeometry>
        </mxCell>
        <mxCell id="Dez18VXg3sy8JYcPx_31-83" value="Số lượng" style="shape=partialRectangle;html=1;whiteSpace=wrap;connectable=0;fillColor=none;top=0;left=0;bottom=0;right=0;overflow=hidden;pointerEvents=1;" parent="Dez18VXg3sy8JYcPx_31-81" vertex="1">
          <mxGeometry x="96" width="98" height="30" as="geometry">
            <mxRectangle width="98" height="30" as="alternateBounds" />
          </mxGeometry>
        </mxCell>
        <mxCell id="Dez18VXg3sy8JYcPx_31-84" value="Giá" style="shape=partialRectangle;html=1;whiteSpace=wrap;connectable=0;fillColor=none;top=0;left=0;bottom=0;right=0;overflow=hidden;pointerEvents=1;" parent="Dez18VXg3sy8JYcPx_31-81" vertex="1">
          <mxGeometry x="194" width="96" height="30" as="geometry">
            <mxRectangle width="96" height="30" as="alternateBounds" />
          </mxGeometry>
        </mxCell>
        <mxCell id="Dez18VXg3sy8JYcPx_31-85" value="" style="shape=partialRectangle;html=1;whiteSpace=wrap;collapsible=0;dropTarget=0;pointerEvents=0;fillColor=none;top=0;left=0;bottom=0;right=0;points=[[0,0.5],[1,0.5]];portConstraint=eastwest;" parent="Dez18VXg3sy8JYcPx_31-80" vertex="1">
          <mxGeometry y="30" width="290" height="30" as="geometry" />
        </mxCell>
        <mxCell id="Dez18VXg3sy8JYcPx_31-86" value="A" style="shape=partialRectangle;html=1;whiteSpace=wrap;connectable=0;fillColor=none;top=0;left=0;bottom=0;right=0;overflow=hidden;pointerEvents=1;" parent="Dez18VXg3sy8JYcPx_31-85" vertex="1">
          <mxGeometry width="96" height="30" as="geometry">
            <mxRectangle width="96" height="30" as="alternateBounds" />
          </mxGeometry>
        </mxCell>
        <mxCell id="Dez18VXg3sy8JYcPx_31-87" value="1" style="shape=partialRectangle;html=1;whiteSpace=wrap;connectable=0;fillColor=none;top=0;left=0;bottom=0;right=0;overflow=hidden;pointerEvents=1;" parent="Dez18VXg3sy8JYcPx_31-85" vertex="1">
          <mxGeometry x="96" width="98" height="30" as="geometry">
            <mxRectangle width="98" height="30" as="alternateBounds" />
          </mxGeometry>
        </mxCell>
        <mxCell id="Dez18VXg3sy8JYcPx_31-88" value="100" style="shape=partialRectangle;html=1;whiteSpace=wrap;connectable=0;fillColor=none;top=0;left=0;bottom=0;right=0;overflow=hidden;pointerEvents=1;" parent="Dez18VXg3sy8JYcPx_31-85" vertex="1">
          <mxGeometry x="194" width="96" height="30" as="geometry">
            <mxRectangle width="96" height="30" as="alternateBounds" />
          </mxGeometry>
        </mxCell>
        <mxCell id="Dez18VXg3sy8JYcPx_31-89" value="" style="shape=partialRectangle;html=1;whiteSpace=wrap;collapsible=0;dropTarget=0;pointerEvents=0;fillColor=none;top=0;left=0;bottom=0;right=0;points=[[0,0.5],[1,0.5]];portConstraint=eastwest;" parent="Dez18VXg3sy8JYcPx_31-80" vertex="1">
          <mxGeometry y="60" width="290" height="30" as="geometry" />
        </mxCell>
        <mxCell id="Dez18VXg3sy8JYcPx_31-90" value="B" style="shape=partialRectangle;html=1;whiteSpace=wrap;connectable=0;fillColor=none;top=0;left=0;bottom=0;right=0;overflow=hidden;pointerEvents=1;" parent="Dez18VXg3sy8JYcPx_31-89" vertex="1">
          <mxGeometry width="96" height="30" as="geometry">
            <mxRectangle width="96" height="30" as="alternateBounds" />
          </mxGeometry>
        </mxCell>
        <mxCell id="Dez18VXg3sy8JYcPx_31-91" value="2" style="shape=partialRectangle;html=1;whiteSpace=wrap;connectable=0;fillColor=none;top=0;left=0;bottom=0;right=0;overflow=hidden;pointerEvents=1;" parent="Dez18VXg3sy8JYcPx_31-89" vertex="1">
          <mxGeometry x="96" width="98" height="30" as="geometry">
            <mxRectangle width="98" height="30" as="alternateBounds" />
          </mxGeometry>
        </mxCell>
        <mxCell id="Dez18VXg3sy8JYcPx_31-92" value="150" style="shape=partialRectangle;html=1;whiteSpace=wrap;connectable=0;fillColor=none;top=0;left=0;bottom=0;right=0;overflow=hidden;pointerEvents=1;" parent="Dez18VXg3sy8JYcPx_31-89" vertex="1">
          <mxGeometry x="194" width="96" height="30" as="geometry">
            <mxRectangle width="96" height="30" as="alternateBounds" />
          </mxGeometry>
        </mxCell>
        <mxCell id="Dez18VXg3sy8JYcPx_31-93" style="shape=partialRectangle;html=1;whiteSpace=wrap;collapsible=0;dropTarget=0;pointerEvents=0;fillColor=none;top=0;left=0;bottom=0;right=0;points=[[0,0.5],[1,0.5]];portConstraint=eastwest;" parent="Dez18VXg3sy8JYcPx_31-80" vertex="1">
          <mxGeometry y="90" width="290" height="30" as="geometry" />
        </mxCell>
        <mxCell id="Dez18VXg3sy8JYcPx_31-94" value="Sum" style="shape=partialRectangle;html=1;whiteSpace=wrap;connectable=0;fillColor=none;top=0;left=0;bottom=0;right=0;overflow=hidden;pointerEvents=1;fontStyle=1" parent="Dez18VXg3sy8JYcPx_31-93" vertex="1">
          <mxGeometry width="96" height="30" as="geometry">
            <mxRectangle width="96" height="30" as="alternateBounds" />
          </mxGeometry>
        </mxCell>
        <mxCell id="Dez18VXg3sy8JYcPx_31-95" value="3" style="shape=partialRectangle;html=1;whiteSpace=wrap;connectable=0;fillColor=none;top=0;left=0;bottom=0;right=0;overflow=hidden;pointerEvents=1;" parent="Dez18VXg3sy8JYcPx_31-93" vertex="1">
          <mxGeometry x="96" width="98" height="30" as="geometry">
            <mxRectangle width="98" height="30" as="alternateBounds" />
          </mxGeometry>
        </mxCell>
        <mxCell id="Dez18VXg3sy8JYcPx_31-96" value="250" style="shape=partialRectangle;html=1;whiteSpace=wrap;connectable=0;fillColor=none;top=0;left=0;bottom=0;right=0;overflow=hidden;pointerEvents=1;" parent="Dez18VXg3sy8JYcPx_31-93" vertex="1">
          <mxGeometry x="194" width="96" height="30" as="geometry">
            <mxRectangle width="96" height="30" as="alternateBounds" />
          </mxGeometry>
        </mxCell>
        <mxCell id="Dez18VXg3sy8JYcPx_31-97" value="Hình thức thanh toán" style="text;html=1;strokeColor=none;fillColor=none;align=center;verticalAlign=middle;whiteSpace=wrap;rounded=0;" parent="1" vertex="1">
          <mxGeometry x="370" y="-484" width="120" height="20" as="geometry" />
        </mxCell>
        <mxCell id="Dez18VXg3sy8JYcPx_31-98" style="rounded=0;orthogonalLoop=1;jettySize=auto;html=1;entryX=0.5;entryY=0;entryDx=0;entryDy=0;exitX=-0.01;exitY=0.618;exitDx=0;exitDy=0;exitPerimeter=0;" parent="1" source="xeQGUiYXKvnCCXj6hmbg-16" target="Dez18VXg3sy8JYcPx_31-111" edge="1">
          <mxGeometry relative="1" as="geometry">
            <mxPoint x="105" y="-229" as="targetPoint" />
            <Array as="points">
              <mxPoint x="165" y="-341" />
            </Array>
          </mxGeometry>
        </mxCell>
        <mxCell id="Dez18VXg3sy8JYcPx_31-99" value="&lt;div&gt;Momo&lt;/div&gt;&lt;div&gt;(quét mã)&lt;br&gt;&lt;/div&gt;" style="rounded=1;whiteSpace=wrap;html=1;" parent="1" vertex="1">
          <mxGeometry x="285" y="-463.5" width="145" height="53.5" as="geometry" />
        </mxCell>
        <mxCell id="Dez18VXg3sy8JYcPx_31-100" style="edgeStyle=orthogonalEdgeStyle;rounded=0;orthogonalLoop=1;jettySize=auto;html=1;entryX=-0.005;entryY=0.339;entryDx=0;entryDy=0;exitX=1;exitY=0.5;exitDx=0;exitDy=0;entryPerimeter=0;" parent="1" source="xeQGUiYXKvnCCXj6hmbg-16" target="Dez18VXg3sy8JYcPx_31-102" edge="1">
          <mxGeometry relative="1" as="geometry">
            <mxPoint x="785" y="-229" as="targetPoint" />
          </mxGeometry>
        </mxCell>
        <mxCell id="Dez18VXg3sy8JYcPx_31-101" value="&lt;div&gt;Visa&lt;/div&gt;(nhập info thẻ)" style="rounded=1;whiteSpace=wrap;html=1;" parent="1" vertex="1">
          <mxGeometry x="435" y="-463.5" width="140" height="53.5" as="geometry" />
        </mxCell>
        <mxCell id="Dez18VXg3sy8JYcPx_31-105" style="edgeStyle=orthogonalEdgeStyle;rounded=0;orthogonalLoop=1;jettySize=auto;html=1;fontSize=11;entryX=0.75;entryY=0;entryDx=0;entryDy=0;" parent="1" source="Dez18VXg3sy8JYcPx_31-93" target="Dez18VXg3sy8JYcPx_31-106" edge="1">
          <mxGeometry relative="1" as="geometry">
            <mxPoint x="915" y="-181.20686287715512" as="targetPoint" />
          </mxGeometry>
        </mxCell>
        <mxCell id="Dez18VXg3sy8JYcPx_31-115" value="" style="group" parent="1" vertex="1" connectable="0">
          <mxGeometry x="20" y="-430" width="210" height="230" as="geometry" />
        </mxCell>
        <mxCell id="Dez18VXg3sy8JYcPx_31-111" value="" style="rounded=0;whiteSpace=wrap;html=1;" parent="Dez18VXg3sy8JYcPx_31-115" vertex="1">
          <mxGeometry width="210" height="230" as="geometry" />
        </mxCell>
        <mxCell id="Dez18VXg3sy8JYcPx_31-112" value="Quét mã để thanh toán" style="text;html=1;align=center;verticalAlign=middle;resizable=0;points=[];autosize=1;strokeColor=none;fillColor=none;fontSize=14;fontStyle=1" parent="Dez18VXg3sy8JYcPx_31-115" vertex="1">
          <mxGeometry x="20" y="10" width="170" height="20" as="geometry" />
        </mxCell>
        <mxCell id="Dez18VXg3sy8JYcPx_31-113" value="" style="shape=image;verticalLabelPosition=bottom;labelBackgroundColor=#ffffff;verticalAlign=top;aspect=fixed;imageAspect=0;image=data:image/png,iVBORw0KGgoAAAANSUhEUgAAAPQAAAD4CAYAAADb7cuFAAAgAElEQVR4Aezdd6g221n38UexYseKFStWrFixYgsalSQaEjVixYoVK1YsCVasWImJCZaEGCMxRqxYsWLFihUrdqzofvmMz3f7O5N7n/M8J4dX/3Bg9lqz5lpXv1a5Zubet/7pn/7pyvEf//Ef/2Pnv//7vx889Kfrf/3Xf63pSv2f//mfr6//7d/+7boOHv//+Z//efEE6L4j3GDh+Md//Mejz03yRwR8OLT9y7/8S7eu+99E/97a8UM2vMCfXPq4tzJrO19joj7q6UI92cJ1SUb3OtTBrN7DeS7j5R/+4R+O7tE908Cbex3uRzPY7l0q42n7gUsP8OM3P3ZPn2hcqtemxFtnfeODjdF1VFa/xDt8+FE61INTRm/bnt362Va3PuADPuDK+ZCHPOTq/d7v/f5Hzg//8A+/etrTnnYdJBnpcY973NVHfdRHXbmPtw/7sA+7+vEf//EDjkFTXEpxfdN5aHgCmrF+67d+6+oxj3nM1fu///tfve/7vu+NsrvnfJ/3eZ+rRz7ykQc/j3rUo65+4id+4tqxONRNtO+tPb4qGyjI9Ed/9EdXX/7lX37wx0Z08cVf/MVXv/3bv304MRgHfXVoc/17v/d7V5/1WZ919UEf9EGHfW+S7wM/8AOvnO6T6UM+5EOuHv3oR1/9zu/8znWQxFNltP7wD//w4A8NernkP3DC96u/+qvX9qKPOz1WNn04MLt9xmd8xsErvj/yIz/y6jM/8zOvfuEXfuEeNOiiYFVeskN8LCy4H/qhHzrk4Rt0r/yyL/uyw/fwBJ/jp37qpw4+3P/gD/7gQ490QY9nndDFTXa4pLs7aWO7D/3QD736mI/5mKuv+7qvu7r1PM/zPFfP/dzPfXXr1q3jdF39OZ7jOY66svM5n/M5r+u13WkZ3ud6ruc68C7dn/u5n7s2Rkp+szd7s4NW/dD+2Z/92QMuZwbLAJR8Nn54gjk7kiB8ndd5nWsZ0SFLZXXXaMeH8oVe6IWufv3Xf/2aBH4uOczSrI7PRtba4lGZs/zlX/7l1Su8wivcQ1cv8RIvcQT69quPtk6Dwcu+7Mte88yuz/d8z3ct28qydTK/6qu+6tWf/umfXuOCM31HV/m7v/u7V/hZPcF1voaPLPVdWbXdZLuF18ehTUDT//L9Bm/wBletFuqn7NQXnXT7X9j+a4AIhk3qa3B43ud93uNEh6/yx/PBH90Hq+Qn1V3z9bPv0M/9OeE7n3AXR2//9m/v/j2BurntZwPtvbup72ChH7wJ++wENCVnCPX7CuyM8vd///dXr/mar3nwkeLj6QVe4AWeRXl4xq/zpV7qpY6ZMge5r4DOaZbXgiR+Vgb1v/qrv7p65Vd+5Xvwh65gPR9n+gX0Jdtpu2SLYF/plV7p6s/+7M+O2YiTrz7jUflABXQ6XJnQTT9odYKx+njBF3zBa/uwx+u+7uteDOjFealuUI+O0ioErZ/5mZ859C446YV/XApocBsDeEm36bNy4R6Ier7YBHmPgL4pkBNGCcEDydzienYDmtMxREZZ42lz73wImNd4jdc4DEIpBXXKXv7Irj3lmSF+4zd+4xpvNHK8LdF1H4+2CpccGIz7uxf88z//82O2jKbyFV/xFa8sdR0r09JTL6DxnOGTS8npwrvt6gK6GRqdXWpHU/lABPQhyO0/O3DQ1x7o1WbL8SIv8iLXgUSW137t177XgNb/Jr2HewcvWzu6oCMnX7gU0M3QZx26zn9u0vOlPvfWtjM/3PCubY+A1rAEXcdIyOvYtfv359T/RV/0Ra8NsXSMdBS7x50uufVZZ3D913/910dwMKJ7cDsFFMMpOe1bvuVbHkq5NKBZompfRapre+EXfuFjyR3P9xXQeMgh8Wd5qK9gUd9Adh+PBoy2BGjSHZ1oP+NLvsoN6OymfLEXe7HrJZprtrUagZ/tyffGb/zGV7/5m795vS3YQEhe5QMd0OS2MiB7B9qrN9eWw5bx+S3e6enSklvfDVR4wcETnWSKpmTik5/85Kvnf/7nvw4avnopoOVR8MFX2tLQK/9I7/G5M/f9jR842akBbeP1COgQB/hpn/ZpV9/2bd929YQnPOE4JaaqP/7xj79ydn235bd+67ce/c2KGHEmtOTCWbF3GtAFE4Ooc3ZJE0mFhz/84dfJDUmKRzziEUdyS/vDHvawI0hSCl1Yyn3hF37hVbx+0zd909U3fMM3XL3Kq7zKNb/gKJTTd8QDGc5njhOspf7HfuzHHkmoklGSGn/xF39xgMDlyLHY4Du+4zsOvXM0g9H5ONMvoLOv8iVf8iWPJNZjH/vYq2/+5m8+7Mye8G/51Kc+9RhgwolWPGUj5QMd0AZYCVDJI4koumEvdst27PZu7/Zu9xiU+NDrvd7rXQxofOI9/i3X4Q4vH3EdvRKkD3rQg45ATX985FJA/+RP/uQxueVDeLH8//Zv//ZDp0984hOvnMXOxtbdxg88bMV+H//xH3/EDv7QVN5jyY0ho/eP/uiP3sNXck6NW78H0F1cCLa3eZu3uccqAG0jHfx73GlAbx+GM9vp28hoBHcSGq0U0H3XTtecvmSXUfzv/u7vjtmew9QXrCX3r/zKr1yvDNBNP+cyZ4pPjmuGMQPgC92Xe7mXu57x0e0Ir2uzuSDvQCfcwUX7HNB4f/VXf/Vj/wmGHc6HNjR2iR1MPOnrUD4QAR0+OGXW6YE+sg2bqePf2XU2q3z913/9iwEd/5X8O9z1XbvCr91KpbprMJcC2pKbDRfHO7/zOx/kso0LdfpdeePpTkt9w2Ngx1c8Kq8D2oXT0utHfuRHDvwZcIlpe3YYgkv/t37rt7525ALt2Qno8wyIzhu+4RseAmc0ZUue2lJG10ozr0cs8WpwENSWdPVXBpeezgFFzs74S3eWlZJdORY+ZKQ5dH3QvxR04Yi/nKZ+lQV0sqFhEPnjP/7jgwae8L404EqOQwHzJ7pbPlABHc+2EmXNL9lGm8ApeKprv6+kWHy3RKYX/ZeOa/7onvbuRe9SQMMXXLp+27d929Hcf1Xplb6z17MA3EGD/gZbsjzzmc+85jN+n2XJbQ/wwz/8wwfqM2FIYigD3G0JMYbe6q3e6lAcRaTAZyeg8XE+3vzN3/yaRgovIBvxM8CWVikFNJwc/2/+5m+OpItRO+XdzR4aDjw2u0p2WcKHC38v8zIvcwTbysEGzpWvINz2bLX2uBTQaP7BH/zBNT7wG9Cu2acBaHmpHi/KByKgw6v8tV/7tWOGzieySwHVdQMhOHV2fa3Xeq2LM3T8Ruenf/qnn2X2DW/l2T+y+6WAtuSOv0oBnU0q6dmZ3fB1tycZ2IcP/MAP/MC1/+CbDz3LDK3RA/UIpQR7O4gcKShGlTGJ0B7B1laft3iLtziYSYFKe+iO8LzJm7zJNdN4o9if//mfP8DOTlcfpVNiJ/w5iP7qcLmX4TKE+wLaUtrMjH88m6EtufUJlxna81BHcqnrk9KTHz9g4tEM/Wqv9moHvmibPSV7Cnp98eCoH7zaw3vcnPt0go7SbIcGZ0cD32ax9v0lhrJruKKnnQPC5Qw+OPv4X/qlXzq2KPRCp+g46TUdo2sAp8MOPHbWpqRPq8T6Zr/FF60zjBUUnlY3aHRop0cBjSd8msDiG94G/OieSwnUjujw23gKfuHAZz96dOhLt7WHs9K9hbOq2mv1svBL+44D+pM+6ZOORIW3UjZh4VoSQemUWPC2TKfrAhATKfgc0BTssVWCHNxfXR2OkJNQNmODc6wy1OHOaILCYKBvStb/8z7v866+5Vu+5UhQKEsOSYBJErnWLmkFVyd89mg5AryWyAVH/HD6T/3UT73WEfk/7uM+7upP/uRPEuko8fqUpzzlSLyhi6a3kLwJpk961dejtY6zfvAHV6f7TtcGAwkY+CVS0Piu7/qua72B0/8STrP7J3zCJxxvmeHFG3qSMOeg5KASOyXV6LFkolK7U0IvOnjbAw8OJX2++Iu/+LXdGnDp/RzA2VXJtu2h4U8H0YI7On/7t3976CJeJT3ZLPz5W74Dt3t4MEPnd/CpGyA2qNQ3oPHAfwxW4kJyTww5JeSqV7I/GKXY8hbeF33RF10P9OnO1jgdxPsdB7QRtk4JCtnWE0obWMbQ9v3f//3XykzB54AG67FVs0VwFLN04TYiuh+MMiUnrIDcPTQcElC/+Iu/eE0j2Jwpg+81vNotuS3pdqaQPLNEdN+JD29DSTxxgvTz0i/90scLKOHlbOGtTWn5apZOXv0liH7/93/f7aPPWc7tv/o4Otz+s3IFs/TxA6Y2Qcr59i0zcnv+XRYe6sUVvfB0Xcmu4G+6H5xVhRdnVgf0sHp37VwY+raC8qgSjWbC8Cqjf24jt2VzNguvANaWj6u/0Ru90fXABA9avYBSP7xtQEfPytcK0H04w5s8lYtHm2tZ/QbE8NlDB1t5xwH9Du/wDgcjMbNljNxUWhokfE5wDmgMmcm7X2BvUIbfsjR8leDX2Qm/fSmPU8hen+HgQHfbGcqhzT2julcL1wiW5hwQ7eDBtcyNXzOOmSfZ4F2H276CJuPo77nzOaBbhuvXCffW0cgByBAN7cGqd+x9/Szx7OmTQekVVFsFB3h4VmfhItviq33L7p/70ye9ord6WD6qWy4LOtcFtIHcgbfkV3egtXrX5lq7VR//CLfyfI2WbVy8H0ivro6A5hf4jecN6OjLrrt/xrs01cNRu+t3eZd3idw1/fbQ2+eOA9omv44IEGBHtBy9tpjRbmRyECzhzgENft/RTvESW+4xHlxO+9s9KDjDbPubvumbHn31oUSjY8kufZzrUK6Xx3hWWmp6RRQv8DGuQDWrLg5LbjN08tNVAQ3PwnI4fOd457fC9JXxLaDjucFu+U+v8FfvPhrqd3rAYYtgdZC87Cor73Gb497w6b9yLt3lTXvXwRv45CbQXcenCzpXOt0vmLtnyV3+Ae58SBmd+Kbz2sCaJNgVXvjQzpe7ds+Su37ZzpK7vpX8uwO8s4BevHCfz3AsL+/4ju946DTa5JC8BhOc8o4D+u3e7u0OIVfJIYsBCu7+KvvHfuzHDtkSzMWlgN69NhhKJ8gmSdR/8Ad/8FlerJAM2ZlL33d6p3e6Ngq+BPQv//Ivp+frsoCKpoDBqzLDexnBko7yyc0oZqzdQ+tjZls4sGZsM48jx41mzq+vfesOBvparlv+gssZ4Ym3+CvIuwbr1A/u7avOGenMPUfwx8Xt5f8uudlThtySOxnAnnFrw8PKp15wxcfaS5/4NFijw1b5lzIfU2eDva5uRWYFEa78IZnid6/V8cYv0IQrH0arevesVDePoH8vliyfG9DR8xQnXhe3+p75mLbq4m/1jmcB3f3KOw5ogcWJCVjnmEhozMbwGqTsNWPmQOeAhqN3uTM6RTzpSU+6+sZv/Marr//6rz/e1vLG1u7jCOn8nM/5nONztT4V9OlaI3184o3hckL9GMebcRIS+jrVS0hIYkgI9dki+pJLJVQ2YYVfzitJBE4yyvlVX/VVx6dtcPnMDX74mu30I7MZ2ipgB8MC2n2nFYBBA89wSVhJrEielIgkOxr7BpT7ZNJeH3WwTvd6Y40OvEWV3pR4kiEn7zqWgc6bXeGuRCNdooO+NjxqV5JBAK69BaHEJJtLVnVu8lL9C77gC47tSLrCoxd94CWPEr3P/uzPvn6URc8CIR/sWpvcSrjyZ28z+hyxpOLXfu3XHv6oXwd7b7a5+LgU0AI/GulULO2pnZ8WY8WU+OvAPxtY+YJ3Bn/HAd2SO0YK3EWmTiD3MB7z++ZZyjwHtL4FdIxTVnsihl5Hygm0wWl5nSHg2rMljkHGktvs0GFpaVZMcQ1EFJQc6vZ1ZsqUubNOuPDkPgfpwLfnvu2N41FCTTB06CtYwKGLptM+tiU3WPgk4vBMv+FTuta3tuwBz+oDzF6rB+Pe3tfetSXteQCzqiLLGd+ZB9dw0a8Sr1YuvUhDNjp1GGSzq+vslc21WRm9/Mu//LWPZWNlsuCpQUif7e/aEU2Jrfrmt2ZjfbIn28qROAysDisjK9DkT85LAW2Gjs/g8bqndvpOhuri78z/HWe5BeC5M4QRiZnKGOr6XDZDU0B47Y3P+CiV0hxb1ue4cRtHe6WULfuIbgFJERmmNveNxHDDyRgCpOfL7dPjK2UqBXSvg64c6g00yj3j14pC9hoeBndaztp/r2wy5AIan/Eg47sBTV5BINA5B5zg41X92T1zyvhIj7L8u9wUDGSQIwhW33ujDxe+nS3h2SN7nnWbrdKlUpuleSswukoP6KvHsxVPwUfX2Sd8XcMXDvzrv/tlcAV/PMKHlx5bpQPlBnQ23hdQsm/lvenMPUvu6KaT3UODIfvFGfp/a0CvQgmXYBR202M1glJajtZjpkM7t0fYvodu9ki5q2xOuwHNwJcOAedeAw0Ys1ofo4S7GR8sORweje2+FSyntcQmO1inTyft35MJnPryG537U+7gAOcGR1nuZLfvP2fD0dzgUI9XpZOu6aQBohxAeCsLhq4r2XG/ZkrO6FYarAX0JTzb5gUZOPCmr1OmOtsoq+NBX6e2/wvoq6uru52hKY4zO5QCxuzq4OzwZUROuI6YsRnLsh48fAwiWDyKaCmUQde42sycjN6RM8BV8KrbB++hrRk6nEqByynjRR9Lc8tQcjSTySxb6udAHF8/Mz6YghiPyfnsluiHV5luPLZb+fAiO7yfwwrUZk58hAdOPDY4qJvxydYgWMCkWzpR39k73Rpcl04yrw9oM1gbdBzw4zk/Chf6nrCQE3/p377VveWnPtkDzv8L6PsR0BlBAHhrRiJG0sMpEfOlX/qlRzLFm1GSJr0ZJbniukTWR3/0Rx/JJG/iSM74hPGrv/qrD3iJLEkYfbZegoZj5XRKLzH4HStJMwkqp7erDBIZXAnObLROx3n8PpnkTYmkj/iIj7j6iq/4ioO2T+3w7PfE8FxSibx4z3HDqSx4tu3+1OEOl7K6z0rxjBcJNOUnfuInHjqjY4lCPEtECXL9CuD4CJdrSSwJMzqAS51N6GNtK+FJh3t4arADSXgb2Fw7razYJ3xoeVuQH/GpVgZsy+bk4APqkptgCuhKfGTf/wvo289D73aGbhY0K5cAy6kZTmJig43SGwTUG5nNMt4Yy8EkVnquncHgWVzqJec4QrjNqJIuHqXBhx8zqkx6uJSW0hvQLe2bsXI+qwAz1iaB7J/bfxsE9Il//aK7ZbLdnxLOc0Cn50v45C72qQPdmLH25ZD41D/84aKLgrC2c4mGBOLqVFIsGuGFe2kZTOC2NE8GOvRKcHYsoPGdzdFRl9M4tx3G/7+A/u+PLjLK3QZ0wUnBvQGWIzBcGXL3GSmjFHxKbQK6fozsxQ2Zb/0yckar3HvxYYCx/BSoBTTH2pdIosnhy6TncOtgObBluIRXNJSy8PbLHJ8z1q8+ytoq997d1guKLdNXuAoUPPnZH/JlVzLTpyDSL57g0891+MijrQEqWdJR/X10Ye/ODk6HnyAS0MHqG8/xqT/83avdFsugiWc2D+eB+Paf7m1bdtHmvlPf/1ty348lN8VRoKM3wDIQw8len4/gtevv5Bz1U1pG7t442HAtDvVmevctA2VqORJHddrXyfzuIfDb8wbHmZcPdYNL+7361/cMm6Oe25/da/wVGNXh1BbPBaR2vz22y2E6KtjiBa/O+qWD7ldGt+vos5klMdzZoyW3PsFvvbZLejIhCE7+0BFe1xu4N8HEi/v/F9D3I6BTvNIjAcbjIDnHOShTeMtX/QSjGdrMwuAeU/WBxeJf457bGbDlfzMvXDmTAcJSfA9wluJg8JuznUuDgaVkg4ZSRrvl+vaNXkFyyXHP+O/kuiCK16UjoF0XoGCtHspUp3PbhB5l3cQfHNHAV7JFrzbXkmdrR7q1CtikWHxX7qx/llv2WtC2ItugXbupu3fJH5L1f2VAp9iU6qXvGE6o7/zO7zze1upzuC0lQ7xNI3kkKaLuDRvtz3jGM47nqDvqUWRZ6YKS0ntevUEjaeWtJckSbwBJxng2m5Hi+V3f9V0PGImVzrKjyYIHzqEvh+KgEisPfehDj8SMhIm+EigluiRonO6V4S2g7at75JUjwSlxBAeeJXvw7W0xCRfJFjry1pHHPRuIZuj3fu/3vk4M6e83z7QXGPAnszbX5OHAX/mVX3kkdLIBeuxUsqp2peSh0r2v+ZqvuceyFz5LZn3hYFdwyvSe/qxQ7DU72NYKpf3tBmh1fQ2q7OgNQP4iCVhCEh168vtZeKQrb73xA3qlU4nC7/3e7z1+t8t9/f0OXPxV2sb4fTR4nOAku+Dw4/zZ+3M/93MPEQyiBXhB3/UOAAU5eO9PZJPKfgghX4HLQIc2+chMXiXddq0udoof+vfJ675ibHCDrzfUTEzF0fEcOkVXCug9MO2o3HvVCZjg2gifAlwXVLX34wMFAgNgMEWFtzfKUlQOnMGU7hEo/rVxGEuhPfAvieU+p9ogWXxoCJBoghN851WA58seM21fPIRXHY4eUdEPQ5BRJrxHVMs34zi1kcGpHgy+3VdqS25LX8vQaHAkdbTQ7Ey/yuxpiSwhBy9+nbYIVgf6OeACd37mjO6+PQbu/LLJ6kc9GpbS9BCNtdXy6TEdHa5NDMwNsPHnrTWZc/jphY6syFpBgEOLX7gHDj/sLfGWPuIjHrqOjtI9vgyfiWhtDmdfW4Fb+ejnvo7sFhxbhsM9dJU+S+Yf+QK6vsq6xTE05hz9plgIKzdAa9vyzCx4Weltr05gDKQIyvVqXPfDa6QDhz9lZ87XdQ6vzKASZY4MQyleNGDAM77wVKYLJaWZyWWg9+iFkfqgDdZ1/Kif++JHkuf8IQZYvOdoysWzdBZG+343jUe6b3ZYntXpeB1NAJ4D1VJasHWAl7ATWEubDLL4e8hIX3odVL/0Ti6DhqDM5tkJLrbquj15uiWvlYFATUY4PK04D/iSdq3U4IXTU4j0WgnufFzy922Lb36bbSr9Zt69HfjQn5xkSNaV+9w/GO346PPJldmz8yOgBUjM9LnjIrw3QsEhuES1YxrxhA923w2PrlfjOsJDMfFG+TlEfXKurhNOIJ5naDyYFcA0kNSvEo2MHG7wlqAcZvVwfhwFR/3xHA3BIhg64LBMPc/u9b/ES23BxCN94FOgCcwcLr1HUzudom0mUnYIXDNtAYdvwaYdnvoJrA1ovHjsJ0ewh4D2UUk8podkQMc98jdoxHd48JfPWG627aivGbo3wMAJCvYxi8OdXs4zNDqWyPtkAqxEWYNDPFwqo0UnnQV0dMnpV20dyaC+Ol/50u+2XaJdWysJMzRa+Eebzx2/W+Aipbvpp3F6C2uRYC4httx29ZynvmD3sAfwM6cZB1PonwNQH3vtdQR1I7VzFRiMNnXJqX4IIdrotucFE2yyaxO87f/CSSfwmaGTFU7Z3cUXPMXqQz5tlrO7B4JDNptTxgO6nDEcW7rnGixeSzjVpjRoCI5LuuYAZOewvdecTpQejeExXuAT0Ps1GDiBKoBXX+cld3Ab0PFPh/UVUBKFBjo8ceZ1eHjyMbrTF1/1lyhsZZDMEmWrQ/II6N4hgNNhab72Yad+uACuHVzEgWs6dC6ufKGAxp8TPjmdAg+cY/Ge5XWvAQX86iI9wFE/8E9/+tOv6ZEVXe98HzP0GvPBD37wkQSSzJGYcZYY0nbplETyppPTG1NgKiWUnOHR3ls+0VXaiyT8oYGrq2OkE7yYBeP0dpZkimSI5Imyj/FTqqA6f19NwQIwGLg4ls/4JCqcEhUSWJacwSk5ynnJ7csbSzVOBhcnkXn1ZpNEU28cefvLb7JJwtCLxI4f1fcbYpIf6JLHtUQRXNG2MvDfJt13wuuavAtniSsw9+DwZCvBR++f8imfcqwOOEaB0PvY5EjPgk17Tgte8O0XTngU0JsUQ1/y55y4NLOTT9JHso3dvAUn6elTUr5BN3RniWwAcuBRQNODgcGJT3ak//yFg1tKN2gU+FZk4YKPHLZi5MQ/myltxTrCiS5/9lYi3bGfzzbhcBSAfXSx9ugNNf3SP7u7Ln7g7V5x4z7fcIILRvzkO3SlXTJ3ZaCjewR0ShAMADsT3jWmbzrBrVPU/1yu4NEEU5Y7xTJmL6AEx6B9lZViwUtqLJ/gzjM+QwnAheNoki4dYAQGR8BTsAIaXMYGz6HMFCuP2f28vDaTt7wOFl1Jp/BxSEtXjmoAQ5vMAsbMGJxBCX4zaLjAGoDgcwTr2l4TPjYlS7MimE5L9Z1R4TNjtxyGky1Kii1dfDRTHsRvB/R5D02unrGzG3ySeL0cksxWLQaIZjc4wXFW/KPtpE/6h8cBp6SlgAZXoLL3mT/vLOTj/IS8Pg0VoPCkP7kkcPkevHI/BXK0+S16qxc44dZHvTMZutZHX/LHS/cqz31q322DNrh8pHTM0AFtmVISaO/dbR0uykmR5/6YOc+oDIXBpQ9PS+kUywhlzeFNSf1SymHx20ZnuFWyGdWMklMoLauM2GilA3s4ezRG7OR458SWkZnj5xTwcTyBuTJboQikPQwkAgTNjNhyvaWf2UZgGBDWAcyc5+ffAhJccijh2+ww3RkwzisSgb8zvgGHXFYGqz/9doamG/qkr5VXAO4LKOQWqC2l8cZuBsjwmanZ2FK6mRdO9A24BsB8AN2y3Pyl05K7pBgYh4B2Hz346NGE4D590LHSV4fuC7YCzmMhB32wsT4746/M6mffjeYZzvXqVbAGmy+AoSc4g1VqC9/155NLuJvnMgLn9iXg3hJY2DONvabUPtukpJRfljvaBgQztCMYdXDRJSTcDBxMAcbAKQNvZogeR4FxCmgju/vRNUNwQIZmTHhluQtocGia6XwJFF28cTyBugGI7j4WglMA7paAPAJDIC0+GfK2GMkscJtR8QhegBtI0A3OtQEBTDosiYX/5KkKhxAAACAASURBVIXfHhqeTisDdNZu5GqAaFbF7wY0nAK1Ty/DZwsDbp3SY8UCX7CCtfQ14y9dcAI/u5LFkttjq2RgP4FfPggu8PwCTWcTjIEe/+yALjhLaTiaCcHvd85oFvhoOuOxUh84Ol13T9vyuu3stdf1Vy5OcIvzPd/zPa9uGX10jqlL5SK80zo8nCkGlvkzDvds8jNQZUvu+lKupZD7GZwRBGo4wRJ0Z3zw4GQzyYonvJmx9vEWuHNAgxXQltxwFAgcT0DHGziOJ6BzCrBm6AI/HgWWASI5wZuxOWrBB9ZeVGByxugKtJ1R0XetP3yd+LCEJa8TXtcCruADq1+PrcgAzgy92Wtw7aHhSo4N6HRzDmiwArrATzfwFfjpUAC2RA7ODI2/gg8+AWggiib+zLwFNHz45BfwOMy89AgODn6vBGeFB1e6E6ie9jQIR9uSO1scSK+ujufB8Q/fnnDTaaV7YPcM/oxDP/TjYfvCBx5f5GAzbce+WhKot1ckKy6dEjLeZnFPXVnSp4SNUoIKnLNEk0SO9q6DkRCCRztcLfEolsMxRD+WT7iU4K0hnymWhJNYMDOuYihhAzrl+4+A6KPts0l0mxHAMOhNAc2xHIzt5KBm1A1ADlryLOcwk5z30OTx1hveJTgkPby91GxAFjA98sqJlPR0XsIL6OgGa6npzaTkVXrzqGAmC1gze3toToG2GboZNTiBvzM0ewj8lsjRPQc0OANaWXNwdGNA24CmR4FqRnW/wzV/wj8fYztvTy2MugGsgCYDWQxgzdDBm8kLEryBteTmd3hLDvLns3xY/Xu+53ti67o0AOEPb+CceLx0bqwUS9FItq7h4Z+uJVaVYCp7M5BevAHn3vd93/dd3WpkwiGhL53X3N/eP3DoPfTRltL2XgFAUUsrmBR46bpXRDl3gWNUyhDaGcS5daNWAR1PjdTRcZ2x4wHsOaDhtodrKQ0WnBcbzFAFAf4spTewwJnpODT+4jueK7XnZLUpzdCWnB1oCwwri4Wzhzbj7QGWjGurrQdrgBBY5EgWAb5LbnII1M3C4xkfO5PDeQ5ofBrQdoAARy45B3jSi5ncQLSDDlhybLY63smTnAaI3hRDkz1snbJxfXbPG10rNwdcl47a+a/jrNf60NMeq+/qcFVfWHX4uxdNZbIvfjw4gou3WxoDdPPSGZEQuA5R/bt2L2Lu3XQsTMyAXfrtoRloHT4nyCDub0CDLXkW75wkHtFBk9zK2l2fAxoNAd2LJfEoEDhqvMiEc1ABDV86bWmOx8541bcg6t6WZmIz4x4CTQCDKwjNqAKJTtNfQaGtdnjO9oG/FU740D0HakvzdA5WFv0cqOeABm9Aoy86wR+d28LYooSPPALQQOk+PpWOs+1WH+rwWkr3OBQuOpbcLKDBOD39SO+CXt1K0L3zke9sO/5rF2j6ud724JO168rtU5tSO1nDR340NlbARV892xoItd9RQOt0SeBlpjq4YDGXURDTDldt9amkgPpq61NJSi8IcuR1hNqUToY6B3Q07q1E+xzQHNfMa4bew1LrvDeWNefQDrI4BQbHjzdlvF8qawMncHeGhlcAWfq6b+CiFwHdc+N4TMdkWr2qO2rXz8AED9rkFdAbqPqQa58vo2+Fov8e54AGR0/nAYJcZ3z20L38sn6QLOjgxZk/RduWqC0LWZwt4cGEQxIUT06yKs3QOwCCL2iWj2gp0yO46pULt3U8gNlTm5hwdiye7NQ98M3Y26a/fkdARyCASyWYGEJEPWHcS3Bl92sLX9fLEEZSHjzuwe3scRTFc7Z1doZgtIyzMzh4I/byBV+H9ksH/s4BjYZAtffqwKO9pyUiWmAs8wVa2fBg7TE5fnwqC5yzPAYicijhFFj7nBzfO0PrbwsiIAUSvujTrNRITyYnHSvpYfUMv6Uz/uPRAEE+8A4luUrG4Y3cZlTJqWCUlwK6JXd6V8K3AY2+gLYSaFYFFw8Hkdu8kIWc60cG8F1p0I29cUk2eMB7bmzFtbo3ceSD+YlrCU167NFXPGyJj+Vx68HBkey1KcFGb9vRBu+EP9jkDpf+2VrdYHgLUIhDci5t0Ptxd0kcCSkJnd6kUXf6rE3pbRZvvXzJl3zJ8RwxZtGhHG8JeXMGrt58YciYD95jAs7tzNk4U/WM0kxVOxgBjd4KH15KdM/ZAc71OaDD2RteePYmj7eaJCLIIgGi/vmf//mhuy4lzwRmeAQCeZS14ddg8Fmf9VkHHgk7yUrJkPiHUP1SUgweumcPbxTRaUnD2rrGOxt5Q4ss4PFCl/FkZWCGXsdCn4z4Iq+kjDe/OsA6LgU0/j75kz/5oIsm+hKBya9kQ08T8Om/bvIfiUNvaNWHDfTTXzs5u4bf75lJEuGRDn2C6fCIkW3Z3YBIDif98m1vH6JBJ/CGk069zVYbntzDY/rzXznp0D043MNf9dr9B871N3zlc/webwLff4aBU3+2Sube1oQfP0q8ZHfwknO31mEicmhh/lz6mCJjcIRmFG0bfO5JTqGB2Y7FV4AaOcERLp7sbeCEJzgzUo63s0r8VHpevaMfZZ4VGj9bGuX2eXB0w9u1RJJ99R459baZoWVb638uw2e2KrGV8xVQ4aMXgYa/XZFcwkln5/b7uk6fZuj9LBL9O9EdOAEtMJcWGdcv9t65Hmz8V4K7Nxx8pZk9fWWPeKe/fGvrEmWtjPiWujLboH3J52qrDK54WL+V4F0+8IiH9VFtXojSD86V/aynaC7M8XFGAqaE87X2DcAz4kW49xLq/EonJVvi1C+l+SlVx9KnBDjBEsDJ6errXoItbXupstzJpaTQxX+u482yrBdL1oHU4wMty3ABuDiWVnUztBlP32TVv3qlhFr7ZUYumHMC+NAS0B4XrbzqN+E/w93bdbq0WjjvefGBp/hJ7sp067l5L4KsnapH48yH+2ybzi/B05XTve4nu2fEzXL43ON8nQxgTCB874yzATM6ez+bRZtMN8kV7E0BHZ94p8v+E8fZ39CqLbrxFq/+7ewDOkOv0Ig6fY3SkfH7HjoY5QZgChf4FJVSwJ0NmlDhCrakGNopSz3c8bQl/uy52vNeMlJt9mEC2soD/o6tc5b9bnp5PTuuZ867Xw7fmd/dQyfzltkgPvfepXr6ci/d2iKck134oZ+VLx4r3bd1EtBnWmd+kv8MxzmXpzPc6nD7mqENxoLXSfcd+Z1r/HcvWTZRtjjV4yW9du1evCi3ffvVficBjb/9eiv80UqHS69gBuMrrwckoCGL6NYx4HPMTQpINBy/rDAZactob4ql6JIdfoLHbNvIfTZuz6TRSbCUsPjs28NNaRk9g1cysMdOsp5ooZs8lWi555GIzKo+OwNsALpn9Dfjx3sGroQPHcto24TlM74qOaZkVW92kbUz/UfHtaVveon/c5m+6u/xmzesDC5k2WBgx2R178yre5KHkmDJtbaJRjxY5RTAdHDmVV+w7jnpjHza8e2aD3j+7Btkull+6W1/sYTvGRA72Ae8gIYTvuyCLrzxWpl+g+0RYve14y1ZwndfAY0P+vVyCFnDga8ex6WPaKFBftfi5Hj186yA8zXh72TJTVAJBAkTiYYSKH6MXZKjRIbNfMkIiQvw3mjSt2SJDb7TD+h7owY+yQ7wMq05QYJJ2LkPlxL+kgUSCCUYysiSMWflhBuEBhO/oVZyJbpoO72p4w0e8pVgkvhAB//kQ69rdYmz8EgmSRbCJXnjdE+CicPFG70XPDmg0jvgBXTOkh6UObsVhM/96A4turl0uh8f4PDnE0e8dODJEvwzPuMzDr2WlJFMKgOc38hBkIUN8gHJqt1X49sWw6eg0QcrKchBc1xwMtc+vZTwyQ+U+Ewu12xmD42PeBHgJa9KVPmhfQcYdhfUAlpAoNdAIfMPv5N96I4vVs/X+AC9ry3gyCa13xTQ+WE82bLAjS65lJ/6qZ96jS/cHgXixW+p8Ue8PfnJT35gZuicqJ8voqyc0TeaMaEU+H4/7Hz0a56rnD7YoHSHYLO0giNFKSU1zBYFJto9w4YPXXDn/Xx85gBnnuB0r/vJBE622aya850NGF0juERRvOm7eKK5s90lehleQEtapSeyOZcP15bNnEO/pR29SveWH7TNFI76uW81Yu9O99E0EwsaRzaqHk44rHoahPANRy+boJfsZnfP/K0S0ABrdWMblE4OYpMP0Y529Lqv9KTDKgCe6PqCL3rBgmtGBWeGtIp0rFzna7Sf9rSnXeOPzpb56U0BvTjTN7xO10qZ73Cm+wc96EEHf9uf3R6QJTciHGo/WYw5PyOEmQyk3hdTmMEwY1jCxnQlRTsyFoYXDk7OYVm7CgDf/ju6SvuT+DoQn/64p2/0TrevFazdTMQpCyT4na6r481MaWUAd7Txej5qO9N2nWz62Nu2zEMnXVWPHzA+ZUQzp4TnpjN+3L+kA0EZ3WgaNProoj7owdHhWq6h97b1FTwGwxJvydxMKaCj4Vm/t+2CCe+W0T7D8J+2ZeHzbsMZTr5F4KVDsCYYvDe4pUNl8rnPp9J5NCrhvJOAhg+utprJVvszn/nMazxw49Ov/jg8ZnU0SD0gAR2RDWhECH/8isLtETJnP//4AFgKTBFKRt/AZwT4ypCvAfb3yOAC66UCeARVoy84inMo1zC1u0c53TuAT3/csyTlbMszWudrS02BlUOcUF3TyZhnh+FQy5uAtu3IUaLXtdJpNhVIdJGs+D6fy08yB+9ezi8DX0AnZy+MgFsew1P/SzO0L8uscvawb7dfDD/ZzND7AQg68Zcsi6O6ex4rtpSGSyCYKdN1sgl89/hnPmoiYosCpXLtqL/VZgGNb7N7NlFml5tm6NVVuNOle+r9c/dwoScB5sDX8nmLcGcHXiI6HdmzYS5GU0ICtOTWJxySFd1XUrARxxHj6scztNuB30Y/fBQXvp5Np3g4zwMEeXYJj0/KpvzFdTAxfGTg2isbpfFAefZqnIVDGyzWARm0a7OzZ9B92BG+ZOm6Ev2cTduZV3RlkeFk3HXWZiLteMKbgSTe4UvfZ/rR0U536cF1/T2FkP2HO8cyy/aKaH2TJXr05a2wPihhCydcO0PjzUwpQ45GgSGgwZ15hl9b9ojnZIHPVswSPv/DN78go0Nf8DuTF5x+LIAtGlDB9ZxbP7Td93+a4U0nbFIyMlnhlIfS73zAn2xogMF7crjnFz7ji285/f57MOHU95akgYRBb8mUTHKtLgHSu8MxraRwDNdGaUaSGEzoAjon18cPysPvDRtJI3RK4EgESJBIBhiZMd0Bt4BGEx40CcrZFg68N3NKKkgySKJ4A4esTnLhQRLLmbySeM0IDE8Ohnv0ox999Ane544bRDkNOfGEP3XLRz8SD380JDlaquIVDctKCRsJRKdPRCWJgmNYp6W+H42XaKMniRG6ImPJLQkSSSmy4FfihrySU/aj6BXc52RXCS+lswSfN7HgzzZ0K1mFVzTAqntbrkQZ2dCxUug1z/zFdqWMc7zgDe9oSD6SjZzkSH/xlM20S6iiWwDmL3QFD9046QQ+feDpLTC6LlHJT8jmv5yGO/3FQ7S1S8jiV2IqGq7V2aW6pN29HQW1fAs9oiUu8MgP6AXv+KMXukcfLBgnvm/tiMspCxRl9Zy1UnsjaAZyb585cxpHS2lO3iiDZriUrg0GDEswgeTsehXhkRL64cKHPXROoT/aG+Apy7JH3x0Q0HcNn9KjCjOKIz6MzN4zDm5lWTm2ftbdXttPmmk78Gopzckb+NAyqwkGR/oki4Et+ZTOdKUOxuxsj5tceHMtqZZu4ZU4awm/ek0v2coSGU598eKUG7iU7CpQk0/izEy5OjC7N3DiNxtVkocsluHtv/XPBuqdZkW5FY+owhWeSrwIeL5iIE4vcNhX24umS7ASsmyR/PShrl92dt8XgQ506CQ/rITTUXlc3IbXB0/BumdVSsb0j4bVQv2D9XgLHP8Hg6/bj4P/i1EIUliKqkwApc7KBG15DKGAjjBmGf/8EskqZPHusjkcMU9QdSfHwld98dOHE8Hn/CkPHw6DgX4rlzrFhJNcvdKJDzgpvZdNUnZ44uNuSplXwQA/XpVmYvte+NORbLaAo8tkq0y287V28AYIwZZc+INPQKMJxmEfuyuw1YW+2dcS3ksy9aNTg1JL2ujIK2ygomEgIHMweKHP4MAsT66T6/wqKRz0w+75IJ5tQ3ZlsDgahLT1zBme+JFvQY8dks9yHZ1g0Chw1tYGA4d+Tjg60N3r/BJc9IKttC1c/OharsOjT3qy1AeXDtSPH9rHZIxmTOWeGVWnnC1Bl7jHQhkiBvfx0cJaiqKbYgU0BcR0/ZWESTH2VPAs/R0M6gc+fLWZocm1fCRn+PBVQOtH+RJgZpTtFw/1O9/r2n06W7r9SCAe4XcI6L5mqq9lqmCgk9VrDqo02Cj3gFfgmpHpOHwC974CGr+rk/j2CajgjxbHaim9OihRts4t8M2ycIUfvvOz7hydrG3dPC6zatJv6ey1uhnatgVf6aoSrg7bs/RhZlcX0OdVzya78C1w0oU+8WILmG9GQ5ld1fHRNdi1e32636ufaOQ3ZugGg+B7lFU8gj8Cuo5uxGRljEvuCGpCubdIwHAawpblxjAGGN/7petU9VWugna5nnBrHIJY+so+xkOKNppSWspaA65RS6jhOdm2Dp+ZxCju0BcuQVXWPPh4VyaTOt66l76SH5z7ZspdcqMh0MxullDhFJC9DLMypZ+Mq0z22vAsaOIH7V1yh8MKoOw12PSSTMkrUNvPRwNvOwiR18AHJ9tFwwCJdvjhtoWxFD/bONyVtj+9KZV+w4O3dO3ttpbN9VU2ANXGz5qg8AuHgZ5+8dIBzj22C861+urG4yO6Pwdtsms/84CG++lIHX14NgEWPQENxv0O/6wv24JT92z6VhfKm04JBG9t2eRLLEiOtJfVJ0V79UzCqc28TbtkhY28/jb1Nu76a3MdTqNrRwpCq4SE0ilZoZ973jSCR5LJPXS9tSWh4DHLKkB9fwElWSmiAak2n6r5cfySJpIykmIlnSQk0MbHyoInZzK5V5sy2bWfl4f4k1ghT/0kVszAjpyCgziTjaFLqJG/JJhStpV8TrJxRnoq6cKu4ATMwm09nQhoAYhehz0rHpdnMsRrsGbidALW6T9gJkP4lGfH1Ze+Ja30g8cbavvmGR5txQS0/ukHv5J5ZGRLyS9JLAnYfFHSqt8ow0+822sbXAVv/kEHeMEDXiSnfEbrHxj0yaNPGtkaD8mvzh/xkp9W6leyjc/5T5hk5QNOPkNX6SZd2VK5jw+lPk960pOubhWMO+rkABnTYyZM7SFt3szDUXYUq5+yvjv6hae2DBCNZqOeYTcKG1k9m6aolAVXP4QQXUupTZSBAX8poPUhb/KvHLVZ+vbhBDxr+HipTAY01bXnJMntWnswtSsvOXk4w7X4OLEZUQItx0sP+M++td1UguPA6eMMZ/VgyR1/eFn7rQzq8ZqczZ761O/cx7V7K1+yL6xZu30/PtnM6us8SPIBgb966ZdA87HFi1by2cZlfzTU+WNHcvVzvwvrEez5sEQuXla3xVo+vr8smv/AtXqgo2RdXeLpmKGXUIZl3IjYT2xH9Za+yxz4RvcCQ/a6I6Yw0xIHrpTjvutmJcKFM74YyVEf9fNSmnJLlIGDk6F6No3HZDvzv9fqYG05jLBwLd3zNV6SUVldOyd1ncNo2yNc5zIY7eRwOsIDp6yyDDl+2dLJftlAO3npZR1onfAsd9dg9JXEasmNJn46XOPrzPvC4JfNtWX7+le6F+4N6u4rwRhc7avXhgLVY6rVj+f/bLd6sLIEg59g4cUT2k735IPoMB3RKT8LJp4szYsfdPDEb8F1wOcZO53GS7zDX391y/+bDrKfT3TSvfoR0Bk8IyoLTHUp/D0g2BdBYi5nWTxGMEx0xFDXSsrcI3jZvXArKaOAXnhKWJrq/QZYuMCfZ2g4l+doLS737yag0UnGpU1nFM64ymCSo+tz2X39Fl/tStnnnbFWJvUcjXycp/tnefc6R65NQPejB2d7LS/n+gbmJf7J5aCTPcBq26DrvjfP2CQ74dHePVpNCPbuYJJXXfIs/cMXfXXtXbeHhrtTgheMs8NkF/50ZnDpSOaSccHEewHeNRqO5SVc91Xqcx3QIZTlNTI1amiXIl8hKNmPemOGMJa41cHnBEq/ZZySYsgM7aR4uLqvpACGcXquhp9wonEpoHt5JWXhvQ870EQDvuN//9xLriC+04WSfHca0BkveZLXdc4GpjeOul/p3vnMsOEGu/jdN3Ny1Jwcz3RAX5055QY0fZVwStZkT5c5q/2jvTo+NqDjFx83nWCSgy3UC7qVi2zaW8G5Bt+R3AZrybiSW3iUtKSHeIBnM+TJZdm8e23wHdkJTcmpdKXUv4BensHlN8VA71mHFzw4cUKv2Sed66+dPO/+7u9et0OWdFeZfJXa8cunrFCul9yIYMgGvaSTUhKg1/uuKV1dHb/X5J4EgI15SR9tbeht1FNyxoBDIkWCQnJGUkCCoBJ9bydJYuwvX6QEGe3z0ZtT+MCz0ts1JefQkizzXDbHhi8jV2aYrlP4nQZ0fK2TeNYqoUZWSQ+8eGNLwuZ8MM75XBj3SoBJ9KSzknYSdXSf/apL4qjTC5tIUErosJmEYi9unOV2nb4EdDN0PHnLDG3JNXZjx/OJxxJSdMAmYCVL6Sa/4JT26JJW+tATOElQibF0Sgf4KMlGVnVliUx09IenxCmZnei6T39KvJVM1B9Np3/okP0b3AR09kkH3m6LF/p1okEPkmD5INzogy1u2ETSiy3c05dv5Cf4i0d8kud8ggVDXriPgM65jRDS4WaTFB3jSsJ07IfjlL3wwWUEfdS1M5yZFy0DyDpR9YK36wKNYi8FNMeCFw9o4P+d3umdrvE3kq+BMlI0lNHZNrzcTUAne6XloQwsevAb7T1O6kuy1as+5zN9V8pu9htl6ck3w2YtI3T4Vvf1TT9dg/GITrAmczqoRMNpyU3PHfiUp+hHAII7l+mZ3MmvbkXhsdfyiReDbjMZnnq81Qon+utvZid7VMlL9NFks94Dr4/SP0q3AsWL1R/4ZMeXa/f2s8tkajmcbRfv1iWC4Vwd8sdd2azc+rYy8cpyuoqvyvjYkizJa3Y/AlpgIe5GH0TEYIorYGqv7D4GwThqC+ZcSqihdymgMUughFBqU+ojoM8KRXcVxLElP874k3Fxb939vVZH+24Cevkgt1lHMISLATz3lakFWwCDrX4uw6ldRrvfFMOvwQo+L3m4v3jU2YKzKM92gRe+nlezvxPes+7AmBmXFwHYkr1gWGdbW2ZDcM7e5ebk+HPAR9d4oC9wBsOdPA7A23+SV7CXANNPf/z7XW7L9w5+0ptYTSjJrJ8zH8BvfGh3XUDDF+1wry17OSRc+kuUZYv6LB743Lc0B4+/+qc71+eTjrTxq+tXPzW4oeNmpc8EXZ+dYplbY9eOUWf3lOesNAE68VKdQvda/VJAR4th4cdjL4Kc+4eTrCkqegtbG5i7CWi8rLHNal6qCB/Fm1H3xZLg09WWyaaNbJbc4UsWWxP4yB+u+t1bCdaA40WXcNGBOn/AczoyKKG9h9cy/fJIst1bCefeN0AUbAINLwY5dKMN3uqhlcfSVmfn5JX5NrPTr37ksJJpsKhv3z6DSbaltzy2sssvLgV0fo2PeCmhtrg8YdmjOFJWd7/BQN+b+Fq81fFoFXC9h6YIAp4DGhEEd/atXgDFqNG2e9rWwQie8LLNMYuRFIe5DO/+truHv3NAp0T0Uio6veaZoy7ulHAuM9y2o3m3Ab0Gsk8sAOGyzBMEvQEW35XJUKnd4Zpc9mzwZS+8ynALzPR7u8s9rvXfI/xmXTP8yr51+nMKLLT3OL8vTr7zGS72dA+/8AnoDVR+Y3tyXgZbNjdDn+UjQ/5mhrb8X72cn03zTwHT6iPe8rOus3/XwW9AX+KFbtjeKqC+ZCa7GXpXSmsPdf3gFH/FBrrpDE9n3Xav0htlx7+TrSNF22MIRGfHEq9tS4yCkZiQIJEIUHprzCuNe1Cq3z6SkJEMkBSQDOj1Q4wnkI0+uJI7SjglLSTOevNGCbaEjPseHZCHsJRLRm/0SEigh1eJCAkhMGCdKS6juicAORsZcyAyeWNJQiK6Ehf4KwnkrSE/Fo+WRCD+0fT7WBsccDKot4Tgoz/ySBCt06NpgGgJn90EtBl6nWwHlfTPTniT8GEftB7+8IdfB0IyK+ks/bm2zEd7D8t8ugkWnICUBCw5SnZ2Tufs6XSfnSSnnHSIFx97NMvCZ5alg30yQHf0Qxb9+AI992YcveDdo6x9XxzvBiFvh+ELT5KEEnsFhb7oWkWBYTP8grW/Rbt4oG9bFvbCg9L5Xu/1XtcDV7rxmHd9R194ijP2cl9eAn/ioiQa/eEDD3tq81kl38LjU5/6VHT/O4DUvdGyR8xv27mOOcx4JJBiBKWZzZ485uu3goXfjFpAZZAePQWjpJiUjt9OjlT/SvcoVKnNs8Bo40n2XuCHI9iuKy3lerFEv/raB5K3E3zyx4NAsBzUx6FsGYiXAo+jga0//Xn7y0DiyPCeGvRjAeihIxnEsTrS116jBUaAtE/N2ZIz/uOha+VNAb0ZcjxLdtlmkKtz+VDHi+U1nOm8Ml7igY4FdDLBSZ+2GQW+vpd8QkKtgSC7R1+Z7vnZ4qJTj57QpHc20z8b6qvubE+uTzJc4kXe6HwsT9kXTDRrU7b6TQ/h6l66vk6K5YAC0M3tmDDaLp0x4XlwQjGMer9OEnMxoqSQ2j0j5hD46PS2DnrB4MPShfLjF43O2jhDDrFOaf+UUZRmHA4OlhEyRDIo4TRrcED004ulatnh6KNFhmhayum7+2V0GSdnSp+WzBvQ6Fq11De+m6Hdd+KZc29A+dv75wAAIABJREFU0y28rZyihQacyYnPeKUDcly6B+amgD5/oikAd/WRvvIROsSPlZtZMJpKdMhUHU/w9fw737G8tjJYG9dP32zAtnTtoL+COzxKvFiG65MO8GFbiFd9snu2MsDwSe3tefkk2viIPjydvT2WLeAK7/Kjrr0TnfzfPf3gWD8Kp/tHQGMiwhg8HzqsYc73XWPg/HO/nKPf+8LUTTi064sPSs2pjJw5Mhrq9jF4zZgZsGv3KDSnWNh9VMTQZmgOA4ZBMkS44qeATm78CiwzQH3gOJ9wbsJKf7pshg6ftl7fjLbSyxO71wZv9hNcK5dHLOcfFQj3lr7AMrtHI35d01dn7enQfXveS0tuWW56CtYy12CXrdfZ4kWbgarBILpnXdKfQRM+Rzi9AUavyaHkM/EQHrbdJTe6609wapPE0n/xWTEWTAVeffHh1LeATmfw5Ddro/MMnSzpJPnQ6oAfXHS1n+uu97y1X61QiH2CUWlHs0USsS0x4e0by5SUmYCU1ZEQW8awDb2+lNpo5ydSGwjq0+ubGQ+sPpaR2pa+dm0UrN0M3UEmQWCJmOLDGe/668eZvXUUr3CYNc4/Eli/Svja3+qT4qtXMpzANaMkOxxmsJbcYB2C0kCCNzBkkyTzyKcZOV2B38FDEPURh77hKDu8+kqG4G4KaIMJOdOd/b3sNbstbTI6HfzF/pt8+N9EmFWNtgLDoyeDWEtOOhTQ9V0+8ZAMSo8ubVHQxU8lHuBxrTTpsHMyoG1rh2b9DsYv/OGj+MWH0rk+CKdrq9fdOoQq/+6a7dKTNtdrT234WhgyOMTsLUkBG+0SNhJHNvaSDRIn3kxxLYEiCXHplFSQwPGbWL2JZEPvLR+j+jKFGZt8iSy4JDfUfYb2mMc85joBob8fdi/xBRYPjcw5I4W5V5KDLBIu8VG7No5xPnyaVgJnEyD6STSUGDHSk6MRVECbjeIjx+paiTf725bN0aZ4CTC6lRCiA6c3jPCNrpKe6MvBaOgLksc+9rHX9iph440hdmAreL0pZwWyui8rncPhz4BO93RA5+T99E//9OsfJEgugXpphi4pFpwBg+M6OCu+8cE/siH+/J6c4KWn+GFbPkD27OeH5Nldn/xF3/qQwYm+tvTvGj561T9fVu9NLDhd+w+P5/5WZZvshEe/2rKZN7vwyu/6pFayb/mIF7TIgK6TrdjM23rFGLzdF4voLd3sDJdTYhYMnTz+8Y+/ukXhRbioN8tioLOliJEHk5fOlPGMZzzj2vFyQgHQqY2D7jvVCW6UxAceGn16Rzv88VTJgM79pHIDILkO77qXPzfBxXfPXwVHvBkcBPTqBV85F7nwxqkEdLJhg4Ob3d1PFjP5+Rvu+KpsMOkaLvy0dTC748eM59myJCBYg4Dgsoc2wMQj2n0WCQ4updWIGTlbg7uvgM6O+jVwxqfM7fnNq+RW6otvCcoGzuxIJxJv7m+f6tseng1yugh25dGWHnpsFdyWybVt6tHdpXS+Ifcjbm7qs/3Vl9+u4b/UHk4rUvZeH3rIQx7y3wFN+RwWgzFb54js9blOABm/HIOzcUDOBK9Dqe3SiyWcz7HLtJbDaLUUO/NGqD6V1D+lRvNAevqDB3DB4jnnW9DzfTAFlaWc/d1NBsczZdsnlrCCD18CsIRaeuTwlt1nvuNNezxWVzoF0P5yCLqSX7YU+ggOAe39cTMoHeZwArD3ypPXsh4+cDnMvQV0Mih7VJSu4BSUvVEW7OqtQPNWmIQaHSerjHZBGS/h4PBNOLVtuTTOflMwFzQLC0f39au+uKv3ZRU7OJR8+aZB4iwDPGfa2lq9xLd+4MKrnl6COX5uGxOUF0Nm6AgkjI4CJyEqCQoWnFOCIENUboAUDBJbqyS4jWqOBgD87COlaBqZ4i8h67s0OXBHAdz1wiW3e9rP595Xr6+XHSRd4iX+KrU7LWnN0OQqYMz4+8hGH3tCgRT+5b9+8b8l2eATwOkUXQFpiQ0fGEEts1yWO76tDIIDS0b8WlkkC7wCusRbOjHjLxx4L4KQNTnwuj/0l/PFazSU9LmywmG1kOPWRxn/lfqHe3G6X/vCBrM4a1OC7V7t2989/ien46CT/KMf8AtP/c/4tMdbMOeyPmfa8h4NyvU5PmmOmYz+Hu/xHs8SvDuqhLiRAjL3BaX3UDvg62z51L1+2jdG9C95to5Q1tx9dONjhaQQS26O0Bmdym1P8d3bFUH3ziVYbetsnFkSiwwUi490k060b1IsmpaVZsbkV/Y7Yyt/8Gfaq88CtUde6Qk+geQ+nGzhWmDSYzo0Y1tt0INBhIw9I17+zJ5WFh1wgjPzhgttq6oeW+HbISitQNxPR5V4oTtlfVc+qy/79OU5vuBY2tXhOzu7PsFHOzxg+S8a9wZXv+iIAdvH8+HpDDzw6RMv+jnDE63gun+phGP7nbcw7h2vftqE23xLPtmgS2RJkHjbp8SEUTeHVWLExr+Ek2SKPi0tCZgxvfECFm6bfaXERwkwfZ0lB0oIKLX3xkyJkl6jxAfBlY985COvEx3kkXhwwilxABcZzTDxxSFlY/EBLvnV9yz5IRkBh9N9iQw86U/2lUlyxLWEjjLccMHjLAmV7lzDXdJDKXHm6UH6xLPltd/EAgufZIqET1l+tnF6DVKiBEx6B8dx3c+eAtoML5Dhpx80va0Uj8lCDvjSrUSXpJyTv/AdibwGvkp67hNHOOkt3OTXl85KgKWD+EbffbBKdAu+AsTWJt+FG09g0YK/vpV8N/uRCb50soGTPrVZ9eiXDCVg8VvCCy62gbtEM/p0H65Kgy5+Vheu90z2dAYWPp8Dh6fy+lc/NWCYciS2GNWI3uGR0llIcB0Zrmsl59Buv5yyImyJ7H5wSqMzGpRqiaXuJZdmjZzNA3p4wFU2wmqr3T3t0VZ6Dk0u8sFrZmpZrx+a57NBQ3u44LZENuOlJ7ImE/zpUGb4vF8WbAY/fet/flMMDTPTPraC37JcIgtf+AF36cTvtoNv6Vq7NoFgDx3vlTLxZHDQlVlWckof/ZVs1jPiA/B23kS9vuFLztrB0NnqzYxvi9Kgg45VkAEHD+mLTuhwZbR372MPOB3RPi4uXNfucWa6zP7paEuPwTrIAb/V4cKo9yGG+51+mOMMZwV6N0e6I993f/d330N+uI8ld0phIEL1ccYqo5c5YkgfCbA9IqbMSOqWAQWZEg1Lkj3ASca1rMCL5UzLcPfjR0C778RPhqjuepdP8ayUrOAY4fN4xerDvfAt/KV6snBuyZ74Sh7LxZxXm6U5Z8NXfe07ve20h4AWqMHQsUFj4dCy7LWMxxtYOlNPD/WvLfsmC90Eo48VzwY03nfJi0f29NxYsC0+A1UJtZUFDrwWWEo6d6T77m0/gXrOaBs0+jgj2F79XF4EWy+RpH8lOtm89vAotflBQP6WXi75gja+t3LoL29Ep3jJFuA60KeLPrrITuwhoM/46ld59qfabW/RXB1cf21FkISxoXcQNGfdx0c5RoEfAfDOGKzdaLUzAwbOAQ3WXiTmKhs01iH2kRdeUr6yuvZwxK97Anodyb7R3hAs+cOx5eIBIxnBKByv58tkDm86S37LfIG6PNl3ClT90pcZW1IogyslsASSA16nALJUS/b4S3bX1XOwdHCptKc2mCz/AmAP96xGzq9bGqjOz6b1S6bKfGnlXfz1MUDyFbLnj2i0J0+3BfTK42UbKy5Hs/nKpH7JP8H7gi+9w5lOF7+6t8eSKZ6tIs9w/TeN6IPl8/CGW+n7ZUe2vVS6n/7Ch4d+RXT5PgLa0iVnxlgfZ9QZwmMqn6UdRzHlp6AIKrefvZhfUUCUkxGCMxsMVjEMsINGBu0/YoQT/t4oCx+em5G1kWWFzLm19epnjmGG5ghng1y6hie+1M2SvZaZHujKIOG6WcES2bJen4wpUHfm1U/gWi3EO1jLYctQuopnwWdWjR8lfsGHP/7DVXBUgqtO/pb/+KBr/DvQdY22wcsgFm6lgcpyOFvGY30PJPPH/XSVTbsNB1l7ay3+BHQzb30EdIMaPgwCvn836OwRX9rQdiaTNvgMFs12K9u5TpdmXvaND6UJcJ+8sAdfDiba/S8qsUP/yv5pu1kYX/F4LlsxxT+c8ZyN8XvEqTdNbLhtxJWNchQPESQALUnWafz3RYkhCYqSSpIB3lqRIFD3xpGEgWSHBIVTQsdbTPq555Rs8cYNHiQdwElq7FKQEA7JFckPyYL4LjkhYaDujTWj5Do4Rymgb6M6jCnYOE8Bl4yV7nEqSY2SLOhLeJSwoiMGtJ/EE9kldCRI6IDM+MWfkj6005ukFp15Kw7fKxdZe12QwdlD8JUh5xQMmvOTwanNbLq08Y4+3tGXWHFN3/bLe6wzqpPPchhOjoMe2rYEEp78gMw+ISQ3umRXd+Yn7OwarE/+DGIFCNkMDvSav+DxcY973DV/OTY4vNMXecDxYz5U4g6N6niRyONr2rvnmh96W49M+XjBvP6jzUBMFv34OLxos2++wW/5t3slV8mMN7bFb7EGLl3BeenU13+upKc9BHR2iN8jKRbQjmZbd9/+VqecXsmg2hI6pwp598yyHKLDQGGkc9/MGvwuw81uHClj66tfB3yLU/vyrG+/WBJ+/Fly6wfWKSDt0dxLDrLVRxs5PSJoRtUPL3g8H0b7ltfhsCKxlHTEsz1hL3hEV3A0429Ardxoy3LvHrr+0asE0/4WvnAq4ekIP96Cca/22gwkVgzpZ223PKgHs+Xq2IBjkCyhFo3zwBKP6c013p3atn3fzoq3s0/i7W7P5TvdKpsZew6dDHgsAZb84G0V4zv99+lleMPZtRIONOoLP1pW0gunfszQqyR1B0VBEOHbm+3rIEYkZjPg+TrmNlA5iRODFKVP/ffneVNOToWneDnXD4ZPfwSbl/ozHjpGXy/1Lx6BxbFSDPj4rk1A25Z4Hrp6iTe85lhmDoFaX6XlWEvBaBfQeIIfTcEioOENH7EaOOprBQU2GvGb85JBHYz9O3wGRiVew5Ms6Tq97v1VK94MTtHN3l1XLj/4IF+21ked3BJq7b/joTK6yb58dy8+K/kPvPhAUxkv6Drzh7spk0up316rWwnmC+nQJJYdgjcp4jW9gz0HNN0EXwnPpWy4pX78KMl8jzfFVlERTVkPfvCDD0IpJWIprnYlpS5jl97iItwyA5/EREcz8zp297YNf84MH4y2foIoXvHk0cs6jRm6L5fcxz+Z4k1fTmG5vq+Xwr94omuG7tPG6AqCAjo4e0LPNJeOGdo+dfGqr2xklzXvWTwa2SB62cIMDXb1FX0lGdyDX92BXs5Zv+7Z3/pgITrnMrq1u3Z2rSQvPTsNfAV0y8loxWfXlbVfKq2+2hIsTfVLvJxh7uSaL5j910eaoZcnkxh85M3G9zeg8W7mZQ9bjvzBnjwa8X58h8GpU5jy0umf0CWIspHv7EwZLAKun/KUp1w7DqE58+1fJzwYwjADl4wDw7HaL+VgKSxeu1aa8TiFe+DVDUJ4jZf20CkEfq9Cek5ODjwEm1zk1M5ROIwjR1fHZ0EAL6c3QKwjc1yfNuqHNzxKbFlBxB8aEmKW9fhKBnLt4Z595yby0GpmyoG0WXmAhQtvlrMll8KZLpIBbDziV3v69vEMPawz94iJnlZm1zlyOnUdDByeLpwHOnxZ5eA13vpyy73VPb66VuLPU4LoKdFB07n2XZj7qsczW/Eh8NroXCmI0HfGs3c0ggv/nSy5b+KRL4c7m9hX4wFPSonBhz3sYVe3bMzb6EsiXDpt/G3kS6ZI/PQK4ZnxBFBi8BGPeMSRICgZYZMvOeAsCQZ/dCUT8OPaHjABONoe2jskwkp0wC+5cF764qf/KlnCQjKqd5EzHCdwn6z4wxv8HM1BsZxJcElwSGpIaEnKSBCFLz1Ycvs8D094I5dEGLh1erOfN7vcjz+fNaLLWQoszv6N3/iNB212wIOEi33+OoSVgbeJJH3wp5S82UGCTr2MoR1v9J4eswG+8SMJhJbkjzObNZgIYie54HO/BJ+6vk561e6fI8RLsllR0Cdd4kOdDbJ9cOygvte2FxJqaKMTfWU8358yX5WE4y8Nmg1sEmWbzGI/v2+WP/EDfTy+xe/a8rzk3j75jza+nD3YAg3XZJPUpFP8PfGJT7y6JbJjrlGUY0Dk1ObH95cRCvV/nyPaSOi6PjlXKf1VxL4wkrEsXTgEHJwEvB8sdOzodzTcnh2re0yAbvxsaWQN77aDx5u2+tIFhzSjGjAEbctBtBhEm6NPFsmJV2Uz7uJUT/bo01cw6anreMWTpbWEGl7oKQfe5BH+BAKj1zc6cCxtg7DHaI325HCtL53rny7Ofb2xdZ7hbUN6lIUO+b2EZBBCY+kcSrv9hz13QNZMNjkOn3d6gSU+JC1tZZI9PHtd3WozfwIXHffzX/W7OfGZ/i2l2S47x2P6ruRX55joGXZ84O9OAvqSTfmMR17JDVc83soZY0apba+lyM+HFHnOso6AWA67OLZuX72Kx1jPape+wHcvpeIhISimoyz8mW981YYvdaUTHXxqyzBKxjhntKOLdgEt23z+2gquaIYzuZdOcAtT3b34M/r38so6QnIr6VEAeZSV8eFYPcYDfAaixdWLKs20wVaGS9D3SBNdNsGbvX+wSkvpHXDWTnhd2iuHOr0bVNMFfCXP0Luvg33WP5b2ffW9k/uSXXhKz+tL2Yy+BHzX6eZOZuh0rU915eoDXtcmsY50qjx+UwxACBZZzPT2WMqCaPfBwYWjvYZrwid47UamjnB6zCTAYlhfAc0JNvjPhtW/97HjoxI+9FNISobbmRNHE6x9oufV8aXMESmsWUdA97VV9OCsruxauYNc7Qu79e5LbJm1ohlPZx0I0gJa37O84RbQ8gbkKegsVTdBp2/60I9z0ovVgsdMBQle7NE9AQAXz3IBdOPAd/Cu147ZvxI+L4zQP3rxbIBA1324Fl9tyo7ub1v3tN3tuX1NRHhLVoNPfNa2ulDP53ptFH/xdp6hb8IRjfUhk9jZD/B6i1PnAJUhSLECWuc1yH43rV99MbWB0pI7nMr+CXzKgrtHY+5jHB7/uZJT2OelhPpQTPxYloU/njlifMAVf+C67n5Kd20vW0DDf5bbtVlahraAzsjwXjrDH4+V2guY2pQZzqMnz39vOgQlPZjZep6+eNTxU5tZVkDTKTkcHkcJ6DMs3pLFPYGqLzukey+b9NgPz3Tc22PxDNZhOezoGn18ZFftEo+W8HyGXtCH3167ASgc4TmQnv6EUzMaHWjuPe3wnHG1CtO+dYk3ulhfyvZK7XyotrW7R0rJjC4+bCnhozt9Fj67nUvwTgkwB/6ypfqx5IYswMoQud5nyQeW2/990mbcJ36SDRIRZoD6K+Eg5OLSLjllUy/pUbJMAgg+b//Y4Nvw29/ZIzoxLcB8TlnipuRR+zi4oyfJI6EicSRRAq9ZhqM0YFC+BIPEB3rgweJNEklyRjIILjS1OfGtX7+DVsKnBMq5xENt6KDhun7oomn/iL8cxn6+gOYAOWMGbH+v9Lkj3HToLDGkdJ0OyCGJg57TPwbo29rorg1rs6+VzNO3z0e9GWaGBtPAhGf305eSrCXABBg7WhnQH33CCY49+VPJPvJIntWH3AWgevrQZmBiL7T7LTp6LSALovxX2YCtL12wq754UbJ7vKlLPtIn/3Rmw7Wt+5Kb+SK9qHuciYY31pRo+McCO6nQIzjyi6niQHLTveIJPvkQeOgv3v3W3PXvcq8Rz3UzNOXtSEYZe03BZtkGh3MQw5lzJEQwAqyPPTJSTrs0GKH9cjNIvJ5HN5+17cEpLM3RjC4nbb+MTo7msRB8GSNloqXdKQjsqfDp1Bfvl058JJcSbG3VDV5mt5XDDM3ZOsKB1+h0zyomXO6nv/jTZs9rlibP0kmHl0q6CjbbgmOz9OO+M73WHj4rgJbh8SvZR758QmnFQw/k2Jm1PmeZ04f7bNGLL/mX5XoDSTi2pBOHdyDqE89tD8mpjWy+I/AYbQeJ9BwvcPLl9ZlwwqWdfujLdTpbGvGIjpVJMzkY/Z3h1N8Jp0TZLUYiTAItgRC0h04BETwruGCLaf3hD6f2nENbzCl7UyynRIOyoql0r1c6w5lgytrg2x/Vj98C1X3wjGaZh04GYTBOv3i3Xl/6sr91nPUQvXO5dLoXXQ5vBUGG5JBw8qw2HQTretuqw6m+OoyO0jbBKmDlidYG695XB5Pce0/7Tf3As7X7ZpNzYHlmv3tQeCUZW5ov38mdfMmrrG4AZxN0nXjjK21L9KWXs61c84F4TR9w1ZbMl76iWj6rtzTP18MFz+pxdaedP3ovopVX+PaLrviDK/zqcPnPNccMDWhv1kkJsICOwE1lnzbqs4zDvfhXsOAkHCg3pSuN0mdjlgALn/7LL9xGvv0QQyDBZz8WLDizLLicAi2Ox7HCDz4e9dFOPvs8feG+PwdanfoLaF8QLS3XPYuPxuqjtsrzgEFmRzq1fN+vlNKVcvXi+lLb8nYTTO1bWkZaYuPPSd8GKvkKdJup5AHOj8bwD37lTm/KbCeg4cluSgG9s+nWFx87JpuZbnWh3TV8HsmtvdGOfjZQSubqE55wuI7O3oM7vntvO5uhJ/7oU9/gXG/d9RHQ+/kkhawhINB2acmNUEoReAQ7Xj2bzyzh4vhLHBMJpV1wOL3KtsssAqWsaCk9LlvDwQGfUVCdohilR14pmjGNsMkInnMzZnIoBVYzOb7gjEYKRE821jIvo+LtTg58rGPVR8LJTGYbkE4MLBJPdLE6qE+0u67Urs8e2gSRVQA5VrZk1JZt6HFhag92S3A5qHb4s7PSVsLWJh3Rs+vNfehH7wYwvC//4PUlgyP5utZmFmvJDRd+4NtHbetf+sBpq+ItxfII8U6m5Nem7p3qcCxtM6prdsW3JXJ905sSnvRWe9fRs6wPN7mtMLx5xl+dfJsP5+/6wav9WHL7cfc29Tb0lABoCV5KivmsTQJDIkKywMkhY1AJzwd90AcdyRobffASHTb8JcCU2iUJSpLZ6EtKuLbhr+6tNskdfFaqw5kMJYY8ynFQSsbzXx9LDkmSScrALfGBFvzqOVpKo0CfT+IVfjTxnNwSZL29g99Lp6QKXaEHR2+AMV6G80Za/MFPJjTCL+FDNyVCasf7nu7jlTNzMPidXtCgezTgBuPkA+sH6TYYpYTVBszauUFSm30x+bML/OmJ7OyMP58scsLFI6joiSxkSyZ6gzMdw0EXruECB4Y9yUG/ZFCnR3T1B6e++mNz/IHjE8r65qdkgJ//dBR0Ht3BCTca8Pm0eOVSN8CIKae609Yuf4pv//ihgS9a7JitspeEX3V98X4kxRi6UQeChz70oQcxwRhTZugdIcFJwzfiYC6m1ddQ/bM6fdC66Tj/VncDSkqAX4CZFeFJ6B0Z4U7R0SGbNvA5d3D2lGaPaCVvSueovT22S3O4jJw9Ljv3D0/l7hXp1cDXCyPxEr/2kPiF36xtuUqn0aDb6uGvDI5dPJfmbMlP9nSGlnrX2d812vTrVG8/5+05s3u00ECPbCsf2RpMk0kCrJWB/usfrunEuXKtH7H7+V58VFqqGiQd2dtz7R2E8Ll42BcduR/6qe9RmT/rt7u6QsdWceU5yxF/lUvf25aLOzsgbeXAHt3PDsuje91X4u1WfGuA0LIZUzvq9g/sCgiwt39h8DDwMlm/jGzpGxMxTBEcdg/778WzCqB01+73/6kSBK6MUVv03HPEt3o8gKU0mdDFH91K92xLOKU+nQLPs1lw9a/PTWVwHu0ItgKqpRr+4M9pLP/PCTo4CqbwodfgGj8eIVq+pgN40wV9pDP3u3cATEDsteV6+28OjPaZPvsYSPqKSn+4La/Pybj41Cdcd1KmW7Ars8E1ugWC7HUvvqDjjG54lLZi6UlZHf/ZaNu7Tzb+vTjFzuJeHdWuDZw9b7ZGK5tkD2W03Oe7wbi+dBwBHQIA+1NAMXrTq58xqExZ26beYICxGIxeJbpejavvKiUjR+NSQAsugoavMoFXKdXByGj/bwjoeMLvGkxAy3SfneJ8fUn3HhVJRJETfo65dLa+NPFQH/X6GtCsFtjhbB9t8eRVTUv7+sFhNdI2Jhs/EOX6hoBmT7wnj1VV2yY8p6d4jQeJVvopeBv08b7t6Sz87p9/9XN1E/4deGpT+iyyA53oksERP+eye7WHQ3k9Q7vAqKU0JazQNvlm1AgRzCeVC4NB/Zo9XEvDSzggvEowKoUrA1j2pPBVirboqF8K6EYuuMKXkLXtSOgeGcjUDyHgN/rqnWg/UDN0OHeGxt8aRl0bfns2nT7w4lw+4y/clfayZujkTx/sAHc0K90H2yHbT0fa6NeHGK1IclC0o1cpoA0kjgJAYq+30cDhn0zwqCfXnZTRAbt6sGVDl03zNduEkl3RVS7f6rLh+hRQ6SDd5F/76M09y2CPvOJJma22rbrVazyj6/XpdF6Jdu8URD953ANHxuUlfpXHP6tTSRj/wa6kgk23umRDCYUSDJeWgt6Q6S0fyQGJEbNMRwb+pm/6piMxUVJKgoOTJ2wKcO3MAByAAh0pAE6/vSWZUdJJ0kPdKVGBZ2ePTur//3vJnVwFNN6dDGf/580gPJfooR9ylfSQrGETpSRISRwJK1n38NOX5bE9eDons3eiJbhKEOmH5gYvOI+O2I5dJKDozqehPbHgtGhkF3QLTo+iwMJdopM88UsW/MNf8kl5f0/4nBJbdIdn/KLJH/Fli4DH/Gv51u4ngAse8jsMpvl89vB5ZnHC/+j2HNDowbk00PXIFJ/s6WRHnzuufeA0+IkdNMlBLnzURqfsJwHmOPe/VfQnUCNV1zp5A8yeuBHm0iikzWeWETF6nWdF9+Dvw47wrfCX6rVRVr9sUkDj0/PB3uwBS4Fg1Z14s3rw8srzGKExAAAgAElEQVQq4H86oHMKerGklaCjE7wrPbbSTmfLd/20cTC/xGLrwJFyJgG9e2iwcElacfBsWIIOnmjsO9rw4Sf9dp1NoknnBU5tlWZtb7wVDMmDXjQPx7mff+jDhw791lp2L4B7FNj18q5udl8++JRkLpnJTldkkzcyO+7Bp5JTCV65NNCVbNZXXNADGhsfZHD/6U9/+rGqgKeVsv7wKZ148Z8m22IsP/fYQ0PaUR1hz98wGeLqyq23117lwOeaETt6oywmF8cqonolIXujbPnzJUswcKk78ZtBtNtTdej/vymgBZ9XH+Mbv/bPvnXG6+pUnV2c7nlhRGCu7Jbc/d52fdHQTidO+kHDbBQNsIKv9/LBwNt5vq5dubredhnuXanh+4E44hkuflEiNl7wutvAeD/7yibF4qu3vVYO3zR3pHtZ7vCt7WqjEzgMBtkN346NiWxkYKqvQV3frrObNpOso37hvDGgD+jbS9vbr5RdGxXCGI2YthJg9VVmvEYlbRJg+qXg8BkJw6vNqS0a7jEc5hMA/l4HrY8y/Nvfnmr7Sab9/0yKxV9L7tWPZ41m6HhXWkZbNjsyXH04g5M8thLNTvrRa59K0o++4AwOZm56BENHeBH4ewh8gR6/lavL2rJN1wKountOAU3Xe+Cnc9vvpq5/emHbXUXEA56r52/Lszr/OR8G//jXn86sBM+HgF681SujxefjFd/no3tlzeNZ/3Bpq94PBzYoNMDcWuRnBecwzdARgTTjxrC2HlGdmXVdYKtb4oCnpPo3GqU8192rBC+ruDzDW7IGT2Dis34pYgMaH5Y4/5NJMTxkSI9cmmXjX7CZPc+HPuTuNBjIaWRs/Zuho2FAFbgb0MEZEOB00q3Av5SVXhvRbWf8KpeH2j3K2n362u8s291cr7/advSIKrrK/HR5W78gEx84bwf4ij7rTxuU8SmggyF7OkkPlefZvf4FZNfnb6STJbyW23AW0MVV5S1vRtl823hLKJxnBIC9YSVJYzNfUkWiY9+m8TaVxARcvX3DidaA9hBPfvKTj6SIBI1TQqQl3io7BaUwwvmNspIF0erRzvbVp37aKUKSpL549BtRPR9tJLffSokZQ5tPBSUk0PSGElySHJvcIXMvMqCJPicDT3fBSjT2dtomP7RLftApOn6MvqXq6rBBoDY2OycpzdgtuTkLWDOvR090kYz6WWKzM+dyekZucKGT9GL2IwObsxle+cEm4+AkPz24z1fASyb1jDheXMNHzvxJQtW+8HwkZ+0ei7EjvbKjOj36rTX46LkEFN9y7be3lH4IXxva8UnP+sHFxnDxZXAlIUtk5QP6o/uoRz3qHnqiA76sL/zkR/cJT3jC9SqF/RpAkimbemYf3XQNDxwl1Nz3WwHtwRuI4bplhMpxGdo71RkXAGUystlsO7qnHax2+1H/WzoHUMJrLwIHuAyjXwLAgzF7jPiozOkER8HKsdzvBFPgBq8MfuvroO7v8tC9XRXAmSzRiA/9GE2GM8OQTabaamFpy/pKRu0hSC3zdsYzI5bBTycGPwd9RWfxVBeoHgvhlw2VAlr72sjMa/Bb/bY0hyv7GCDM5OmTPLK02vEBzullE6uI9AOvAcOenr90rK3VnQYRvOBVP/qmO6uNYOp/Ln3lRr7sBwd96tsBB5/ryP/Sh3ayuPYmJFzwsAleJG7dL2jAg7NPdz8b65Oe0gNfFg/ZDI3VB1zp2j3nHt2rvHQ/3NtP/fjaKoYwWmIrZIBWwdopJ2UhVtt+nAGX0xLifMTMMtqXWnhhYApLWSnPva2nwPivb7Rz3Pp0HXwG7P7SgyO4+oFTd5p5zWRkoB+Hx0L9ikl9zVj9SEF6EKi7d0d3A59uw6lPdXpWT9/VvWq5z3nRtvJodQTeAU4gJCc4S/OSYtlU4IJLVk5uf2+AyHbweWGkFQlc4GXmBVY0ldUPJm5vvwwG+4yYbtGgw/hYePXwWF6fVwZeDhFEdEK/6Uw/PMPphCO/A+MssZUfkEWiFZxAjK6ABhPcDsh0ms9YDuuzPKDtOlzJtuXeq65fg4G6A55k2P7qt4zoGMSQ2a8XQZYZgCGr7hpRZ4y2105gAl76sCNcMaW/hANFOuvPQVynKNf4xHNt6vXTRskp13Vw+maA2uq3pZEaffDxEQ+1uxaAHu/gPV0IGB+3uI8HZQEDJp3aT+6XX/AKQE7uyJjg66Okr64PwNt/BFB7Y3Ths5Q2I3fA6RqdlX9n6GDB4Rv/yeLRE/n2IP/CgTWT9041WHJn7/q61rdVAH7xhMYOBsFX5i/9Omj+oL99sOfn9AN/OlQ2CJlta4czfHI/zfZwOU0wYDvB8+X8LR2WWcdLbd62hLsBBo6zDpaP5KsMXon3+HRNvpUjPPnF9Y8EMgZBPAcDBMmZiQjWHrKWJQUlPOEzqjnCGY5z2WCgX4rZoErRBYpy7xfIOXT0u/5/pL0HtG5XVfe9Tz+399yaACkkEFCUIoKioChKkdePd2Ch6IsoPQnJTUiAEAjpCUkgREFUijrAD0TRF/mQLioOkCYQUki/Lbf3e+4p/2/89vP8zp3ZnEvRPcZ61tqrzLbmXGXutfdjO/IJtCVYbj4x+CkjJtjZpO1QDKMupeGPfSEzlPCJ8fDWFzHgmyW373WLF3i8TEDHKFc6U9maR3tHbGYi6jCjdmdojKPSB1xmYgzdgQ3cPiNG+VQclsM4sqQNWWCoDhD2JfDr3p0+YoXCTC6N3X7mHv3hAwe+eIJ8oYkZmtUMdMCXSkob0gZOrTFDVz0DL3vrH3ZVOVqXbSF9C7/2r/+IUeszkys7ZKJ81E3uyeepEO1qW9LyIx/gt455x5Ob9Wob+l9bRE+4b/fQVal53ZHNN84ZHAVsyNn8G3R4MZuIRELreWyFjdOAzb1wSBMqDtIs8aqASCM8Bcw9Quej9TgkcFbgeMFZQJqYgMMAeNQBD2WkydPBQR3KOM3kLCFuOoTvPlGXgBygvbv3ZIbGgSHvyAKB4nSpuJAbciTgbPHED/fWgz4cYd2X+4Wt4hHT4TilgAVdtIWP7hKULQFOP/sRfLyaSL59Q4zDj3rSCUy+o+YghlyQCfVw5AGPutQzDQ3KijT5BPgDL3VxfHFPoL19w33VB/pGGLSjLoE87gl820weoI80M/SPYtAMNsDDuQVM0nxXTQPFFtAz+htc0IfOw4f/UqmuGNMWXXXSwK9AO9ojB+kGF3CI6T9iZYgTjzIce14YKzrAQEw5cGxP2vbKC+d1A/EIxJHHZ3nkUQaxpGUYJiD8H/7hH8TbxiB3lqWdzLok8X6uGPjkEyuUWq/m+d/SMEpwUHGkehBR/RvqMeJzkTZmZnOJDD7w0JH+jxV1MVKWkCiMNEEnBs0e2ou6zCzQAy0E2tIZ7qvlE+NjhvKiTZcP6aQOsLjHA8zsyawPLfSVThppqzFl4qRP6uBIPY0Wvikjpl6Vt+2pb5qYOtDR9aTDL4Oz+kQ79YE808iEJTy8yTsy6S7h5Qdaaas+mi9N9GMdEKv8gG//s1xXl+VXWMbCBJ/00kZ/AekKw3ZVbrWd8Kyn/Coc5E8b/FDSjv6gU6yahS0sYgI6QBl93X7gQCQAp6B2hGXEEmgee207AgIQmAYtcuqCiGA7Ywni3rSxeeAkzzbELI/AhSJ4ce/S1LwaQ2ftVMswVI0N/sGFo4ZnkFwqG8tRD68oB4zSPTT4kUGliTR5HKjQAOWLQUNHmW2M6UACbYVZy1j2sqpQoeivKjdlpdzkqytLyskz2K4bC6ebzz18sWKQPmTMIKniU8f20KHsyGdJb5+pR6z66qDjICOcqlfAVQaU4yGve3f7uBtzdFiaaFdp4r4brOu2wHLl6r20Ud82lhnbhnJpt511OEVJv3MhF2Q716k16tMWWMTQ1/77JAVdIxaZSIxhXmL55IsXCs2FZ1AktKE+98InXWEIt8bCN6/ek+Y0GkyqBNKgUnGPQCwnH8WpebbhQEU9Aw19DD5+/E88KK17Y+nCoNnzigeYyEFZcI9hMmvUAyPwz0sO7D9pW9tLlx3qvXWgh1mtO0BAk4at0kgnMXIDL6Hmw2+9P166W0/9YP8Nf/DJoAd98IVs7HPqitcYPBi0j5mYibiQJ74Eymu/H48u8oVJP7KCgQYu4/am/HgSC/jQSHthiJcy6IZveZfnSgvtzJ+LXsqFRdo+qnVrmjr1HzEgG9nW46AVv/zTjjSfL2r/26pbSSasaKeQLwPVoFVAP1JQBVEfTdjJMFHTwuzSMdc9j9WcwUo/zeZ1y6ANI9MoTJPPbOdSWpqZXVj6oRAMBMBD8fBKSw+0o3jO0NKBQikL8fAYBsW3LXF3uW57YugUhjTXcmjBM92VmX0GfPqtKgp1u/UpJ89lt/TZzjeryK9t1QnycWqxBcAgoRVZsV3BWN26Ud82xrRlgKQtvCJn2uOToC28MLBKC3FNQw916Adh8j40M7R0KDPu6QsN3EdU0FBlxj04gF1pNp+YUFcQ3AND+rrwlBvwuu2ER0x72hJY5XohG+hnEhNHbUcaGdAO+O1jYzfXxGzk6+hfGytEBYhBg4ygsHzpgnYyw/eVcHq4cQcHQUcIeHGEsOnHQUA9AnXw3MKIxg9cHBi0sS5pTxqRh9OA9p4U4r6WU4c24KcM4wJuFThOMZwW0CAs6ZU2HCWkgaejEJwYnPKgY5i5eL0TnMDDkUGsg4y25AHf8862d+aiYzEW8pmhWbLbN/QHxsepKeAaoE05EUMbedJPTB50MKMCD1nTb8ITBjH0KTcdV3wDDc++gxf84pgiX4eldWkLHPgFFn+YUE+FoUe+3gkPtKcNfUR9gnSQpg6wccZxzx8NQAcXsLgYsJEtQfw4fdVNdVlZwr9p5VHvGUjBi9zADVz6X9lKE85ZaCWfNDHOXPCKW/hdQ8WG7H8nJwwaG+jWFZZ088GExn2Mgqj/KlmZIQ0AhEDsgRGFh9K5h7YdiNjQCxtCCbYhlnhiZ0TygceeoMuEMwc01BFa5qSzCkCGLSOGDzy+0lpj9/wYOXAwoLoMR9AoC7OMzhrqMhgyu8tfy/gcPygyS8SqUK4MqA7vVU4VBI+86iMqYOBIYrWgAthW+UqPMfCsw77VWVH5MPPi3JIWDUW6pId7rwob/mhjeS2DRi7LbG+sIwj6jlcHeMCRB9pWHMJitUC/ICN0gJigrpCGZ/qQvFqmPjD72cecAJN+cEAfNHhVeis9yKI6tpQzOKtuko8NVTjAZpuAHlIOPdJmW8vav5OiAURBKMJk2pZxGRYAMUAgpPsiBgxADOUG6vuFEZmuHVWZlgnyzAcexMKEwc6QDu8pN00bZ9xKS+WDNHWqgGinMVsXGZCvR1s6ORzCUrrKiGV49V7LszwRw3/Xaw58Rn+WnNa1LYOcOMlj31+f/cIzBs7ytdtWGMbAqbCoj+HSXnnBN/BxbqkTPhtFMdUV2lZY4iB/rsv6tPcij3ticHXhOZBQn3JxVxi0Ead1qE8+ulfP5tNX6IN9W2PkeLwy6zF7di9odCUlj9063HcdW+qqsNVvDVoe6X/OclQ9sw15BHSW0E7GVWgIweOblbmq9ALrGjREz7Xk5u0oLoRd4/am/MwlDL4kAT7xVyFIH3mMoN5LnzH5ltneEdk6xnPVpYyZHIeNygfZLDVxdgkTwbo3VsEKe23SfGYw3xATN4qHQc912bn0DwbtVkS58JgIg/ZSycVX850ByaOcx051T44MGKg8FQZudYR0lQF4upf9TJlp6sxVF7i1TheWfHfzvZc2YHR5pQ591h2glTeDKGlj0uqJdexb73FY/SCa5LHWkS6dceIDF/AJ1VjxQ3HRTr54olTpo759X/Nbp5jCoTGBZ1ldJHMtTXWKwQQMQABebpknBqmf3VUpxEesAGSaPGgwH3gIQOIr4108lEE3M02th+CAQWyHGQODNsKiXXXimc+LEx7LlH5mreq9pi5yqvUqX7RTTjrZ7FxiDiNUg6YtcqiHJdhjA5+lPjw4q/IYiwMTXLTp4iUPuTrTygP5tGNGVn4YAION59RpxywBTOi3H8nvXuLp5nOPL4FrLtpoR+iWiYsBENzHgy8t1qceFwatv0H+qm7Yv8TqGGnqWK/qCvoIHV7Si1zB7b0ztvWIOTYKbOER0+9V/6AB+5MP+CKwXKd+rWvamEmKr5jMfoKITuPiVTKdPDqQUBiUR2IgzDPfIocZGFZw1IFgDR/YCJrHHB/96EdbJ4Wv2OG04sC9wrJz/VZ3xQsDMF7x8O980ErQ8VJXC9SX8RqTz2tyOqWIeYW0vgtMHZScPbTLX4SMUXJUEdoICJS9LM+wKVee8HvzzTe3jhucJsgWJ4m0EnPPq4MYL3IUD6sAvh2lQ4fvf1G3PudFDiz13fO2ndh/cYJ/bkQe4MBxxGuMzPDQp9JzLJX2dSaDF5xltAU3gfbCgQ8Czi9mcnWA/gO2/Sgt7PvBDQxg0la44iB+97vfPfvxO2Ey4MA3J+lwRAEDmcgvfICPLQIyxElWZYyzUPpxsL3kJS+ZHcA1XnwGnhyDNvSAlSr9qmETc7QZ/gj0E3h5TCc/8IAuQ5/0a+R6qsFZg/DVcVZbOtKQN3xzEpA26CIxOsypTPhRl+CZurNfLNGI7GgJp1M0DpECFPe/l0SDxDrGMOKl8HkEpGHJHEtzysVPG14KlxHgyZBtgIFAMKKqRIyQLNedAcVFLF3AwMHmrGh7PK3MgLahHo9gcDpxQR/8sofmfLO0EDND1z009TBKnE6UQz8DIwNGXSIrP+CjCNBCwPHmKkDeoV++gEW+e+iWwP4PS+nucVoGHGCKDxzM+AzYwqz8HC+NbAjwVVcQFT9pZAU/8MqgYTvhdnEyQOrpFxb9w2BDW3ilDafCgAsfBPjAAeajMmREQAesBy3odD23rS7wyIsLOF58GQd8BmhmwuJSfqSp1+UD/e5eOJHhATjilc6aVw1cnpUX9YWBTcKTEwe0Q9eDPuMrEVTkknA26gIVOQZtufWPZ9DUIygwDr4LR7i8Cyw8Y2doBAYjMqNAYJ48PxxIh3FBz1yDBp2jwMCLQbMs47IthsrpMeDaUexvPQgirygyCihMaJprac4MjeILC/zstesLG8qFmEAnEbMKYPZQRsbyIP8YrjOWsqOtxyitzz2zJZf1mNloDx/CnytW+YRFHWhDDsgEeMqmRVAMGtpY+iJTaaZ9FycDJPKSPmAidwzVtsiRJwQsc8FHQFYYtE9AgA29GjTw7F8mDmBQLi/AA5fyJ42hOmDKu/tb+aMe8ISj3LADebDu8QzaNt0YnObBu/yb5wEUV3P2wewMLeJKCAxytZvtzlLBJTfl1jueQSv0FliZ8SUO4hk5vRA+bVjiUEbHaxC2IZZRPwxAGy7oYTSl3Pqk7RjzWLqy1K/0oSgeB7XjqafhSyOKzOxZBY/h1z00cJlxaj2WsxgQe1QUQnqJqe8MzT2ze/dcgMoDXtIEDJWjpMBTBhgu+coInnF+seTmUsGZsanXNS5lRFzlhpKTB1ycZ+CRjxZw5wc8GLTPuoVX4ZtG7qyQuOCDwIqneqqhhT0+9Sinr8HfNWhgAq+7n+VbYcpQ/WDGV27AI+2jIuVCG3TKeuAkuDeWB2LetpKHNtF/9CQ+dcbY/ArDtLRyTz3pYUvAhXwJ0tMwI9m5Tt8SQUxFvt4gUjoURf/whz88a8gyeTyDFh71cI7oSa9E8zF/lJnLAcIlN4xr0KShAUahiXtGPwwRPsBB/KxnPWvWmBUKdQngxbBQSJ8vg5fOx1D1QMsry0VWJNAFbJw0GC71NHpgsvR1gIAX6mJALOEpBzd4MXC2CciWi3qmXXLSFyiztMArbbv7e2Ay+3k2XPmxRUCh4UFFABYwKz72qBi0MoLOHxSUH4oFXyyJpR249l3LWJ83ZFU96eCqe3bx1XepgUlAnqxwqK8yM6MCs+LCUJUN/BKAx9bDCx3BSSs+eKH/mO2QuziJ+cdHypUL8Op3wajDhcOKrRZ1lQ32UmmjHgMEMMBtPeF7L13Cg1/1izrcQw95OMDQdfBof9DU4DBgM4+zgTQdLGMKgn/Ew1GgI4PNeHfGos3xDFpDVQh8aL/Cw3HBEpRyiQQ38GRSpjnpQ1scEdBMDP2VB+h0ZqOdwuC7YJ48IuY1RPitFwMOzh7ggYeYujiJcEAAGwcEeTgtpMO60GQ+ZThbPI1GZ9CpzDh8jB7nB3WACR4cOsgCPOSDh3zgSQfldChyUUEwFmdoeWF25zta0CU98MWA5YUyMHv+OAatQoKbgYRXLaWNmFNxerTFA054VWbwxWk8Bij7FbgMEEwwKijt2TrQFtjqKHwwqNZ6OOdwCgEbeco3aWRJe/oQGJRJC+naB9QnvOhFL2rlC58aNStGrooX/4COKfuMU2vdixWo/SXPxuo4MXoLPOmCTumFB3nj318rLdCE/bRfLJFgADJTcml87U25RwkYib1MA/B4Bu3ML8zuPSOnl8IiRoBVoOyRGGEZIKxHOxwECIe6VUg1zUzFssyL2Zj9mnCkzZh6jn4oFWe+K3yMgNmJOlzAwTjYVyNHZUobgzOM5eSTttw20E1dDLUu4ZE198zw1LU9KwMMWl7kEbkiK3mqcqYO+bTDMMUNPccL4rMu98wm5tOOVYDL+koPtDuw0/9MCD4us58waGZKdUo+WF4rZ+kmBj48yJ/1iZUV/VT5wX9T6YImdKq7YnBFYF8AQ2dXlz71RPwOmuKBPlZ4ykl+jYGNTOnzZz/72YL5Pr4qn/alecSE9oslKDtAQTjXJ4PAAHEKUIwAUNCUHc+gra8hy6hwiYFVDZU6vrIofTDtq40KldnAenacCkeM0BQkyzcZJxaGdIDfPGPq0UH1vWnwMLuwqoB/ZaADTFl26fG+G0sftKJI8stMziBR5cVMxChe+WJLUJfc1K9BXhjE4KfCw/hor8y6tNV7FVB6KZNm67E81rEFHnDXfpcufAjgpZ24MWjaKk/1xoGg0k2Z+aRpA2+1LYMf/aQeQCsDs/TYnm2IdVj91D6QR2L0jKtLB3nwCX4uB9L2pl//eAaNEUOXssVf5QWdwiQPesUNn5VXyqnbOGvAEMzwAQEZFrCVVQwFIRLLf5hBWw/EEFbhUMZFPoSCi9EU5YE2YujjMZjt+01mv/OtUtWYdggLI8GguRS+/JBXBSdc85g1uo+o2K91tx0c6UQpK/5u2o5z2VzL4ZN76zBz+rhMmnBiYdDVqNxD28HSrXy5JziqC4s8thwcaqnwKk1zpaFPvemWIydo9FIBkTX0gZMYI4Ju2guL1c1c7zQzEAGn9hfwhS0uYXvPigyHJvQq2+7f3lCX/Tc0qCtdnrinzBm6ixs6qs1AR70oZxWgjO1fY+ArU/8Rg/bKS1iVX/uaMvPB287QLjdY0vKfPgquNiJtvooBAAOAMUAFJ7E+h66whAMhpmXAPOAyWglHYfOIqtJCPffa1BG/9e0MOswZWgEdLwa+xgA9GjQwMEQGBxxOzNAqG7DYt7rkrkohLdAmfRq0HalSW057FN7HW9BBYM/GLEg74fL4qPoCrEuMfOrlPXJHCZEJzkH6XtzAVcFJQ2stkzf7xph8BjQdUfatOIkJyJfHZeBF95SFg0GVqTDgAX7muoBH4Kq4fIYtvcTgrDDpZz/PC68E6tkfpOEP/hkMfpQLPwD0KH/SHLCqMCtNpNEpZIGHXF7wE9Sr8i+f1KE+fYn+PegzvhD+4he/uHWisDE3uCcSuMC4r0jqX+ZAoPCAg8PAV93Y3HvqRwcAm382/DhwCNxXz6iCfsELXtCW6ejAyaHzSIcGZcDQsUBMHfKq0wonivsdeTOGrypYDBgaVHSOiPqaJfDBjcOqnuKy05CDSkF7ltJ8x4s20AqvxLSXd8u4l1fSnBpi3ypsYlYLON/gzbrImLR55nNPAD54oQN6XJrKY1f5mMX91hqnocCHTKUdeBUXfQ0N6hD1qAMPxDoLMRT7Fu81g6dGT1+gpDjFgE3bLl/ywQlHjJO29B1pnmDAFzJS/uzboQmYBOQCrfV1SPI4fchAQztlzX6curSHHuGoy+TBJ/IhrTOPevwxQ1emDMTUV39pw3fBvLQzBj9wKGvloH4DH5o5oTZr0CJjlCCNoB2VWYZXBRdhjRFg+z5m36mCIIDj6FsFo4C6ca0j7m4d7itclMFHSnVwqbSRzwiGwjDQqEAYH0s/LtsqRPI0aPbptFXZpUlZyesPotk20I5S1cc94hG39DqL2ZZYedY80vJU86Grmw/+Wud4NJNf2+NDYD/PVWe4NqMvK40Ipx2GBG5gIPNKI7DNq7QgYz3k9gcrCAYcaaEtATlUXnikVJfryJIlN4dS5AVcticNTO5ZCTKQiBP+OGdBOaHSCE5ppy1l0ELw3vrc05423TLqeDgEGSI7dNTVL2n1gEdotBc3MNUDZEwZ8u4/qu15NedCKGH1PLYdiMAM5JHGoEEmLBReGAqmq2CWG1uP++MJwrrWwTi4EACBDtFIpJdYo5QGFAWFob6h1jdNZ3M8EHzyJoxKi/RYh3vqoQCVL2b3evQTPMivxvCBdx0PdhcH8MAhDRWf8q/4anvrUm4dFRJ4hko7+FihuDdG2WrfKydi6ujsqnjnSqMf0kM5S26Xq/YfPoR6Akw40C7/5LEcZqleLxyoztDUmcvoyOeTysi7XrRVPtRxgCJtED/14INQ21BP4yddeeUee5nr6sqWcxbUB18XPvkE8nlfe3aGtsCG3gPEfTCIGEkcRSSGPC73srYlxigrEVXANd82Ne9HNWicGhhkvVAIO4kYmvFwVqEyejOK05Y61te4hIeSMRhAI/IgdI0UZam0y49txIsSo/C+Xy0OcXsPDZzC0qMNHGFU2KahyfT/JEbmXVjcszz0lUpp1eiqvNg/6+yiHTQrl25/kl95Yv+tUdp/DHzdLQb8CVNef8XnHI0AACAASURBVJhBU99ZzTbE0Ij3GrzipA/QKcqlT5lwb/p4MGmHntuWerapuOtRUmSoXNUBYvLZ40trbW8a2MiWAy2zBl0RQgCBBlQEoMiMQaQhkCb0PyPaEg88YWjEMqjSiNOOtj54rSvRNaa+nQMMHtp3DRphSKsCwqAdMYlRPJ9N056Bidm4XuRj0D62Ap90d+XEvbxJv/ikn7YYNGeUuSqNpAngJDBD81xXudBWuBWe6R8WC8d4rvryhnwJ4CNmQJNm+1uDVl7kM6Pi+7B/Kr3CBq9pY/JYBfjMGf6BR/9g0BUO9AO/tj3eklv52562lX/SGLQytz/QefUS2qgnDOUmnG6fc28d2kgnactoi0dbWVYZmjbmO3rwKz7hgUOYlPdPYPaIlSgJMQYIe+juxSuQnLRiQ04gzcYdJwWBTTqb9/rGjwJ5/vOfP+tQwYFAPZwNtCNNwAHwozrFdGxAA2linstWhSPtt71wQoDLGLrBKR84Yrg0MIxcpxhyUbDKCAHDG0tp/4ET5w088HF6HEq1Dc6V+twYXHgr+cg6jpHqTFIWnHLSCUW58OGDU2f1rPRcNEprpcN65MGDfOBb4KP89gV4lQ8yQl46leg35O2rsLx+6qOiCl/8xuqCMfk498BTHU/gwvmjHEzTzwTlcDynmAYt39UYwMk9szv6gXF5sTJAtsBXV/gumLIiJvCmGv0MXegy4Xd+53dmjVh+6XP6kHoEZPq+971PdG0sfgcX79nPz0U3sKEBGRK3nyCSKRET11GEe/fQjl7soZ773OfOznbUYSnJIy8uhANRXPXVS+CCnL/C1NiAKeHkce/o/KM+tuLQPDTINJ2oIw8adDgYm4cTxZmX9rRjiYt3FJrkAWNjf6dcqKsigpM0Mc4u2sobMFiCVhy0xcBxeFEOv8gThxOK5V4NmMzkPraSHrc38EA7cHGAovu4TIUDXw3KyDzqkTYmDR/dE2o4D5EB5dCGrJRHbUu5p8fMty73tDWfutBT74GJDGhDXWTHSgW+1RVkQfBCBlXm5FOOb8XVIbhIV1zkcc9WEVnOdYGTi3J0CpoItCV0nxtTl39wdYViPXQZfbL/oLe7dfVeXowxaOEY24/QLz2tU4yMLpNUqHl+bkgFh2iNTcAgAnG9qG89CUGoeKW93DPRATBALB5fs6SteHxV0vbUZSmtclEX2vmeFLAICJGggGhLPjNxPWUGDGY6X9iwPTO0ygwd0iJPxswwes1pC28oI88+aSONjNbdAyM8R9Yo7SC2BD7TBZ4XPHOvsrG39dm0bcXV7UtprTzUNLJjUJM+8bDc9kw6MGobYdL2xw21rekKH4eVz2Phlz6Ub+VhfxJTpqw4+FP335Vm5QQulusYLO0IxzNuXpWsNMIrg4HtxM8hEsqoa8ykI130nzwYV14qP+gtTjH7UR6EKw7yW6eYBWRUJrknoBjsJyTauD5zBigjEntZCKxC1SjriFX35ConcO0sDc+ZFy8n7Qke/VQ41KXToVVhQ7MGraAQDHSJj3yOGXbbstLA8019LuDzrNq3nsRBDE7lxz1ec2c2O4r9t44tZcCg4cwrr3iHWdYDx344nkHTBv7FwWwPDvur0kSa/EoredACHoLeZuqAnwHHR1TIAFwYOHTT1tmTugTaSbN5P2osbeJWRt4zyNFPzl5tpxznp+odVRhc4U1aoFG45hGzikSmBuWqjonuRzFo2jBh2QcOrNWjLdzuwMG9ekcddbW+ogm8rqzt41mDFjnMzbUsYYaWCJgFKc/QFArtCYwkXnYASCynPsrA0lx4KrTtuAcHoduWzmYw4KLctrzEIS3yUA1aXMS04yLNzKYRQSO0sQ92hhYHB2v0coun8mQe/gIGAy5kRIeAw5mXNtSlnoZPXfhgT80L+XSW9eq3wqBXPqDLe2JguYIAPu01DO6rEpNfy6TdeigMK4r6WA1FY/nqEVGV1DYVxo+bltduO3EgdxxleqGVgXqC/JAHAZlbTj6DJoOT/BJ3jRo8TE7VuOi3rnMUeD+OQcuPsmc5DI31qsZb82saPlnq161DFzYyBM+sQSs8MjmJhQNCRwBxV/kgxL2xwAHK95p0VuA8wcGDk6CeKsIhoNODujhXqOtjHDrEDsLRAS04JqgDLcDUgUY+9/VZLTzAPI8d7Fzh8XF3YODAAR7tPdmFDAisBnBsQRu4ccqQxqEhfmLaEkzjGCFNXWBLL/wzs9VRFcXiVBiwoV/40gIPyBNl1HkGD5Wf2ukcxuB7WtCLfIk5ASY8+4h7TppBp68Swmt3WcrjPOiDNnmkXT0eCkzo09FDjAz+O0EnEX+i4EEQZAAOZEc5jjfohiZ1hjQyNCBz0sY4JJG7Bq0x10EEPOAAtm3hGYeV8kbWpH8Ug6YuM7Qy17aQFf0MDmJwcLJL2MbYGuXqEvX510vgQaty4V4+iMlvD3ZxI1KWJx/5yEfa5Y2jB4hMo1SOjF2DroITJnl///d/PztyMgqifP0/1WoJAjf1GIUYGb0QoCOzeYyajEIYLG2YUcFFmpgAY3QgBl0v6OZwCPhoB6/seRUUMEgTV3mgYAwYzPgODPChHGqnM6vhxAGG8OwAYvPAg3GAB5rhh+U6+QR50SkGjmrQFac8si1QftDH/pGZFljyxWqEZSjbAH0XLKXZf8uzNMA3dCEr0gR4sB4x/gffrJKOHzdGjtCNXrC64cmGOKSFe2hRNtBhXxsjW/Itk2/bCMuYeqaJ0RnwAAdcOH27Mv9hBm2/VIN2MAEHOgdscIOLx7xe4KJP+GACMldXaKNu0AZ48GYArjKYnaGrIHRsSZwIiVVi0nXJXQXTTbOvph2XAwOOBIkgpg3OLhVXXNIgXtqz55UJ29bOJg9hdA0amOyDux0pDGAqaHlAgJQzs/kMtmWk/NROZwDSOSUMYjuHuIuf8koDOM1jac4gAQ5DQf2gpLIik7o42RiIKmzuyUeO1mfvzuwhvdSvbcw3ln7qsMyH5//JJR3AQMZsecSFLFDuirPSVtO2Ia75trUPrOe95eSTZz4TFpf9C53/HYPu0iN+Yp4byz8xwf1y5YG60Alt5BO4r3W4n52hbUCsw0ojtLNABnNe1SlWAdMJdgTwGK1sJ9HdD/jRaXyUjavWFZdC5V6DhjnwEDNq2RHgJL+75IYf9mNzCYI2cwUFyJKUmQ36vaCpKyP8Bu5laQsu4Fb51Hvyu2WVDwwa55QDWpWDdBBLl/KlPoZK+wqfPTn5lW688NWgoU8aaNuVl3KijMGrnp+uNP130szQeNKPh1OZgvsH0WZ76qBb0IxOSDsxZd47izIxUJ8yHiEy8ClzZPvDDJq6XHWGFpe6IE5iPr7pZd9p0N360ki7bpmymJ2hK3Mc86TDa6ezJKpOA4hoR4M5DKHCQojM0Coc7WBaJ5bChlgfjcng8eKuc0oBVbzAxaAVMLDgx8GgKxBgKBTh1ZiO1istD/AEfOVEmmUvLybQtioQ/EkfsQZT6bC84sXLDV5wAJ9QZamMXD57T8xMTHvggQf4GK7HN62LQWPoFa/1yZuLLvNY0vu22lx0ieMHxbQzsPyvj8bEU2mTpio7y5F5bUMdZI+8ySeQp/y5J91d4ZGPgxK5E6Tvf2LQ1SCBD808AeJSdsSskKWv8mgbYvjslnHfGjQOBBwaBjbjOJ2q84FRnQuF8mJDrwOGtjq/cERwCoZ7HCSUscnXUUEZ9+TjLCOmDKeYnnGFKC6X6gwqfI/M9sDCeYPiVgNCIDwLVFC0Y//NSSycEbSBPuh3H61SdGMEiJHyLTMcFHz0Hflcd911s7OTeHiujZIDg3Z2gvcVdlf5GIRwfiB36INHnD8YnHtj5EG6a9ji1+ipx8yusxA66HAebXGqjH4BPt8c4ztr7NXZq1GHvXKl0zT08f0w+5a+41U/nxHbV8R1gIE25M+rqsiPQH/jmOSqvPA0AZrQQWikjwjoCI4+8sDLaTToIK2+6TiC3qoL0m/MgAEcHXHArW2txzlraIc+DZunOFU+yIutp/KXH1ab8ADd4CFNIK1dIA+cvrYhRs9xglIX/qANGPyDq3QRo9+sjiinH+GHNh/4wAfSVPc8AHEGwDQdKBBOislcS0H/5AwGiIJRRqDjqlJR93nPe14LRyEjBB5bUVdDNRZ2N0agXjhPqK/SgJ+DAdBaDQgnFlelm3bCIt19HKUR1lgZVPjw0D1NBS72k9Wga9vjpYFFGcbGqkLjJYZXLmTqRX41AvPl07o8m8bB1MVLvzoDUCZ+69WZxDxiVkboSpWf/V9pVBeki5i9MU5A4SFfHuWxWqB+vYAJDvTDMmPrcU8d+xOZ0N8Mzl1+xElMGbpSJw5gsjp0llZP/SCgOIn5XLTw1DX8QXNdygnapJ++gWby6tXtT3jnEgbf+ROvMbMxcAjUI0Zf2u9yCxBAdSltx9flsHUrkSAnf66LZQVCEhYEsU+gvTCMKwzSENots45lxC7hZRZ8ONmsK13UrRce2rkOjAhnrtgOx1GGJ1n6gMvy84cZtIrgoCE8Pdpdmiv8Sns3rTysz5KbpTRyJ4in8qTyW4eyuQwaWpET/DmQgh+c0mtMvgorTeyN5zJoz8xDMwEYFSZprwq/4rAcH0d9TKecK7+k3RvTTsPxNcsqB56IYHziJWbmrfCQH4efuKQd+dhG2roxvMIbcqKuvEuP9YXDEyDw2ofg9bvctKE9F7gbhaaFUxHGEIgdzr5axCIzJp8AHAFTJlyOfioE4AHbAygSDO5ue+ETAxfhctFGQVgHg+4qoh/fp460SJ94UdB6zlojq3GlnbQy4ZBFPR4JbAaIuQzaNrW9cJEHafa3bDscwWvnSq+xfMwlM8rI58ioBg1+aaj9qoJICzHl3tc0fLECETe0SI8ytsx+8R6Drlsb4PIIjRnafrXN8WL70HJwm0cag9ZDLq/yYQxeZmj0h0se5jLUavjirDM0MJGf9ebqiyofYRhTHwOkn62nvCgzj7QztDoOfz7ysh5wkWU7Q9NIJn0cpaJBuAYoMSL23lgY3hM7e0oM8HS8QYywaEswj7gyVmHShjIu6rHfYQ+oApJmVLOOMfUrjRggIzECoi3xXEG4KgbLVvbtGLQKCR0MEH4kEDjWJ03nC9v8GmN8nlBTJtILbAK0U2Y59/DW3ceSxwEFjFA6iO0D+1a+hofwyA+1MoBO5AdttiXNnq2LB5q8TE+1tE5lZqa3vKT8m9/45uxXR+QZ2vxbHmHUWHjkTUwcc8pOTh3T1Vq/uwoQz/Dw0IP44Nl5hQ0MtjqVV+SDBxr5YnTIm5iVqrITPita4BHQBfum0kZ6rnx1hzIC/UZelz5e9gBfHYAxaNoIAxztDO0/9uGo4DSODiOdDmziUQ6R0hDEH/rQh2ZPfOG8wcmBQ0c45OFAwmmBE4PNPTGODB0j1CHgqMLRRD4xdOA0ACZ5pAnk+0+EtCOPcp0l0I7jRidBF1bXw4vgcMLAK/TNFXBk6MyAF+ShwwKHFbJQNsxgPrZSQTB+HE+0MYAHGsWHTHBusKevnUkH8dF2T7YhW2WGLEhTxj87cljEC3p4nIRskAlyJwY/J77ABx/nn7+xDRdfjLPp/NkynEQeZsDoMQoM+sCBg6LoxyjiMaMmc8f2Hbn6Kvru6lxxxZV562WXtXB7A+bQ7CDHwOcz7OmpnkLv3r2r/adO+HrLWy5t6YfPyy+/LG+99NJc1+9vnJuHMLQ+FQwiGPRyHnkNDGRo8BgeDMEBizQDsXJDdugI30qDPgzGQY4BFsendZE9DkXKrYNx43gEjoH6BuRPPrG2ITzwVlvxHueWek05+bSlv6oeojuWIyPwYJMNilcZ8RVIFYvYNIrixWkvldbRSka9J2Y2pp0zI7B4aD/XLAC8CpM0s8pccM2Ddh4nYFheLGPAISwEDxzqQUsd1SpPpLsBuPJPzD281CWxvDHjeHhF3Dh/cApRR1gVp7ArPPigLh5PtgTyijxJw488ce83yuTfmAGhXhVvL79nkJNHmVmmQ8zFyoMlMTIbG+ME1XDr6d+1c1crH+pMT08x7/RDD9rU5FS+8+3vZMnipRkcGM7w0GiGhuspL5/LD7bwewPisQEBvGvbZ+fowYONEt6HBwcywCeDfuqnc9vtd+Qw+8d21TWZr33t61mxfEUGBwb7Bu3WYaDNaxrvH7ytUJbqLPc1jX4pawZny4jVYeocT1dr39GG+26e8IEHDuGST12X1+iQesSsTTl4hdf+P7QZLsdYqnYvllooA0pm4D1QARlXZoVXHWoqFM/4VHiZtG1PiXqng4CLsCwzFh8xwa+OSDc0srSyHu2Awyj+417QrNERVyOp+cBlBeDRT+Xq3li8wFMOdE7XkKlnOTM2n/6Rb2P5Qlbg4QCJZ+HFQ4wcgA+eH3RNHbOptlr7UsNa/uhuKPPnL8zwyFhOO423nnZnqjXkZHommew3ZIac6A+o37rlW1m8tPfoa2CwyehI34jbxy299PDQYM7kD+faD0mAnMF4Jt+99dYsX7Y8I0NDreEODtQDP0MZGOkZ1CPOODW7dzzQG09oOTWZL3/ly1m+cmUGhgbTDNZ2TaAD2SE3ZaZOKFP11fvjxV29Ra/sD9MYGu3JJ9CGPMo1UuGTZ1o43hvjh+LSmNGPegCFQQAc/SdKvb2SDPmqZFcB6toeRfG1SIBVQnD/ew8SDBrFtz1EuU+XYGLxk65Cg2HvhWs77inn8AqXxgIODFrBUgc6rVd503jIox1BWMbwW2f1tkL5EQaPdXSKSSNLVx4hCas0a5M/CC6e6gpPOQBbRUBuDBriEL58IHvpc4Fl3NLEHvVoL9h267atWbt+fQaGhjMwiBGN5fTTH5G77ry9rXKEl/OP9FZEU/1F26HJyTBn33bvrVm2ZjzNUJPB4SaD0EoYbDI80jMuDPXhp56arZs342tOcjBHpw7l29/5blatWJn5oz2DGBloMtAMZnze8jTjy9KMzm/hnn7qhuRIXf5P55v/9Y2MLJjXM+ahvkF3DBu5jY0dOxOukZGvbpGHnKus7Uvyqp7SRh2zjrH1Khz1lTrmi1ej7MKjnNUm/Ygetn3WP4ACHMqF0R4sQTGc4kHif1vZuQKoiseoX73XMlFjCcagVShgAUeDhniJoW2XGWFYTyUWD+UIrntsFBw4NahPW+ogsLmcewiJUGlUcD4TdSZWFl3ZWI4Bdp1izJ54YOsFfA1Nw3Omlg5WAhwOYU8OH8gJHjzYoGyIed7Msh6+gSf9FSdpJtepyWPbJlOHJ6ZDOHRkKkcmp3PHXXfnoSdz4o1l6nAGhxbm4aedkdtv+a8WZLs87+9wDh/CjHvXkUzlW3d+MxtOW9ka1shokyFeyXWm1cAGmpx+xiOyY/vOzMzQan+Ozkzmu7ffm9Wr17Uz1sLxwQy37QYzMr48TTM/zfylaQaG85gzH53DO/bNztBTE4fy5a9+JeNLl7QG387Q4uQ0Yz/d05exVo5V39SvqouU13sNlDzS6pW6WGP6qd5Tl3vw22/c05eWcV/xWZ8JEltDX9QZdMRHWbSxXWvQnDbBYULAWTLX0o03sNjM33DDDe2G3X81pD5OFjfrnkyCGAmtj4/odpQNJw6OGpxMOLHY8PvyPO1kWkKBN1egHGUHh4YADhjnHwqhDRzQSagv7fd18PsiDOvP//zPW4eIzjgch/4PsgYIDl7HxDGBQ4K6Oj6QpQ40nF3WwXlBvepA0aGBbPGSa4wYJ1sd2gNLPuDJAViZcBAI/qCTAHxoq4eGZPToUc04mc7R7N63Izf/yTty2ZWX5sqrr8hV11yTa992Y86/4MJsPP/8bNyIs/BNufzSy7N3e+/P4mk5e5XkVCay+YFNueTSS3Lueefk3HPOzmvPOiuvfMXLMzQ+kma0ScPsOzKWU884M9t3lH/CnEm+e8fWLFiM8TYZGe3teRcuWZJzL3h9zrvwDW04/4JLc8kbb8hll7w9111xU6667Jpc+pZL86rXnJWRefMfNEMvXb66r2evyoUXbmydkBdd9PpWVsqUvsIphh7yHTWcTciSk4HKlxi9xKGmg5F+qI4q4FCG45E/q6ht0VMec2on1uMbZdSjXF1nAoAG6SN98803zxqzcj+uQaNAKhFK6oWBaCRsykHoKMWowWuRtkPJCf2vDj6IGY5gdi/h1nxO3FQh/ChpDB+DxtnlJWxmuGp8pqkH3RgMoV7UYd/qmW9gcyCCjuw+UqIeDi8HLuTD4RBm44obx5aztjzVDnTwwovcPagCbRiltHMSiLevqEs7cQOXWYFAHvCZtXkWjfOq9quu4engMDucW277Wh526obeLNbOoAM57eFn5jvf+e6saCYnksnDzsQMCJMJa23UhTAzlcz04NHoEHVnetnTk9O5/Y7vZeWJ69IMMzCzjx7Pwx7+iOzac8ygj0wnX7/lnowvWtibZfuD+MmnnZZde3oe/Bn2BlPJd76zLSeseWSaAd7MGsvQEP9ZfuzLJM7QP/GYx2f/3oNpN/zTx7Ye9jtyQV+QLzH9Zh6rPmSMLO03Ho/WtrMC6iQ4WUkb+5a0b2+pnzTh3HaFT736jTJo6dqnNseXQKlfdamdoSVQmmQIJm3Mm1U0RGEAQmBT7uVykWWuSIgZAKpTjPrA51JJSUODr1TSTkE6gCiYqsDWY3DxXWXhC1tcLcL+z1x5tRyjqS+AwDd0dB1qLK/xBNshGD+rDAwaHMiOGE8uhm896K5B3tgH81UQZQkP0qoSUMYAgaOMduCssJQJ/cRRUuoCx/YsuX3KNB08xBO5+747s+EhD8nQCHvLHrwVK1e1dCuXmf7yume93PRm+ekJlvBTmZw5lKkczOGJvZlxxGgbU5f/47orS1ev7BnqwHCagXk57dSTs23rHe2gQlWGi69/5+tZumI4Q0N4tJuMDjV59CN/Ivv3Tvb8Zm3FyXz7u9/KstVr0gyMZXBkfsZGxjI6dMwR1cpkqMkjHvWIHDnYP0Y5OyD1BnRAdXXfPGTG0xn6HTmjdwS2il6zMu3sbWmLr8aBFVro+3qiTBhsAe0/dZvJk363761LDE7gczEYCFvdag2aShWARqxC0rj/edBZ5ADyU0CUW9dvgEkk8VwGbX3bEjOC2U7mvO/GKLKGQN253qwCpkI3jTDoRPiVb+JaD4Ouj4qAz14HQ610Y9C8tKEwoZFllZ/uUaYso5lRKQdWrU+egyQGzWMbaaG9nQf9XNDOrMtjKtoqA9Leg4N8lm7d5+6trTFzzkxlJijGZO657/6sWfuwDAzyf1mctx7K+vVrs20bL+QcW7GBfwoLbq+pdtabngTOVA7P7MvRHMrkzJHgMOOaylSOTO/PZKZz2133ZXH/YxLsyZtmcU475czs2L6txcDsfGgm+fqtD2Rs4do0zbwMNAszPrgijzrjUdm7e1NylOU+M/qBfPuO/8rC9q9o+eP7gXafzl6953xjBdCbVR/9mEfmyMHD7WAwS3pfjuoBtCJrL2WOQSNTdM2Bk4nth13A0gNNe/qDeC6D9gQY5Qb2y+gA9KFvpKUP2sjjOu6SWwYqoQCxIflzOcDmerzlSxIoFIpL4H95gCdM8JH2Ig3xfPVf5hkZVUyV1tFSxokpo54fDhRmpd08Y4SjgMyr9HB6zMMh4sLoMDbaAZuYJTf1dFJRl6U5j9CoA0x45U01ZkvpFaaGbcwSmbbSAoxu37AkxKB9RVNYykj5cc8ggj8EBxb0srs48uDH0pmcmsg9927K2rWnZHBgcWtEGPSJJ67Lpk13ofqzszGyOnK4/ycE0zOZPMxS9lBfhBh2zyh8fEUBxkzuLXffnQ0PXZvRdsndZGhgYR5xxqOzZevWTE4lk9PJwUkMek9WrXt85s87I4PN+swbXZuffMxjs2nrHZma3paJI/e1UL/13Tuzev1DZ51d44M9Y1YevXggj338E7Jnz752+p+ZOvbykP3eje1b9JHzGPSNeghMzl7U03L0VVeXgImh2if2L7M7de1T4n/8x3+c3cYCHz1jhgY/FzFtXLVJL3TyHNonSuJoZ2icNJ6+Io3Di2A+ThtnBJBKKCOYl0SybHY06wm1eZCzBrg4xICJswfnDadxwMVpKhwNOgRwUugYwImAQ4HvZHFUE8ahA1ww46d9pQNBE2Bc4Wgo0uy9sfkYNI+8gE1nAp99NEvuWhe49SQWjhScKzq84Ily6GbmllbkAkyNTznROTgo6QsckMQ45zjxZYfSudDAyTpkgYyQDSe7cMZAg45AypHztdde08r4umvfnve992+yfTt78mMz0t13bc6qlQ/NvLEVGRpYkIGBoZx40trcf9/3MjnRe9srMxPZ8cCWvOdd78oN116f6668Nldd8ZZ84AM3Z+sDGNmDr4mjhzMxcSQ8psapfv+27Tnvta/LG897Y950wZty0XmvyyUXnd8aZ7KH/5hMck/27vtCLn7j/5Nzz/qNnHfeM/OmS383rz7vorz12k/n4sv/Lldd/9e58rp354prbsirX/PKXHDuq3LBa87Kmze+MX/0u7+dExYNZNxHVk2T5SvX5y2XXZPLrrgml11+Zeso5TSV8oRqdISTkDglcSiij8T8KQMyRY46jElTD7nSt8T0N/VxiHrayxNl9C0TEX3Piol66AUOWx2qwKTf1HX7jXrUBwc6ZBoclOGQQ48M4GoNGsMgUECmiqfhqtQqnnHdQ9udLpuBISzirgLDJHnWo47OMxQWIXOpwKQ1Vg7DSwMx9OGw0tho4wUc88mrae/FZRtG4OrEQg4YG53u1YVjPstrZk8GHOhShtJJbF7lnXw7xnLa42RjRp7rggYD5fJKHjJgS8DxRWD3wnDWrX1otmx+IJNMi/3r3nu2ZPUqXrPsncwaah+D8aUUZuhj15133JN1q3srjfGxeRkbH8pJD1uTTe1x1d5EPtXbMh9rRIrumOrh6/nNmNnvTaa/khz5aDJ9WPqUvgAAIABJREFUUzJzXqZ2/Xqy78k5sv2xyaFfyb59T8n2Q7+fz/zHf2bp2r/N0Py/zoLll6RpHpkzHvXQ7NvzjWSm93wfNHd/8/4sGhlrD6TI88DQkjSDi9s9u3mPf9z3/8ezf0yHzKlHjJ6xIvIizdMU69hPwq39Sf+bT6xtddOsaLsXKwPbdnGYX+EIm7r9NyV7SmZjCK6VbGyeQKtBa2watDNobSN84RGbR+wsK4MopQJFScGB0vL5ImkAPvTqsKKcdgQNlbQXeQTgHe/qGjS4WFbP9TgP2BWWL2fIN7TJozQbz5VPOwYPlIPyuQ6MSDd4K27lYzkGTXvxsa9ct3Z9tmzeMisb6m6+b1s2rD0xI4ND7dHK0eHhbNhwUu6/f5t22IK88677s24De/e+13egyYaT1mTP9p09lIh0Yio5uDuZJI+DHweSmduTKU4ffjQJ/3381mTmpcmB30r2/Eay/zHJvvFkd5PsbZKdTXKoycHDTXZOPSSf+8oDWb4maYaToXlTWbj8zXnSLzw099y9MRN7/zDJtUk+l1u/9sUsn396BprewREOtjQNJ9Y45LIgzUBvknnSz/betlIv0Ae2Ol0jRM+6V/1iifW7/ci9ZcbWITZNXzOjdi/3xsf67Zh/xDza1gHE/HaG5sa1OMisTFyRc29D4mrQEqXzTKXstqntaxrGgTeXkgJb42SpxL9k2Bb6YAzHm4OKHVWV3bTwiYFpXekn5jERXmlxEPOc10dKtGO5LSxpoy37ZR8p1fakkYUytaOtU+XkeV54w5tdP31U6aw8dbcVlHFyjHMB9iG41q1bnc1b+KZY77ES8LbctzXrT1iboWYgI0Mo/WDWr3to7t+0I0fxffEYaiK5/Z47s3LD4t5z3v6sf8rJJ+bgA1uSo0dYQvXImz6QTG5LJrYnRzYl03yrnS9zvDAzu5Yl+4d6xrtjKNm1NNm3JNk70jPmfU1m9jSZ2tdk9+4muw49Pp//4v1Zvy5pmmRkLFm26h15ytNOyffufk727l+TiakN2X/o1/LFL7wnyxe8IE1zbMBXvm082NNfZmh0pfYfKzz7BHmxgtSJZV/DXPVKW787aKOP9qd1ah9IE+3Yk3evioM6njkAhnCF0YXb/hUORxNpSCUb24DYRsaWdQ0axX7Oc57TwqmIMW7b1PyahxD+6q/+quWta2TAVXkxNvbp7kuEwcjpvohZnfrA0ciBwd7Yi3vLzDPuGjS4OH7JcktFqDTWNMtjlutdWUmncXWkmWdMXyAnAst3v7wifcYqJDSxMvBSVtDCkrvKfN26ldm85b7wCqLXlvvuz/oTVrVL1fERnuUO5ZSTH5lbbrs7POnBPXNwejrfvO3rWbb6WF82A4N51JmnZ/P3vp0c3ZMc2Zkc3ZVMbU+mH0imDicTR5KJb2Xy8Hsyuf83M71nZbJnUbJjYbK9SQ43yf4mM7t7oZ2hDzSZ2dfkwO4m+/Y/PJ//zEfymEd8PWOjd2fB0v/K4pUb8+SnnpHv3PGC7D38mBzOmdl24Nn5whe/mNMf9k85YcW1GRzmjxdYTSxNM9r/PPJgb1Z7wuMfP/vFEvWE7R66j6wwQvTx2c9+disidIWLujz79S00+8sYPdGOyAOGZRq5MfnoQPcjgeiuf+5OHekR5/H0inrgb+3PzTinZHACMKpXJTBdiQVZ16BhmFf93OB7kgYHjqdwcOCIz9NU5JEGPxv/6mTgsQtwCQqVUzPUh1baEnBQ4EjC2WB7nBuc0CIm4EwQXjXCFnD54TXE6uWGf5xi8IMzgqDjC4cFeImhHUdf/WoGcqItp47gD9kQ4zThZXw7yFhZ044ALOQlDzjKwINz0Txwc89ABF/K6vuX3E3WOkPPbnZnsuX+u3Li2pUZbgYyb5THVsNZumx1zj7vvLz5qkvz5uvekjdd+6acvfGsLJpP+UCa4flpBgayfNWSvO71F+TK667OJZe9JZddc1XefOXbcsnl78pbr/x4rrz6K7ny6n/L5Vf+Qy67/E9zzdXX5sYrr8/NV1yUD71nTfZsapIDTbKnxAd7Rj65p8nhvYvzvVtenCvefE5ee955Of9NF2TjxRfmgje+IZe2r9pelRvf/qe55rqP5tWvvj9rV92S+WOfyfz5N6UZ+q0sO+GJOfvcN+U1Z5/Tnlw7/4KNue66a2dlRLczIG7esjm8QoqjCacs+qVO0b/XXMOroFe0f8DgrGsfGVf7wPeBfqIzOinVVZxe5IEHxxuXgwb9h6+mOjdJ/8Ef/MGDbBKcONkoAy6wcJzxWmnDzMXsBjCYY2SqI4kE1xGHvGrQEgQsYACL4KWSed+NacMzPnAgGGcwH41R7gUuzlgDX2PnIwqOrMKQXuBhMBgWyxmXp8Lr0oZBc2BEvo2hiVEQoyMAs47KlW7K7Xg6t3rIkTXPqjmNpiFLK/fCFi90mzamjmnasEVgS2A/wBsGzaMw6/La4fp1a9o9dO88N46qiWy+99acuGZ5xgZHMtI+i+7NLAPjTZqRJs0YAQOen5FmNOMDfIB/cQZY1Q00GVo8lGZ+k2YBRzqXphn/xTQLzk+z9P0ZW/PFjK/5aoZXfCXN4q+lWcSHDu7Jics/m2f+0mm567YmmegbNPH+3v65NfJ9TYJxH1yeB+5em53bV2fTtpOydfsV+dxnbsnpJ/9Zli/6apYtuSvLVtyXweGtGR+bysjgdFYu25clS6/Jk37+N7N71xZMJpk+monDUznM/qE4SHWn+BEF9AN947TX6ChPU/jwA3vfoVaHlDsx/V/vSdMfbD3pZ+CgX9oDaWbhahvQUvWbe3WUfIKPwehL9eOZz3xmC7s+Rpv9plhV6v7GepZQR54u8XMZtArVJbjCb6XZ/6n59XVHcfp2lIKp9YUDTl/2gFna1pg0gsbA2Gt3aROOcdegbd/tOO4pq+V0pkYvD8zE7IOlHV44F949ZSY8Yg1cnBUHefIIPgJ7bc6pgwP+iNnPY9CzMDDotWuydfO2tBN0u+iZzLb77szD1q9pjXWgdSL1PbS+3DC6Kk3DixrLM9QMtW9PDQ0OZ4St1PBQ7zgndUdO6O1fB89PM/aJNPNvTbP4gTRLdqRZvCXNoi0ZWrE9Cxfvyfql/5GnPfH0bL9vtHWAsfxm2T11oMnk/iaTOMcw7gODyYHlmd69ITP7l2bXpoXZvemN+bd/viPrl/1ZVizclNGx7RlZsDnD8w9k4eJk6dJkdGRfVq6+Kj//tJ/NPXd9Cu9GMnns7azJyen2hJt9PnGkZ+Tcu2fm/erh1qfgU4JeTF8gc+U6V1yX0sC0X0irfzXPfAcB7r3QFx4Rg9d+J+0RUW2O+qQbGniRQcWu8UJ0N68atDAgkst9LPfAlAnxKDTbkc870u7hIRyhMaNyCZe0CtsW9Muc7RQ0sTM1zJMGNgMEOCs84Rhj0Mf7cCBwoU3BSic4DN0OZoZmGSVeePd/qWnfrV/vKz8VPn0hLdRn+YUTDL6UjwZNuxYmZ83Xn5j7tmxvndHyu+2+u3Py+lUZGxjK/JHFGRzEKzyUZl7/AwMjJ6YZemwG5z+q5zFuz2I3GRgdScNHCFiGD6xI0zw9zdB1aca/kaGFSUNY3A+kFyQDy5NmNFmxOHnSY56UrbeX5TZL70NNJvY1mXAJziyN95uZmvIDTY5s/T/57P+9N6ec9K0sAu5oMrAwGQDXvGRwQTI4P1l4wpV58tMfknvvuySH9lyc5P9mYub2HDi8tf8sjQMtR9sw1b6P3ZMI8puanMyXvvTvGe6/yz0+NpphZDL7CPCYb6n2i+U87enqfNV1MFFuHWJ1shqofcREhK646qPvdagBV9jAab8pZkNiT3tJHLHLTdIqCKdcvCSM6R/CGGm8qpKR53JCwo3r82VnKEYmYAPPehUusGGm+ygLhWf/qUFo3J4ok15hGZPPXrSe5UaQ0iPvyEHhVjmRp6HRhvoeB604maHnOj1WYR0vDW/SAS7wHDsVdswZyLIef8gxRRzICac9Mrdu3pR9Rw/m4ETP2XP/PXfnoRuWZazpverYwzvYf8zDgDOWZoxZelmaZkUGRo79VU0zvCDN0Glpml9Pc8KHM7JiS5p538m8JV/K/NaBdX8Wrbg/8xffkYXL7878Zbdn6arNWbLk43nu00/K0c19g97RZAon2aG1ObJjXY7uOSVHd27I9I41md7xsGTvY5Jda5JdJ+Xovhvy2S/cn9PO/HAWLP92mnm3pll4R5pFE2nmJ83SZGhVMm/du/O4p/1ivnvX67Nv//Oz/cDG3LX7Q9l1+Pa03z1rO306vCF2aGZf++YZZ9TRtemp6Xzu85/OwBATGSfbmoyN9lZ+OHmRu32AvBzY7TN0mYlBXUdPCVw1rd7VfPTcuuYzeYIPPMZsjamL/msbvDfQ4LTi9BYnYHD2+EFwNts4ZDyNhDOHk1Dk4zTA4VRPs3hyBmcNaR1HKG81cIj8m7/5m7YcvNTHscNpNAWjIWLQEFyNoQpBhrsGTXv+RVNnG04I0ixLq5CBzb8MejIOmuEL5wh8wi+Oh1e96lWtLJABsCizHCeH+fyTo1+epHMxNgZD2uBUkVdOFeFAkz5ggQNvZlUWlAeHCO3pC/CAo+t444uaOEVwmnniCfjQfv7GjW3711xwUV56wUW54PJL8obLLsrV19+Qa659Vy65+C05YfnCjENvfwaaN29+Xvbq8/LaN1yes9/whrzqgrND+7PPvzRnnXtBXv/GC3POxo357f9zYZp5v5dm3ofSLD3aPitee9IX8uqz3p+LLnx3Ljj3z/KGc/8iF7/2fXnjBX+Z8877s2y88K+y8YLL8t4b1yT3NQmz8OGBTO36iWy+9Xfyrht/Oddd9aLccPULcuPVz80NV/1O3n7tH+Wd1/5u3nXDb+XtN16YS6/5k7z2onfkNRtvzsvP+eO85nWfyP/+/f5qYDRpliTNis/kIT9xcd7w1o259oan5q1ve2Euu/lPcuU7/jSXX31trrj2mlx147W59Lq35j0f/NMcnOaNrskcnWJFmdxy6y153Rtem40XvCqvfuVLcv555+RFL3rRg2ZpDZg+09joc7ZAPWda7xQm+o2eqa/GbMWwARyd2BKOWz6W76Xes9pCJ9EDAn2N3aJP6C7t6ff3v//9vW+KSRjxxz72sVmLBzBAMQJHDe5ZUjNCuAzXAGEGxoBDHuW44XUEAIP2vIZmHeq71JYOheNrkbQRv6NRjev+GxjMlDxisA70a8gKi3sGG5b64oV+HvXwsgc042QAr22FBwx5MQ8aGTA4mqoMKlxlRB446skzBhYeM/F4TJkCgxnWAy3gA5ff+6rwgGk70vABLD56gAMR+o9OT+Ubt3wzD3/kKRkedZ8+kvFRXsoYyGAznPFmrDXsRz1sXbbdfWeOHjiSqaM4IfnA/sFMHNydI/vuT2Z25/Chffm3r2xPs+zqNCvuzeiKZOGCu/LUp7w6d9z6wuzb+Yzs3PRL2X//0zOx5Tk5uP03s3XTM7N927Oye9tTM7ntIcmu4XZJPbV/aXZsfVk+8U8fzelnXprFJ3wsS9Z8MgtWfijzV34kC1Z9LGNL/zaLV/1F1qz/vfzaM56Yb3/tVdmz7ZnZteNXsmnrBfnkp47kpIf1lt3N0pk0i+7LolVfzvJVH83ihTdnbPwjWbD081m84vVphvon6IZ6Tq3HPeXJ2XV4dztbHztDp6bwud09mZw83OrF0qXLZs9t0Ef0A/J2xjamP+wj8tBRdUW7qodIqAs8D5vY3/4pAPduZdEX7IoBH11X31iGNygAGRBFmlmxewGgEkP5XEtzGQCOisUfd3FBkFddXlu3xtLCHhq8FTe0yCzwuK+HTYADP93nt7TB6LikBYO1rTgRkkYkvcTQgGFUWoAjLOrUr37asV2ZQB8zMTikh7b1rSxlgeGzdAaHfOO9ZgawTo1VCuL6tlWPxsk8sPnOrDthSYbZOrV9xKuK8zI0Mq99YWK0WZxFzWAetW5JDt13S3JkVzJ5KJk4nEztTSY5c33YtyfzH19P5q39WrtXHlmYrFywK7/0pIfnIKe9Jvseaxxc7IGP9GOePRPI39JLH9zb5IGdb8zHPzuZJSfemWakP9su6O29WUY3i3r78pUr35unP3FZJjad2XOoHWmy98BAPvO5L2XN6mRgXn+GnpcsWJSMDifzRpLx8WR0XrJ02Y4sXXxTBptfztDg6nZrccZPPza7jhzIoUy0B2nYjXDcnY8q8RGI3ptp061OdT9eWA2XvrDfu2m2cd2LNxbtP/XEAy3oRtU12nKvvvmmFrqOzhLPGrSKAPDu644SgULVa64PEsAMgCUOeBq0sxww5mrbnWFoixMLBqriVxpIw6TwxAuDzLIyT3tDbc9+2Q/tQzf005aZzbbiqO1Mgxu5EEjj7KrPsOGBgcLBQvo4eaZXWvg8I3dfTTsCRunrmMAnsE/C0K1DDO31njTHPlmqCT9TR7N76/05afWq1qB7HxrAsdX34rbOs6GMNsM5fe0J2Xv/t3svTcwcbL9f0L6ydGhn73hnXxW+8OVk2cnf6DmjxjHo7fnFJzw2e7aM9g6MYNg7mmRXf2mNEe9tMqWjK01mDjXZs7PJzt2vySe/cHtWnfxPaRZOpVnBsrlvnIuTgQXJokXJyWvekV97wsrsv/Px7ew+zRHR/Y/LJz67OctOSDsYDCxNBsaTJYuSJYuTcYx7eTK+PFm6OFmz4L6sXXxxhpv5GRlvcubjfioPHDiQff3zNkw9kzMTOTy5v30ldGpmqv04Yv0gv31pjMw1ZmL6nJhyAjM0V9Vl9sb2m21ZvXqhgwS2rMRVh3kfGrjaDavc9qQYmQAzcDi8ItWQax6KxdKgKhKGIHE19lmyRAKH1zE1IOrWtgqCfEYwBoI6GMgkMXRQ5mOritdHXuIlhhf5IMY4nKFty0cKeKZbL4VJzCXubh0cId1jo8BVTnYuj5MYNKDfi9cxu0tu/AouzanL8oulue9XqwTAlX5jj41O9+XEtLpr0315+EN671IPD7IiO3aaqf000MCCDA8tzOknnZJNd3wrM0e25OjRvTl4uP9YZ4aTX8zSnNe+NZ/70sez+vRL0yz6WhYtvysbVr4vz3vGquxmb4xXGmPGqAnslfVa72lyZM/qbNv2U9m167HZseNpuXfLB/PBf9yf1Wd8Oc2y6TTL+rMy++GFydD8ZPni5JTVf5xnPmltdt3+05ne3mTyQJNd+x6Vf/78J7PmIV9NM/b5DC39aIbGvpSxkR1phid6Hndm+YWTGZ+3N6vHvpZTV56VJaM9p9dPP/kp4UVQuGSs6r0KOtnOzBjzkcmpHJk42p4WPN6prdoH9jd9Yf5cZ8OxDcsd+F1yo5/otjqnnhBT1h0M0AWeTbdOMZwtOGZwvODQ8pQMG3ZOs/Dli6p8AOVfIKnPqSedNs4cAJdQYLN5Bw6vjOG4wRmEM4mA0w3nE20ZbRxxaA9c6rPx5xQYG39j4JnvSwgOSgjUt7egtQql8oGB4FCQBmIcDixrvWjLCMnRVPDDAzRwKgcDRrjAJDBAYJQaFfSwx+HbUcgBPgnw7wkvYCIfPrzPYGJbYpQHZwh1CDjtcKgxw9d6pJU5+JAhsGgLbBwub7vm6lx84QVZvnRhRkbwM/ACCIdD+o+1Rvge16IMDi/JqmVr8/rXXZKrrrg+11z3tlx13RV5/5+/OznCsc5PJHlLju77vXz7W8/K6970+Lz83Jfl3PMvyoWv/d285/rx7Lu3NytPbes/dvIxFEbO7LxvSe767svz5suvyKVXvjNXXP3HedMVX88LXzmZBSdubj3V7SMvltz9pfbA/GR8YbJixfV56lMels13PjkTO5twomz/zpW55Vt/lDe8YWPOeu3Lc+7r/ijnnPuRvPj39mTeqtvTrJ5JwyOzJVtzyiPelbNf+aq84dyfz4Vnn55Xv+KXc9lVb2uX2gyvE/1BmxXTO96Ojt2Yt11/Y97+jptaXUSmODDRFfSTfq1p7AiHbO0f+gZfDTriBIl+sfrSuQoc4KFfXHXSgBb6EVsgoLM46LARnLAMBqTbGZrGKiTK6QsWzpQYBw4mykBi4J6rerAZIQBcRyiVTUOFOZYL9YJJXv0Cp4IgzQcDgAVM842FJy7vxcfyCL64NEpxkk+eZaTJw+lQL/J5FEfQ8SZ/zMQ4qGjHSIo8WEb7DBt64BXD6n6PjD9pYwalnHqVdvmrMTzKp6folImxMJCbdSuMmh5d0Hum2vIyMp6B4QUZXch+knPPvVNhg0N8rI+BYyxjo01O37AmRzd9Ocmbkr3z2tl3ehcz7coc3PcTOXrw5zOx5/E5tHlB75w2szPG6wxNmiU393vX5DOf+rss3XBbRlbsyMiy72ZoxQMZ39B77NTOzszMGPPiZJSl9KLe8+UFS67PL/zCidl2z89kGlgcQGlhrsjRnWckh07NwZ2PzK4tf5HP/nOydMN/9mb7sWR4xZY87ZkvyN4Dv5pMPK5942viwF9karp3zp8Z+vDRns78y2c/3/oZhhu+Ed77Nw5Wcwzi6pW6Qt9XO2CbyRKY/kXuyBm/kZe2xL1pbICgLlmXmNlY2xBm7U/TfByhUbEBDDC/TlIb+jzYuiKDMUcc0ix9USaRk4aZCgvkLDUqLNL+Bxbl1FdBvSduFbCzXxQX5QbyeOYsDmICtEInafhVmN4Tz3Xh7KpLaehjZOw6z9hDW4860MFz6HpSDPgsr/FgV3rnMsIqN9KEueoBp9YVrjFyGxweycj4vN5XPvjeNR+k7x8SaZrRNAMcMSWwdRpIM4AHmDDUPs762dNOTrb+e3LknGT3WN9YiZcle9cn+zdkZs+KZHfPc90aL3tnDJuZ+WCTmYO9U2CHdz40n/+Xf82qh+1Ms/hwmqX3Z2DVnjTLDvYeOXFIBGMmLE0GV6Z9xsyBkVUrr88zfmF19t715OSBPmziXfOS7cuSXQuTPafmyJZ35T8+laxb/58ZXJIMspdedGue/oxfygPb1+XgHmg5Kft3vSzT01/J5MzeHDo61X7qePrIkXzl376Y+SN4/3vP50eHhtpv0eN3mcvo6FdtgaczyLz2S/1zd/SsOyjQvtpT1UP3y8DTnuxvnxARt9/0EzBICKzhUUQNCgDdfbDIbMM96f4L1rMGLXIZ8569sQYlLBxblKuExhLuPfFc9Wp516DBobCgs17cQwvlpJUHdSxjyaOhggej4llw99XGuQya7YCfLxIvZ97ZH8vbD+MHnNY9nkELg3oE7m3Tk81gBnn5YnA0DUvtdgDsL7eBP8i7wwSOfjKD98JQM5r5TZNffOT8ZMcNyf4n9mZgltFbi9OLmZIZmHyCzjCX24eaHNnf5OhB4lPzmc/fnRH2tSyrORCCA4x9M3k4wfqhLcfJRTlHO1f9cZ76s8tz6P6f683MzPwcSmHwEBdHSLe8PF/55JacuPrLmb84GR5Olozfkl956kMzM9k7ZsrJtCP7fyZ7912ThNN8nPnufZDhq//2hSxka9J/Ps83y9gHs1rDcNGZepGnbuGQVU96cu79jS31baee0cZAHoNF9/KDgMKsfYud2vd8xqudoSUEZH3X94OUARe5dUTGPfXNh6F2U16UT+WSKWJGEg6+c8kUaUYXBxHrV2cZZV1lxnCtW+OuQUur3sIuD/AhLVWg5FGGt9jjpeBBgBi0DivhYdD1ayfQy0zMyxnCpy4zdK1XaQc29NdOo1zjtPNsY/6iRTxPPrZK+f70UMbG+68S9p1hnIRqP6070GRwGENmdh7PYDs7I1tm6JHWK/6knxrMvgfenOz7zUzveEiye0kmeFuKfTIGxbJXo8KwMXaMbddAcvCEzOw9KYd2PDwHd52SPTt+JZ/+9Jez4SF3Znzptgwv/XbGVt+WgRXfztCyOzO2dHPGl2zO2NJ7M778e+2SfHDFzjRL7s68E96cn/35M/K9W38r2X9ysmtlZraemGzdkOx8SLJnaY7uOSm7N705//qp7+WkDR/MvAXfy8Lxe7Nhyd/kf/3y6szsH27337ybPXHg57Jn7yVJvpUpvlfMNTmZf/nUP2fR6HAWj45lHi+uDAy1y2b8JFVH0C0CuoWucPGxDnwZ9gF9xmCAjagHtqsxZRW29uX3zYCnTQGTwMs72km7usaxhMOFzTYbb17F4oQRm3QCJ5Pw+gJcgkHKx/dxDhE8qaJDCONT0WSKexQcZWXzL07ag5c9Zddgn//857cOBxxvOB5wRjDjWQ+GxENaXF2DRsgI/C//8i9nHQvgxbHmKTkdbMiBfAI0QhuOKJbO4iNmye0ne9teTNrHVtVQoY09L98KAxa4cIYB05Nf8EV46Utf+n3v2sKnvMonsWn5ZZB8yUte0vYXThbg4XBEXgT68JWveEV+/8W/nxVLlmeUT+li/LxUwWMr4vYzuC7DWXJz/JMw1MZr152Qq665OO+44cK845oX5k/e/uh86ANNDmxZ0Bou+9lpZki92Rg4y9qdp+euW5+b97/7WfmT617Znvq64fqX5qZ33pTXnveenH3uB3L2ue/Na1/353nVee/Ma859d84+5705+5z3teEVr3xPzjrn/XnFa/86Lz33L/PKC96Zsy54fd72jovyzpv/KDde/8LceM2L8s7r/yA3Xf/SvPMdL8hN7/zt3HD92bn6imvzhy+9Iudv/GDeuPGDufS8N+e9b1uf7B7o7b8PjGX/zqfnO9++OO/9i4tzw3XX56Yb35mbbnxbzj/nrHYgmzc4nPGB4fYDEDydoO/sS/pTvTFGrzglpux1HNMv6BT6RTti4FDfAAzLdb6iL3xvz75WB72vcev/YqZRQbB0jmWi/HWkUGGN8Q4zG6NIzqq680EAHPIdOSACxcTQKKcdMXjJF7953vNlQx1V0AReNv7Cpb5tTBPPZdA4M9zjW1e6vDcWP+XwgTFTxj2B9PH20A5qwiKWX/N47OSJBk+6AAAgAElEQVRnk5ApIzMvV9QjrNYVnzG0SR8xvOKIq99VYyZAXsQOxEcnDuW2W7+Zn3r0wzOf/5hqZQcv42kGe0vxgaFjS/B25sbY2+fUzNTPy4oT/jVr13wzq1d8KCee+Lz86q8vzj33/GwmDjQ5tL/J/r1NJnxb6lCTqT1NDu5/Uf7+E3+W0x9xYdav/vucsOrjWX/S9XnB7/9GbrvzOdmx/VnZt+MF2bvjN7Nv1zOzf9evZf+uZ2bfrt/I3p3Py7b7/3f27fiD7Nj0v7Jr22/n7u/dlL/72OfyuCfemBXrPpSFK//fLF3zwSxe8+GMLf9gFp/wkaxY856sXvtbedpTfzJf/c8LkrwuRw7+YQ7u/N0c2nJyb0/PRxX2jmTfA6/JP/ztX2Xd6jP6W47ed8GXL++teJDTGK9P9nUNXVDn6SPkr17bZ2wfeVLibEw/4IfqvgprXxrb3kGcPkd3tC37vdZjJaBu9P1fD16mzXVSDKXjVJUzNPc6zwRu3DVQ841rOYKoRMqYBHJSTJwKp3uIBLjWFwdwq1MMeoFTHW+0oZ7Cs22F9YPKPBwCbC+W3N1P7AJXOPLHYOCjMTqbZRf79O572NJIu0oX6V5ez1tdD6BAC/C+/5rOvffcmg2rF7ZOrsWjQxlul96L0gwsTzOwIEPV4agxE48uTdO8vbffZW87mows+ts84WlPya3f+7kc5eTXRM+Ypw/0D44caXJ0T5N7Nm3MB/+/fRlb+d2Mzk9GFiaDY4fz5J87Oft39b5O4pdLWo81e/H21cm+w4sTZrwrzfL9QJODD7wsn/vi0Sx9yF3HHGd4xPvPq3njij354tXvztN/dWn2bH9k72Taof7JNU6tsZJg4Dkwkol9N+XfP7s9G9Y8tf3r2wHeAcd4y9dDh5vhjA0/+E8Z1Rf6lkB/mMfATB+os/QFjjLqVF2gPnkG21vHmPzuoEEb9IDg8n72I4HVsLrPb13jo3hcxkzv3ZkSOBWxBNW8mpYBCfPedvVP6MCLgBAWDMgEbaqgZL4atDw4A1ZhkBZvN7beXPkYdPdEmQb9w2Bi0BwQqZ3Ooywdb1VGpOeSDzj4I3MCS0H2+d/3tzetcbMC6P3d651335VVy5dk3kCTpaM97/VA38M9MLg4wwO9v4Ht8tsuvZs3zRrN4MKjWXzC2/Izv3Bq7rrjZ3pHMDGU9vFRfy/df5y0Z/sr87n/3JKVD/tsRhYzECSLlt2Tpz7pzBzyiyUYLZ7w6lTb02R6b5MDe5rs2t3kCPvz3U32bnt9Pvn5g1l04td6B0Zwqs3xquYJ696ep/3ivGy9/xE5Ci0YNDDAQTjU5BCHUra/JV/87J05ccMTe3rQbkOObd+adtXC10SP+Wta2Rcj9t5+4zw/ukr/ukLS861uoOOka+jKnTJhGlNH+6j1qTtr0BS4jGCGhpB6QVx3Cd66yPvLEAFXIyMPRSQ+HgG2s5z6pinToKHFmZrnwTCnICoe4VHeNWgGhK5BW3+uGPhz5ZuHEwqDrtdcBq0MaGeaZZuPvJQrM7YGbV/QBnnQzrY1b3gYeQ22z+tx1iAjPgDIx/WPXTM5Onkk05nJph1bsu7EdRkZ7D2OARYfK2j/UmZwQQZbL/dIb0/dOsTmhb9+HWpnrfN7nugFydDymSxZ99d59OOfkdtvuzhT+3jZ4tGZ3vSTyY51PcPGy72jyeGdr8xnvvS9LD/5Mz3DW5iMLrknv/RzP5lpX5/E4DrG3M6ivBt9oMkeZlPq8FminS/Lpz/z6Ww45arMX/nFjC7/r4yt+FpGVn0rAyu+mQVr786ilV/K2vWvyq/96snZse3lmTz8hBzccWqObD8j2b28/4ZXk317mmzb+sb808fvzJp1v5GmWZtm9IQ0HLJBt/lzPXjnL3cGj70E0Zb1JxLT6i19hwPViY9+oF84Um3dGqvHXX0TnnWBax1iyrv21rfJBysN/5zHhhxHF5t40zoAcApw8ghHD6eecLh44ouZ5/+v7j3A8yqu/P8rverFsmRZcm8YGwgtQEJCYAOksbsQyJ+lJlQbVzA2BFiSbCAJEDoGY1ywMX3JJpsAYUNooffQuzHuRbYlWbZ6/f6ez73vVxreyAlJdv/Pk/d57jtz586cOXPmnClnzsyAgDM2Mnbdyhx77LGxAgfFgZU3GJFkMm143Q6EoWEBJ5RqtrqaMmVKfH6188Cl8Iw0IKobJ+aUKBjIEwUFijbyDpV/HFgPvHB7ImUx4fC7bBiMsBxl+OCHUGHNRR62hsNvPYXTMs+2YhA6Q0/KE55i4nJQFirPtKNHTrZUztZFF6EAO0cXX3xRvJ1u3rzEiu2aa67U3BuxLLpac+derbk3Xq1r5l6m7/9olsqqGT4zrORi9HzlFZXqrKnTdP7539dsFKEXXajJs87VqVPmaOqs/9DsiyZr1kWn6dgznlPWoNa4l84fLJVUv6GRExZq1sW/1HULb9XlV9+sa674uW6bWy2JteAoXifeUTNdT7/4oaomPKUs1pPjofH7OujgPbRjfXqDBj07WnGEmqE1aZmPb4nUnRbmdobn9Tnqrj9IK988VT+74FBdNP0MXTB9ur4/8yydP2uavn/eTM06Z7JmnTNF559/oS66+Ke64qprdcO8a3XD/Jt09fUX6Ze3j5R25MTDcE5GaWu5Svc/tFbDRl2iAWXnKYr2Vk5OsbIRZD/c+BHrEv506AsfmI/gHxRYbG3k7DtkB8UXPIu8YGWGvFDXlhlcP/AK31BqOo4V0+ZvywjKYSuLiQtPx2eKOaKZFhfmcUJ/x3WrQZzf/OY3vYoXehmEx7dPwrhOb9dw0Pra8ox0CASC2t/urXD4754M172102KFY4YnH/LPPOfbLaVx5T30gwM/DAes2MrEHdgOoyK9Yypsja3Es6DT83rDhgXatMh8d7jLkPkd4R41anR6uYwlQxqsTq1evVJ77rlXYsrJVsj0kbUJnEjZqUhZXL7OOWG9o6pk9DRu4u5a9cknauE8bbXF19c0dnFjlX+fqKn7WT36nDR69/T2xDIphy2KuStUOHKVomGvKG/oRyoe9JC+9Y1hiS03glkXaXvNOXr6xY9VNf7JRJjzpbzKlfrSV3bXFkxE6XnRjLP0RRr8FmwEnZ6ed4bLXhZrq5A2VUs1e6hn815S3V7q2Txe2rGbuuuq1bl9H61ffZ1+c/9KlVctUX7Zq0pVrFRUeq+OOmKY1JKKYXXWRNq66UL97g8tqhp5j0rKfqUoOkp52UXxfVkxrRBk5tNcnpc+Q4x6gQ94OJ0k84dll+UJGExNOTOPNWx+8K/5I0zbXxhxWbZy3q4/lMPwHd/hORTG8ZlijoALohbaUEAcx9+I57VkEDIiVlgRPxMBwyCtjxYCGQsqljR8I53Thvuhw4KbKLik9zCcPCAymsFwgwX5hD/jS6+NIPPuOBDdS0/gAU7G3fBx6XXdQ5PWMJ0PsPn58H3DAKYbBYfZJa/+vkF3vlEnzJdDhRr50LCgOecwOx4fhp/Vu55sQ5L0ElUhB/ol/jHjxqtmzSb1sEWSLQo9berwZoxYql+T9KiefVmqHpcceI+xRz6GHgUNSlU1KapYq6hsrXJLHtAhB1do06q+5av6mtl68sUNGrHHS0pVSNkl0oDyDTrowD20nTVsBNhzb9zY6istyLwzLLdQb4vUzZbL7fTchWrcVqq2xsHqaqxWx9ZBUt1QddeWqnvHeNVt/LkeeuB9lVfcoYKSdcotbVJOyaM64uvjpaaiJN9tkWo3XqL/ebROFcNuVEX1EkXRob31neueGRfruoAX7Pd2x7BRpyOiTs3H+OmwzGeZvGKe2Vm4j/YNO1o6T37mW/vj/dAhE+EPGQhkjLzj8Z1WyD8jSmvllimzQQhhhD0vMEgfaqAd11svMwtKIUxAXPaa0go6HXmHF785vQvvd+Nvl+8op9hSCYywQkwH50EP7Tl0CA+/e3vg2YjE6YDDAy0JCyuJ9zCe68Fp+BYKNHlRfnro8eN3STcGwEi031lZGDegb8hXKspVUR5KryxFBXmK8nOEwmf02ImqWVOr+NY4BLq7TUKgEeYuDtZ7QNJiPfm0NGR00kNnYZJZkGxV7LW7LpGKKtbr4EMmat2qtPa6IVLD1vP11Mt1GjrxFWWVSVn50sCSzTr8oP21fVOkDnpdemkeeuj03DvujblRg4MCGYITDwGnAWiL1BbvsorU2hYJM04OGUzSJHusd2ydpiceWamy0udUWKhYw15Y2qRDv/oFNQEHJR5Kt/rL9PCjm1Qx5DoNrFqqKPp67/Cao4egfSo3RznpJVfLgOuEpVDXvzsHZAPeof4cj22RxDMPmkfMe5aD8B0/8bAUQ64sU/ABGzH40TP7By9EZIwwgKgTGAm/m8n8zvfMDRYARcvmQpDG6YhvQSefUFBNjFDJBk6kZR2aHggi0BO7N3cBcCmwD0wwsXEhqolHQe0nTQjH+Rum7baB4bK43KGAsTvMmy6ADZ7G1bDAjfVllF3AMDzTN6SP6RXmQbwQD96HDBnau8+Za2G7u9u1tXaTRowY1ss8xENZFqdPry2zjpqXHamoBGuxPEU5pYpSJRo15nPagEDHv8DskBFGV70kDrx4WE8+3a6Jn6tXcXmNBlStU0HpNhUi2CwTVUjsQS4qW6l/OmRXbfZQui7Stk1n67lXNmnori/HQ252TRUX1+jAz++leuJZu82Qu6Faqh8p1Y+TNk9U54Y91LVxglQ/QardJbZQ62moUNOWSF0tWWrkpNDWLLUxJG8foM7aMnVuH6j2pj1Us+Fn+p8H/6jhQ27VgKIPNHDAJg0sf1DfPGI/tbTtq7bWUrU07qPG7Qv14G//qOEjZquoZI6i6IB4/lxUHMX3VEPDLA5OjJJRknmMcB543j/4jB+KZX+3y+iVnwU5k+/41l8Y4fCy4ZhPGHJn/uDDCEsWJtVM5pmwe4dTyFhHH310r+WLJ/Wh2aMRYfIPLCb3TOaZ7AMPZGBoI8M3lGu21sKPEskWTuCCH+UCigUUcgsWLIiVC+EtERQIAoXHCEFwGgTKBVxb3qCkQFj5WbjBG0Ma8OY7+JAGhRVlAH/Ki/Ih3LIIbTASQMkBbqS39RB22oZPXhi0sDUShYnLB0zeyYMH+DyZ7w6Dpjy8//CHP4qH8SxR8WMOvWPHNl1yyY81cyawZsQ3M06ZeqaKi3OVxRwQ004O/S/M0aRJk3XWtHN11vQ5mjbzPP34x1eosSG9yyx9s3vrjnYtXbJUN918rRYuvlqLFnO5wEKdf94dOvucJZo+805NnvK2TjiJoXdjcjBfGSeErNVhX9lTdWv6Titp3DRDz734iYaOfy5ZN8amenC9Dv7yvtr4UbrXxcqsbpzWrjhR9y77jpbMm6xb5x+nCeMiXfrDL2j+DafrpuvP08IFF2vhgoN1z12R2raPVAe9MuvejQO0de3RWnjj0Zp7w/d09fWn6Nobfqjrrl2gOWdfr9nTFmj2jIWaM/s6/ejS2br+llN0zY3H66Zbpurm+Rfr8p/9QBde8CPNnPlDzZg5SzNnTdIJJ39HuXnuYZMbReDlOXNmx/VAfVCH8K2tvsyj8LcFEBd+YQ7NL+xMkvrrs+UO+cbfcNE5GR78zYOex9Zp8CB8i14rYkLtloUehhYHwQMJA6GnhPkRnrCLz0QQhIgHHH7AtX23C2aYuOTjcOzFXSBcHojg3poGgSfzRBXiMYcO4eLn4DzDd15cZ+M8wI+1YJYYjAMulYZJpxspXJajHI844WjDeUBkem0aOtMzJkKG8o0wYIIH9MTlCSua787fMHCJ43guByuM3V3JMmN7e7Ivm2WqlatWaJddxiiVQ11mqyA/X7uO31UfL/dSW6c623eoeQcXy3VL3Ije1qSOlla99sd3NWL8PopyqxWlDlBW6mAd+MWhevedk7V583Gq2Txdq9b8Tk88I43ec3lscBLPjQe8o8MO2lNbfDxvQ0rbN0zRH558Q0NGP6ycAcmup6jgI31+/4naxvyY3rUhUvu2k/SH5+7S0DFnq7z6bg0YMk1RSaWySw9WUcUlyi3/tfKrHtWAISfqX48q1qaV+8cnhTLUbtk6Ss88ukijR9ylskGPKK9soQYPn6Z/PfJIbd6wUM31U1W/+Vht2jBbv/3d4/EGj+KBD6qi6k5VVn1b3zl6T21Yt1j1dVym92asHHz8D/SKKWWzhMWUJSe574ojfk17+ByFlTs/8wJ8Cp+YdxkBZ55EEipPXd+G6zo3nzAaDuUR2DzOB97jPb4Kx8BwYUSbR4YAQgWYMwvdTETC93AoTabO3EjZRVDBwUMS4DOvNtImFvNvmJq4/CBqfwJtuLikpTzMqy0QpEVQwyN7iUsleI2YOORDGowFDNM4GbbDaQwQaONGWfCH79AmpE9ciEDzSVzqIUzrNIRT3gQmggyChpC88629vVVr165WdXVVmt7Z8dlh1dWjtHE9V7DS4HJW2HapjbPCuAeaITZa2G6tWLVWA8fsqSiHwxqmK4ou1iEHRaqridTNHLY9Un3tN/Tcy09r8Lhnk62NpVJhYa0OPegQbf4kLz3vzVbjpml64YV3NHaX3ymvsCuee5cN36IjjvqctrBs1ZFs8Fi38hQ9/qo0YFx9YpFWyRG939Ura7mo7uFkRxa7sSr/R/96zBGqW3tQMufuooceoscfW6sivrMsVsEe6vt08OG7qWHrQQnOzZGatkd65IlnElhMFzi/u/xaHf7VXG1Y821t38ZtkL+Iifrci+8pShUl1/6kb9z0FkhTHKFkZ5X5AT7Db161H55CoF2PTm++2Nk74fABux0N07xm3oOvLVPxAQcwCY9/9IpEsv0xgNCygQwI4MJUoWA43C6w8KNG7285CgT8gBgFt8kp8PlREJRs4MJ3HvyZy1HED3dCEScsdOhHoIFr/NBoowBzS0pcW4DFkdKCRsWFZpnQJCQwfvK1wQhlD38hfcNw/ODvMttvN4QT+kmH9Zcvbk+PvtWXLbdPrvn0zRlZeRo5chetX7NOamtWd1NzfENMogBrl3pQgLVL3Y1asfJjlQ4fpSiX62hPVBRN05cPjLRqBUPdRCFVV/tdvfb2FlVxphj7jUulgRVNOvig/bUZQW2K1F0bqan2HD319LvadeLjqkAzni0Vl2/W4d/YU9u4MQMFVXukbZtP0mPPrlX16BWxeWhu+ROKSvYXTQwLalHRUkX576mg+mf6xrfGqOaTPZI8dkRqbKzW08+uUxnwsRorlAqrlumr3xyvzZsPVGdzFFuLtTUP1oOPPp9sxUwf/l9aeZmOPnKkmrZdoIa6Uxngxo3k08++ld4vnvR+8AYHHPjn+qCDoe4tVBZi851Hc8gBP6czHNyw8WbKFsZDzjzkDnnO8O2S/zHHHJMctB8yOTbaIAhijvzb3/62N/9MhDwEd7iZkwQwsk9AMaxQGCx8IBMq2WgwSMvebOIjcE5vDXmIc9jLmoDEN5Gd1jdIujAQz4JKXPJCe+0lL8pEeWiYfBKJYRkvl4Fw0rKUxc/4UQ77nS+uhZw8Qj/vmY9hhLQlDr+2tr7GuA9+j9asWanhw4fGa9JJXWZr5PBxWr1iXaLBJnJ6Na+tKd1Ld+5QV2ej3nn/LQ0aM1JRbrGivMMVRd/WAZ9PaeWKCarfOlDb6/fQ+g0/0Uuvr9P4ff5LUclryitbrcHVD+iwQwfGgh8fZrAt0rYtM/TUcx9q9C6PqqxCyuH0zeL1+uphJ2nT+oPVuKVC29ZOUPP2m/XEsys0dsJ9yit8TlUjrleUqlKzmrRdbVrbwoEHi5VbPlNfO/wwbV51sdq3fkHN23ZXzZZ/08OPvaXq4R+poLxRWaWvq2zYhfrGkXtrzbpp2lb7BW3bsqtamibrN49uS44jSivz8sou0VH/OkZbNl6m5oZrpJ7X1dEuPfLYC2mLOYa3ydSQEaN/pj9Lq+YJuwyxQ/mBJ1GKuf6c1rAIh+f5IU98N88g0D4dNIRJXrybx+HHWKA9hAMYgBBoPvIYQZQ5KI1Q/DARR1EVPkzKeUdhBQwYEETo2fiGcgmFDlZY+K3gQXmAIgjlAr2nGdu4oGzgO0ok0pEeay9g2hIHfOIbItI9M4XMxN+FR6A9d4GICDRGHxDFhKEyiMfPFUAaG4cAy7TBdeNHo4OlHIoy6AQ9UJahKMFYJfxRWVj1OA4u5SF+f0/4nbPcqHRo1dHRrs6uRDMdm3d2I9yJoG/YuFZjx47oZUqUYuM4/G/1FrX3XfMUXwWzaMli3XTzLbpx3i2aO+8W/eCSS5U3sCy5uyqFVrxSQ4dO1E9+eqWum3ujfn7t1frZldfoZ1fdpPN/eKXOnPkDTZ1xqc47d5auu6K091bJnu2RtteerRdfXakh4x5JNOLFLG9t0sTdF+nqK2/R4pvn6borrtdVV16jSy+7TNPPnqE5583RzFmzlVc8UI3tXfEKGihvapZSxd/TbrudpauvuFfzrp+nBTddp5tuuEpX/vxyzZp1vs6dfYFmnH2eZp93oWbNuUDzFyzTDTfepmuv4TyuOzX13EalsFgr4CTRHuUPuFCHfW2cNm54UG0tH6izo17tHdInq1bq3HOnasa06Tp35vd1zozZsbXXtdde06vMXbx4cXwxg5WZ8DG8evLJJ8f85I4IPnEPHfIBStpQnuBrtvgiO9SxhTqzhwYePG+FLbKBH16LDzgw4+JaoM3gMDDWXbQyADKSFna7fA9NNQ3TQwgKAqL+ZbZShBPmdLy7tXIamJgeH6ENWytwAjfj0p/Ld3resNGgMWNuHMJCKL2+HOZrgQ7p4nzCvP3ddGInVOaKAIYhHuobhl3Sh71+CJs4nHSSbOygew2H9thwQ9/Elnv16lUaNowhc3otNSvSmOEjVLOhXnQGiH6n2vXeqo9UNWa8oqIKRcWVSpVWqqC8MknH3VXZjHSAcZwKy95XUeV2ZZe9rvIRP9WXvnqg3nhrhhobDld74+FqqDlYrVsqpK70clR7pIYtk/TcyytVPeGF3hNJcsu6VVS2QdXVH6mqcr1GDFujYUMu1EEHDtHalceqdfs+2rrhfI0dMdBVoNYWRiNSc6uUlZqkwlIUYK+rpOQ1DSxaqsMO3l21m/ZXT8sIde04UNu3zNPvHvpAFdWLlVP6jorLP1ZuwUsqq2oQ6+iFA6XSsmZVDj1fXzp0qD5Z+0o8++gMbJA6WrYr7q6hdGd3bBCVykn1bkqintAR0eAjfOYtdE6mu10vW5nvcd3zOg4uSmnHceHDZSvHRdkM/zpfcEC+4svqLER89DDXjAkA/H63S2F4YDjCEAoy9s+FAzZwQdKIEuaH+Jl+wkjjH4jyTrydKcC8lu4C2zW+uMy/TXxgs6Tkc7kdj72nCL4bH1yG3Ag+cRwP+JTdNHB+vNuPSwPx/vvvuygxDTA24UAHxwthOqw/l/xoIFjbzvyxfMWadGcXirMOrVy5TqNHT1BWfAoJOGXFt0+uW7denT0IdLe2tzdo+bo1Gjx6ouJ7quJjh5IGIFmrHhSvxSZ7pycpd0CNUpzxNXClSof8TF86eB+98+aJ2lEzVj2Nu6izYaLUXBZrruO7qpoj1W2coqef+UhDdv1D73bHPI4EKtio0gHvqXzgRlWUfazxo3+ow79crs0rv6bObUNUv+4sTUCgu6RuVtVQAHZKLc3SjlYpyv+pskueVX7JCg0e9Ad97asHxFsl2bLZunmIGjdfpScfX6uigfOVO4ih+CYVla7TwKouZRV1qbiMmyqbNWjI+TrkW2O0fO0zaksLc5da1cMVnR1STytjg2Q4jIUj9eL6wrVhCbxtnsXOIrP+rOV2HOrP8ByX+vUxvnw3z3MkteOQJ/FsKRbyATjEl9U5E4SQFiJMbOQdZgYOwwnjnRYHAQgFNDPD8J14FhzCQ6Hn3d9DYkEYCmR8cMMeNgzHT1z34Ggk3dAAk6EwZp5henZRsWzFD7rQCvKEGyeAmYlDf/kSByWb4ZEnZWLvc3/7pqEhD+lM0xAu5aCH5iyz7u6wd8bQi965b8i9ZvVGDR/GNbCsobJbKE9jxo3Vupp1cdm66Z+7W7V6/UZVj9g10ehykgmHB7IMksUG/8r4IIS82GJqslKl7cqvxI5bGjDk1/rSV/bQqg/2S5ae0H5jJJLeFRVbdO2I1Lp1qp5/brWGTXw1OS8sV/HtlIXlUl6plF+WnLk9fMhCHX34YNWtqIy1191139KYipwY13iu39EjTvxva+vk7g590oCC7deKShqUM2CFvnbE59TYGKmrPorP6+6om6Y/PLpe+RWPJ3NmlGDZUn6JlFsslZRJRUVNKq24UoceebQ27eAeadQK0BU6dkucMdaBWg5FVVs8FSsoKOwdQVFXDKXpJPhZjvozLKEnj+Gnlb7wAsvBrl/Xe2ioAt/xyxR80jCShpfCHzB7h9zuiejKrVhyJu51/A5ADymNEEKBeh0kAMzPwhMKLeEWVNywxwyRw284oZ+hCwwPLs4b/CyUxovvhFuY8YfmoPS63G1Fz+vpBC4CYwswKogyeB3adCBf/MbBAmh8cBkxEM5SlpVs0AH6MGS2Mo64wDHeIQz8ho0LfnvttXfc47e1tfZuk8RiLOnCEre7mw0bq+ONHLm5OcrGWox90+PGa/nqT9Te3aIe1p05G3r5Cg0fOiKxhsryiZ/c+4xAJ7vnCuPNHl9Udt51Kin/QLkFazWo6iYd+OX99dE7J0mtu0qNg6W6UdLW0VLdLlJ9ubSlWk01l+iZp5Zrwj7ciLFe2WU1yh/wlgrL31Ju2VvKq6xT3uAaVQ27Qv982J6qXXWMWmqqtHnlWRo7vCq+OK6dZXJKmObf+g6J4/5f3YRG+wpFJTdrv8NGqGZ7tdpaOFhhjBq3XqaHHnpVJVXzFZV9rKh0s6KcVSoc0KU8zFS5pbKgR4Vl9+uQb1ypelbu4p+FpFVdHVskNUsdrepqa/3BNZ4AACAASURBVI1HeJ86BCJto22BhlfgWRS81Kn5g3qkR+WbZYI0rB6Zb4kLT2HE5Tjm/9/97ncxH5g34AUEml+mUEe/+MUv4kPzUcYsXbo0vo6FBM7AQHBhUly+MTTgHKwzzzwzVnixpc/rt2TijBCKUCnEUhEIkh+KoUWLFsWT+f6GkQmBk3+EgQeBDpkfghx//PExHuCAlRnKMxQUuCgLwBNFHHlyQx9Kq9tuuy0+Fw2FH+lQbJx66qn6t3/7t15lFUoP4qOcC48hggbQiMd+8GCpj/TkbQUJCgt6ZCrHDQSVyYH+4AZe5H3cccfF20ChLbAQXgxVWFsknssFrijJFi9eqMWLF2j+/Hm69dZFmj//Ji1efIvmzZurRYtu0a23Luxt8OIzw5hL5xfpmrk36JaF83TLzXO16KZ5mn/DDaosK1NhXolyspNjd6K8bGyC08PwHOVGWRpaOUYnnniuZk2fp1lTFurc6VfogvPnaMEt/655N56m+fNO1qL5p2rpohlaunC2lsw7Q3fMP023L7pUN994m0497eeaee5/6tw5d2jOnJs1bep1OvucxZp67j2afO59Onv2zbro/Iu16KbzdduCM7Vk8SUqLauKK7+9R2pKq19auztj4W5Ve9yXvrFGGjzx33XU6efosgXH6+r5x+h68LnlYl1z/TWadu51mjTrP3XG1GWaPuN+fefYRhVg4FKUPPnFr2vU6Bu0aMHzmn/TjVq84CYtuHmBbp53tebP/6luX3qTbp0/X0sX3xpbhVHffqh/NsVYdlBK8XCDqwXVcbHBh5dQfsLz8D7bZuFRHs6EY+sydY0cAtOKUrZGAgeBBy787yE8eiY3KBArMlNmImBE7MJojksYhiAW2lDw+vO7hyZzfuxQCXs74GWuL3v4EsJDKLzmDC7Gx7uyiOvGA9zcwrln9HzZZUJofHeU84E4NiKhzO5pnYYwcOex3988XHe+hhnSCVzcAvPdcRktMDoAlstG705P6x9wiIegO09c8PB76HdYrxsfBAhDJvHjUz8xCR0wUCUlg5WdVapUbp6yvM0yhpsdbyXcbfxwNdS9KrVerc6tR6qj7hq989qrGjnuh8qvflhZlQ8rVf0LZQ/+L+UP+Y3yBj2gsur7NKjqLO3/+b21avnV2rL2BG3b+B211Z2mnm2nqXPLCercdox21B2vtSvn6ek/vK5dx/9EI0bercrhsxQVjVBzu9TaFI+21dnNtTzYl8f9dTyp7m7u0sfLezTx8zeqdPTDiioeVTTwXo2YOEcHH7qvNm6cqy2bztS2rcdq66aL9MQTHcrOa4gvtcsfIJUNfEzVFacrKxqmVJQd27ubXigDU8FRRMiIeY44f0lmiEP8ndVJOF82T9iIxPlYTsxr8CxwrWSznODCS5+6fdKM1J/rQtr9S9ZjZkJcZ+ow5h0gSj5G2Bs2HKc/Fzihcor0tFaZN006TwpogWGoGyrUSIsAhgow0jGC8MkhVFh4TKrLvjOXLZVuIBC+sNzGgzxCv8v51wg0rX2IAzTIvBUx/J5sq2TozQiLnVg5inLYddXX20RZBUqlSpWVnaOsPEYe2YpyuDmjKN6SOWFcoVq23YP9XmwF1r3lML363GuqGvdiMjfGSiuw1PKtFwMq79RhhwzVlhUT+uba7J7CDpuHs8gaItVuPkOPPVGn8ur18ZJSqvJFRQV7qLG9W93NbepqbVFDQ12yG6x9s07+WrFOPzzSKd+KdOy/RJq411XKGZy2FMPApOxGfe3rZdpRM7F3jzU7tJ5//lfKL94ez6NThVJV5W9UFO2nwqhCeVGR8uJzyZORVyq9wQVapnJye0eovMMbPBbWnblhPZjX4T3CMZwyL5hXGK47jWH6HddpPdd2OndgEZm4FyLyzh6AWQjxY8P61/w8wSdjChIiS/4INHH47h9+t1yE4bdNtQvGMNcnaHroQToX1LBIy64s54tbVVUVCzRE5SEOc2svUWW2wE5rAhsHExqBzjyDm/zBxRVnfDLdzyrQnIqSKdDkT8tN/YQ48p6Tk0qYICtP2amS9I0YnMedpax8bp9MmCsW8piZEXpu0KhWlLOroqzBysvP1/hRnKvNJX4XSi2D1L5ttv748nqNnvBsor3mtgsOyedBsEsUD20HDbpe3zp8ojauPDA+NLCHE0i2J496SlRbG2nrjkjrNp+thx9ZrdGjVquUOW7lU4pSY+MjF6BVS5OUyj1ID/zqRaljvU7+ZqTf3sZ8eZS21H5Rjz2zSnmYfRYn9uIlA3+mf/5GlbZt2j0xL+2MtKNxvB574i0VFrcpK5frZWuUn3ep8rOqVZri8MRS5USlys0uU2HvLSOMZlAqJtNN17Wnn5YX092uecNuKDvA4B05YMRm3oBvQ4F2XuZDYAEfl+Vb5MV8TlrgxNsnwzkpQDIfI+VwgN5///2ZPPln350xBcjUpMOMaAYdB0AgSG9JfP9YZrKW2ziBi4frIWEMw2G49O5OR1k4xsWWZ3ynQfAtGRDcwxuXuz83hOc157AcwIXwlMNEd3lC97MINHDBL7xGxzixPBbi4vA+F801V96kBRg3O1eFA9Lz5ngYzhncGJKUKbdkoqK8cUkPnRNpt7ET1bQBVdT/SN0z1Lrjbj33whaN3f2ZxNzSAo1QIdSliUCXld+hbx/1Pa1afoG6mr6o1rpd1MLZXq1DVbs5Uh2HALZE2lR7ul599UXtOm6xBg18S+VDFirK/Zwau6VtOzgp9GTlD/iZsrMOlZpXqXHdRfrGAZFat4/StqZv6pGnV2tAlVQ8WMoq6lFF5RIdcfg31FR7gbpa9lRH2+dV33CBHnxQKsW4pbhVxWXLFEVfjvm9AB0RwhyVKycapLJS7vayLBT0NoQ0kIRbyPriOG7/LqNB4oZ15GGz+QBeeeihh3obZfiPfCyfbiyAg1WYeYr0pOWJmIRjxYXSZWcPihgm7rhM3olnTbCR+UuuM4SpOUcLOCjUgEv+LO24hzWsX/3qV7FiAAUWSgQUBQyHQ6JQOLZKWtlg13NpwyLfzDk0BjNYdqH8QpmBsglFBT13WFEQEmUXuFo5hZ8H5ZfDUIABgwd8wZsHYeUHDcDDP979+2sE2nNt40ilm5bGi7rimTplaozf1GmTNePss3TW9Mmafs45mjR1hiZPO1unnHFq74Z+eubcvEEqHzRUZ02bpqkzJ2vK9O9p6pQTdPmPfqCeuu1S92qp41m17nhHTz63SqN2+22fQFuo6aFRPJVKRYNe1257L9KVVz2gW2+5Rovm/ofuumWOHrpvkBo4faQnUnM9N0h+VZ98cJF+dOHROmfadE2bcZ6KKsZq03YUPbOVV36fSoY8rCh1ip548gWpY7kOOyBP5079lm648XbNuqgrPhElPnihoE0FZc9q770W6OabHtMt82/UkkXXav4Nd+uCWVJxLhe/P6oo98C48Ro8YLCmn3GmZk6aoqlnzND0KefrxBNOiXep5eQz9eBmkcQs2HUd1j0yZCVsyA/EpQ74juKW+gobAi9lmQfgB1ZigE06YCEbIWzC+Q6f8wt5CH/EEBMPD8y2s4fv7nlCYQkZ1Ihluk7r3hbBJYwhLukN1+kI58ewgtaJlooeEwE0E5s4CBvDH+a6xCHc55YZHi552+abBsGtXQiTfBg2h3kAG+UUa9j+GV/KwMOPcrA+7PumwZuHtJmWZ4YTup9VoDFK4WL4sFFjb6yPQwIf1yHw/d4VL1N1qL0nWTNt6+pWW5f07gfvafS4EcqLr8kpV1ZUrM/tNlErPnxJ7U0fSd3r1d26QepoTi5Qxs6iNZnKvvh6i6p3efRPBZoemp463vnUqSj3A0Vlbym39CkVFDyuoQMX6dtfz4kPKuD0Edasu7aVqa1urFq3jFJn3Z6q23Cs/vXIImWXnqhU1er4AIVUaZ1SJXMV5e0ZLxG/+0cpK5qj8gEvaEBls1LMnTk3nPulC2uVnVqhrNy3lVf0mqorXtewkhc0cuAaDch7S8XFZ8SnemZlRfqnLx6orqYWdbU0q6OFDSrS4489GQtfbkEyouG8bpaeduzoOxcM+oa8AN3NE/CwaY/Lyo6H6eYvemjiGYb5wfxPuGHwDfj8CLOCGb9/+GPDEgfszHUiu46X+e7wP+eCpBEL4xl5wtxTozyDccNWDaFFUHAtlPhDBodgHko7D4hkgSad05q4uCEM+51fOCJxuUPBIR8f42uYwKCh+d8SaMrA+du+itY4MqLgDu8/93O1221XR2wt9gnr1WPGKcouVm4ew8xsTRw7UvXrP5a6t3PFQiLBHH7AvmsspzgmuFt64x2pbOiTyRw6PcyOh9sWZg+/B7YoKq9XVLleqQHrNXDgo/r6odWqZVcWhijNybbMtoZ8qZGzwYaps3actm4+Vv/z1DplV26O91IXFNSobOAiFQ/4mt59R2pvlFLR5RpU9rEKSzvi+XMOBivl3DTZrsKiHSocsE0FZVtUUbpV1QWfaHDRg6oedKlycvZWflopeMBee0gdGJJIna2JheJLLz6v3NxU34H7qax4f35Y99Db75m0z+Tx/sw33UMDI+T/TFh+D/MivjvI8HvvdbJhZEew628WRrcg/v5Z3BAGiPDOg9+FN1y7LG8hHAiwhTAURITNwuPvjh+e6e28bcxhQQjT4gcGeeEPGxGEEk268TTxDZfyE0bv6Xk6yjpgsH4d7pE2DNKE/s/SQ4cCDa6Ug4c5tQ8OdF2EuMV5kV/6I1ZiXeqIT/hcvmK1Ro6aqFTeAOXml8Rndu81fpRqV34kdbRILTsS28uOHVJXk9SBkCcC/eZ7UvGQuxWVt/cqwuJemaG3hRpBR/uc1oDnVCJsPfrygV/SZk42QdO9PVLHVvY1R+riOF+04E1RfPbXY8+8pjzSF3J0kVRQ/I4KyxYoin6qKLpduTmrVchGC3ZPYQ2W0xkP9fNLsfnGRJRNGFJJiTSsbKOGll+mKBqonKzkSCbMWr+8337JVlIENDY5btfzzz2Z8FZObmyUk1NQGF8na+WueTSTzqY//BDTPd2roiMKOyF4zAcMhnzg9P25xAOuYWfGAZfIH42YEc6M/Pe8G2HnFcLytzDMPXR8PWZa0BgOw8TujfFbIC2EfscNtfCUiae/DREhHASQfAyHbzyYbzKkNa4mLC4Vy0PZ2G0WLnkBhyG3tfDEgc5mBspsPz1v5voySjuWwUjjh0bDc2iEGZxJt7MeurfxpJ/talOPetTek5gUkv/KNRs0ZOiY3rVpcB47vFpb16wCOamTnRwMMzGk3iQ1bpDaMYVs0tvLVyoacJyi6Epllz2vgorVyuOOZw4PiIfbabeEDR1NKixvUElZnUYOf16Hf2Woaj6O1MMpnzWROmu54jUldZerqyZPPdsGqG37P+mll95S9ci1KqYhGNSkgooPlFV0v0oGPqDyiseVX/SKsovXKSrrSPLFtLNSwrS0oLReucXrlF38horLfqlBFf+hKNpTxQUD4+uAClm6iyJ97ZBvJvtcutrV08mUpEMvvIDdNhZ2NPAJr7HsyY96NC/EARl/TElDXqfuvM3SHQV1x5TSP8Oz/Ln3JS0/w+MdnnF8/I6L0jhico0CB+sUnsQKaXFszcJWPb7ZAuZvdYFDPj5DzHBQRmE1w8NwFSSNMIXAQsvKBxROKAisLaQiEG6ek046Kba2QglhpR1KNhcamDQSWPDYug3XCgf8KBt4gGE4Vhhyxhg9oInrSjCuDqeXDZe8qDQagyuuuKKXhqYpZUZhZqshFIXk4zwpBzeBotUOy5Ep0DQ4CD4CDR6OSyVbkUidXjf3Oi1YsiAeZscMEgt4uz5ZvVbVw0YnjVj6lMtRI4eqZl2yb7q1rVPbW1vU0VynX992o/5z4VzduWi+lt12na684WKdMeMCnTxpkSbN/L0mz/xAx35Xyb3PWGJh912+UsPG/krHHf+wZk69T9PPXKLzpl2muT8dqmaG3NiA10Zqrxurdau+pWWLD9Diecdp8U0n6t6l03Xd5ZdrxlmLNHnaf2nSOffrjOn36+RT7tWUs36paVP+SyeeskQnT/+9Dj2uNemhaUhy6Zlf09jd7tGJpzyjU898RDPn3KvZF12rSZPP0nnnnKnZ0ydp9rSzNfOsczT3mnmMnZMDHjjkQd166aX0BoteY5woPkGHI4j4mc6sxLDtkXpEfuBtrC/5UR9+wg0W8C68wfIjaUiLfGDByBl3mT/4iu/ANv8gO9QvaQmHl1AiRwwnAW7hsJ9M3XsR9vc8hgPM8KG14hsP629undwahctWhKEI4BgYpwMn4DG8pqUiDoJrhYGJagLx3a2Zmd8VQxz8hPMDnls/FIf+uYL8HrqsETMKAC/KZPzAFz80RjHCiMLvjhMqtoAJLuAa5oc/U6BJj0CHprPgjRluvE88lSyzQKfho8fo41UbxD6Htq6kp165brUGD2XftJezIg0fM1TrN64T+z8YprOb+/U33tXuI0drYF6JClIlystJ6fP77qb1a7dg6qyWtm41dkr3PypVctwvl7iXSPkVv9KXDjpOnyy/QU21J6qj9jtq3fht9WzdXWoujOfPrduyVLf1eD31zG0aN/FsDR7xa1VU/Fojq67SEV/9sla9f5K2bT1OtVu/m9xUufEEddZ9V2qcpKYdp2pTw+X670e6VMA+Z+66itCuL9O3jv6u1qx9U40Na9XRhc5A6uQPk3cKhk6AwwUwRVOXujpa1dneqo7WVr3w4gvJ3dmcyQ3fZiVna3d1kjj5UR/MjT1CpC54fCCg4+GywcJ1DbzQ73f4A8VbyKPwM6PNcORIfPgrDIPHjjrqKHD9tJA5sjMhYn9x/towMzOIZKblG0MSmNgCZqGGaPzsWoscEsRDWschPkwdupnwyMdxQvhxovRfCC/0h3HcSNAYIdAMuSmPy4g/LLP9xt/v9ORoyfkZ1zAf/ODQn0CjFCOtGYG49NiZy2+Dqkdo9fptvfzMFsoVq1eratjw5DCDNONWjx2h1TUb4r4KpTbs/u7H6zS8EpNT1mRZCcjTLiOGqnXTKqltk9TzvHr0ot74WMqvWpMMuYulgVVX6/CDc1S/emxyFrZ3Y3Eudn1iYNLcEmlL/ff12DNS6Zh1saaaYXtJkfT1gw5Q48b0UUVoxNPnacfKNHZ3NUfa3hTpod8/pVI2XBRJOSXSoBFX6+tHjtbWLQuknt9KPe+qpatNXcgjrNGd6PZM484O9mn6TXr51Zdji7n4ShwEMIrizoQY5lHqAxsI16XrHAOmzDpEoOEFx8W13+lwmVdn8prvxQrTEzczfXqKmiiA+BgyohOErUCY8V/rd6/qdG7VnA9DkpBYIUEs6BTUdtbGFYHwklImIQyP9CE8wmF+CwAucZyeVtF+XPtjBIPGJfOdOYw10C4XeIKj8bVrOvjdV+uEOBu+XfDIFGhgM3RjDu4fZcEGnPCcVCrOO5VboCEjxmlDTW28qYFmEh5euWqDhg4fqShFw01jm6WhY0dr7eaN6lAPRwnGAv3exx+ratBAZWUTj3lllnYfO07ddTXpGNhYN+jtlRiV/FipqjeUU7FJQ4bfqG8esodqVxyRHIQfmn02ReKooo7OSLUNU/XY0xs1aMw7SS9bxAEELTr04M9px9bEPLQtPh00PUzntND0zRtNDfvq8cfWqKxM8U6q/Io6FVfeqEMOO107tnMiWTJMjndgUnAEN+kn4r3hplvsdtFwdun5l56Pe+WUe+idCDSjQwuW3f5OJ9mZQJs/zA+Zxibg5HPLws6VdDyM+Hz+X3xIoJkN10BDFyT/3gd4hu9Ch3ngRwvID2bM/FmgEDSIRSNDg+BGggLT24aCGMLiGzBCoQ797qmdt/ML8SAsDDc84DgcYWPobCF1GcMymw58owyuUKzMOAgBXIyH8zd83EyBBg6NgW3ISQMMNOsMufPy0gf8p/I0atxuWrl2NWoxdXX3xL3V2jU1GjZkmLKjPGVF3LqY0oixo7RxMw1Ejzq7UaNJq9evU1kF2ylTiooGxe7EXXZRa+06qbNO6tyhjo5OvfLuJ8ofsr+i6ARF0aUaMewc/fNX91Pd8kP7rrxh3txQppaaA9VQu59qGw7S6vXX6fGnPtbo3W5X2bB3VDJ4pQZW/kaHHrq31q/eTXWbJqpt+5FS60HqaBiUaMIRanrsjmo9/9gDGlrxngaUf6jsEqzMJunAA6erBX1eh8R5BYg1WzBZdWOVitlyY5fUQhiFJE4LcTr1h2eeUpSbijdnFKR1C/BeZ9zFJzVDfTDktqC5nm3SGfLYzobc1D/pzM+20Xbd47JhgzxCvkKQw3eEmmWwyBHNaOwAQRGF5RFKIlyURn/vE1q/wICZzO7NGRDJDExh3HviZy6L8ihUZoFfOFS1cDotrn+ZcJmjo8BAqYCCAYUDygW01SEc0v/3f/93HA8lxu233x7HRVHBQ1qUFFiZMZ+FliGxTVtoTcXRIGE5RDlMF18MACxwwGW7HWW2gIN/pkADmzzpkcPyoUhhi2av5dK0GbroR5do45aN6uppVk887pQ2rl+nUUOGKDfKU15UouwoW2PHDFFtzfqEbMnMRWtXb1R51TBFKUwYixRl52nE2KG64cartHTJQi1avEjzFy7VD39yjVJFDM3HKyv7CyrI3VOHHPA51a/651j5xRIVN0luXXO2bp13s26ae5fmzlus626cF293nDHzHM2ec5HOPuf7mjb9bM0+d4pumfcTLVm0RItvWaq7l03Wb+4botaaimQNm0P6GyItf+NSff+cpzRt2vM6fcoyTZp8pWaf8x9asuA2Lb5lkRYuXKIFt96pWxYt06LFt+mWJUt0w+IFuvn22zVvyZ26ef5S3Tp/mZYsQDl8m/79P36gKD8rHmoXsesqSpRiFmjXCTYGbH9FPuBFHpSgHv1RJzw7U4pR/zwoQ4EDD2XyHgchUM8IvhsNNyLowCxL3KYRz6H5SESkHCYCoBVLRtxC8be4LhRpmWuiNAAJI4XfWyAz88ssXJg/33hMPL65ASBPWkjg4dpPOD/S0av5Gh1woNVj3dgHFjodQ+nwdg7imrgWXgQVe2q+8XgY5Hdc4hKPnhMtPPD5gSN3anGKCXGchiUvlFumH26mQIMHc+VQKQZM486oBfiMe1pivQKacGbG/Hq0Yd0qjRk2VDlRSvlRsXKiLI0bVaX6mvQQnlWcdmnVxys1ePhQRZxq4svPuT+ZIWmqWFHuIGXlVCq/mB1a0CBLeTnFKsoZoAP3GSe1XaGu+hFqbyrWps176YXnH9Du4x5RdcVKVQ56XdXDL9bBh0/U2+8dqfptw7Sjcagam4/X00+/oCGVv1NR7ouqKPmlqiuP1JH/UqitG/5FzVsHqXvHALXVT1Rz7c/ji/a6OtrUJUxtt+ulZx9XaWGucjmFJbjEL1YA5vbpOaL8AmWlcpSXnaui/CLl5xeqfHDS6TB3zsX6MC8v3q0H1cxLCQ3/9J+OIvxRbztbtqJu+G5egA8yeR777pDfoC/vuHQcdBD46YxjgXZkAvvbFkmG/MgUv9/thsgjUGE4fqczIZgnGCHy5OnPECRTWIFl2BCCH+8xwwYKNccJ8TLBHEYcTl308bzGB+Gwko244IBAE89xcBFM8HaY/RZIwu3nG34aMFwaDR9LBO7gxhyY4TrfDZNhuEcfxptlLOIB05XpeGYOx7Ub0wg6uTHr5FQZ7sXq0spPVmjEsGHKTeUqm+F0FGnkiGHavGljem02mXN+8MFbGj5qYHzvUyqP+56Sh/ipqEw52ZVK5VYpb0C1otwSRbkT43uicrOGat+JlVLzk5LY0HONpKv0yguP64A97tCgokdVWfaMhoz4oQ782uf07ppDtakxUl1LpPrGb+jllz7QuOHvaVDByxpRfosGFh2sr3ylShs2Xa26+u9LWiSJY6aZyyueRnT1IFDNevPNF1WQn9bepxuZeG05fSxvfPBDLBjEoTdOniROotmO647pUU5O72H5pituyIfmc8LhG9ct70wpgeWHeralmOHR+DotLrLEkzmsN38YlkeDnG/2mQSaXtWIk1Ho590C5EL43a6R/EsCHcIlLU8YBpzP8gvzDeMDK/zG0NrrxiYOPauVbKQlDeW3QFMREDAUPKclzH7ckPD24yLQDNVcNuiCoHL6hUctxMNgxAccENeCb8MS8iA+8NxDh+ULy74zP+lGjR6tHHqs9KXmI0aM1MZNm+IGoCvdCHz40dsaMSIZgbDpPzsrUm42vVdKBVkDlYoYivcN/+Ltl9FeKsofqn0nDFPd+s3aWtOl9o716up5Tcs/qFFV6RzlRTcqK5qvwrLTtO8/jdfyzcdqW0eBWlWpbY3/ppde/EC7jH5NIwc9raEDLlNO9CXt8/n91NC6Ql1aq041iyOKkh8GMyyyYc3WqFdfe0a5+X1ClBx2mLzjD5+w3uK6i7+HjUGyf9l1Bq9n/kLaO55HugglfEO9+vGpI4Zj+fE7MHhIa96ya3zDd5a8PpNAk1FYABgr/IUFIdzvLhTvPDsTaArIWdhhfOC4gC6Y4TiP8D3EBz+tnVs88jXOzoM4zDNtDgqBEObMjRgIM0MoL5dBQIY4FjwTFtfEtetvvBOfcvY35AY3lrzQkLvnJw1z49AOnNaaaQJDc5gDmMRnVOGhuWlDOU3vkE4uv2kCfBoIYBlvGhJGDIZB+vfe+0CjR3Po4KcFBKHAjBI3P4/tl+kL0jnpIweYedp3t720Y4uHoaii6rRyxToNqTpEUfR5Rdl7x7uedtt3jGpq6cmfkvSspPf02mtvaFDVN5Wd9U8qSLHVsUr77be3mlqYEtSru4fLARPLt47OFrV3sMiGsHXp6aefUl58WEMfzr29b1COsEyZftMEemPZZTmwa3pCI2iKyy/08+55cAifHpWfYcQvwR/hPNhokD9pwQc+CuHYf8QRR3w2gcYCBYsUlDUojlAAoRzyQ7j92xAucwAAHZxJREFU4fc77rgjFhojbAbLHHKDJOt5fA9/EAG4IXzeUUrhkheub5V0WojKfm2UXY4HDKzRwh8Cws2QVmhgnYW1Fr2lf1QcpnxYbXnLJ5Zk3/ve92Ltcn/EDcOYl3NeGArGM844I1aacI4YeZgpyAuBDjXk0ASrOC4WoLymPUpBlIpmNCqTeChTKCsPcR3fNHI4rpV6fPN5aWYY4HkZDDoyLMfdXFOvCy+4VJPOPFuTJ8/Q6adP0mmnn6pTTztJk848SZPPPEEzp31XZ511vKZOP0lnTD1W35v8/2nSlCk6e9rFWnDjXbpzyX/prmX/rUUL7tZN8xbo9EmnaNK043TmlCM1acqx+sGP/l3xvfOxOjqpgZqajTrnvON05lnH6JRTT9TkyWfoJz+5RK0tnbGRCLdcoIZvaNiu25ah2Fys25fdoSVLbtcPfsDZXmnDmrSm+q8VaAsL9KbxN21tGQYNQ37kOzQ23R0PvjIsuzZAsXxQYhpS5AY4uMCG95wm5C38NOjgRmdEg9NvD+1WxkyNDSsVTkJcWnO36LgwrTN0HN4JtxkczLszgSYuWsCwYPSMtDjAB2kznAvhd/JjSAJ88OahR0XjZ7xIzzZJFBPgEDYc5MPP6XwxQCYNgEkDwENeLAuxewv8MolsWhDOkN4KMMrHqMF5OF9cBNyjBcpkGAgvcAij0sIVAsfBRahDPKAPD2HhAy3Cd3pjK1UMD6VduK4dE4j+sK5BrS3JUBMrsg6szTpZre6Mr9BRD2s+SFjyS+9E1IsvvaVdxo6Lr7SN88jK0a4Td9eqYIdYe0u72lv6GnT6uZa0yXl3bN7Vprb22vhcsR2NybXAcfvP6b7d0quvvK7iIi6EKFBuDieu5qm0pDzgm7CX/tv9GACZTrjQ0rzIu+vONCYMPvS2XOISh+8IdMhn8OKDDz4Yx+e7eZ+6BY7rFH/mQ71yEmi/Ah0KFlWD9owMDMQI8U64C2E3jOvrX4G5M4EGUZ86EgocQxJghQJNnhTUefHuNWxwhUDACLXSxscH3odETPPen3XcWBg+Lr09c17w6K9CTRuGzT4NlXRuEDIzRHvt+XxYNuCYCfD7CfOEPg4nbSZ9/A3XwgtNTJfwO36G4KFAuwFMjgvuwxzLSQ7t5+HGy05MKJNT/ONe0yYF7328UiVlrHEb/xyN23WcNm9Nb/m09RbDTww7GLKmB84Ia/JjKL1NXT19hiJ88/f33/9YhYU0atAisW7MSfWdtbazsvbhZNz6d6FpGDd8D2GHdZcZTpowXTiHNo1Zr3Y+xKWecUO4fCfc9U6dkhfr358SaALRchu4SeldT3znAbgz8DuZ0IP4G+GEsSjuH3AR7MwhN/Es0MSF6flxOZiRNzzeKWD47iUv54PLqMJxwAn/m2+++amyhYIaprXA8z38EW7cWF5giAxRXWZwy3zoUcP5bWZjafgIdH+H72fC8zvlMXNYuAlzvThepktc0yXzm98zBRqcTZMEX46j75U0F0E96XuqY4kMPq9Yu1oDKhJjlOTsshyNGz9SO5qYBycml/G5C70ddI+aO1l+8i+Zl/LWiYVI7LappaUhvv6H20Jef/0tFcSHNFAHnKOW1EWf29chuZyfxbXQQDPTDdfhmTAcx+Ehr7q+/C0UaHpn5IPRJt9dj5nw+EYd+rthgc+fKMVI3J9AxxYoGYIEQGdm18BxjbxNOkF2ZwJNeqy9KFTIOAg+sMK8eAf5kInDZaa4sjs7e5VYIU4INFpH8MgU5jDfmGPSyopQAEOBpoe23Tb4Gx/j63wzNdBuJIAVwmYOHWqvnT5TAKGFKzSzUp034Zk04xt4Ep7JjITzOD1Dbi4D8A+c+27qYFrTGd/U0dmdXCSHSWV7n/TFXWxXegkGA5a3l7+ponI05PRy3OSRrQkTx6hhO1f6dIjdIvGOzrTcdvfuCUNh1MWpAzEq7RzQnf7F4WpXRyda7R698867ystlaMpJMX1TQJ9J7vKZrn+tC81DuoX0DWETblo7POQN05hv8De8GP64fQYYhvNZ8UTe/mTITSa0EJnMjUAbucwMCN/ZN+LaAgykdybQxKOXDfOF2W30ERLk2GOPjRVMKKispEJRhGUVSjAerLd8OAKwSc/owbdKmoDkhwUYCgiUD3fddVesiEC4EiZOtIzebQVOFkLi+Ixw04R8rABD0cYthFgAoXgCNnihLMF4xxp44OGnh77uuutixdkpp5yi7373u/HB/1geoUzjASYu33EpPy55Wl/gumAYxrZS0nCAO3HxG1dcMw3fsSjjO8o7zlmzQDMisZ4BunmIaxp2dHXFHTLyHMq0v3f1tOiDT97WwOo+o5soK1e777Gbtu/AAITDEvpSci9XE8YwsZgmn9qaG9XFEUhiCbFTmzY2aOnSu7V06TLdeecy3bZskS677Gc666wZmjLlbJ15xlk69bTv6bjjj1J2cK42ZWY+imWWrbpQbn7729+Oedh8ZteChQs9KysrYzpCLx5o75tm+E486E8jHtYbFzhwI4bpTRwaB4bIMU1tH9DREd+m4To0HvCu68Z1Cc6UhzjAIs0/jECDLIhjiYUBCgoqCwQ9LoShUMShpYK4IeOaMD6DGyalcWHYTKNBGoiNi/LCRh9mSruhQLPkxdq005IH82WOKnIvjEEKyjMfegBOxGeoznKRGzA3Erikdbjztet4joOgEcZaMvN54EMrHpbAGOp7NAIMdmDR+xLPzMXdXoQDx/DtkgZagQ8XzCPM7lA6MYZO/7D2RiSZoPSGxkzapZ7uNn288kOVVZYm69ysYeekNHG3Card2reakMycDTFxMZvuk3XPqqX331ut4qLK9Hw5GVp/8Yv7q7GRWyCTtD093XrhxT/0XqdLmeELpmKsWkA7N1R0JqYHLvQL30nLs//++38KQegUznkdjy2+/PjuuvRasnmRuOim+G5+IQ0jZL6BAzxNQ419t6d6uDzc2Q6OwOMh/j+MQJtQCEN/PXk41yYOhSMNBHFaCo+whcyKUKKpdnxctOEW6DAuxIb4CXN3xstxCI0rnnxocHzhO/FhGBofz43BjQehCi3AwgolHT/nhRv+/G5mwaU35eBAwwcn3hFUYLsBIE96D3B1mR3P8DLzcn5hOP7urh71BBsV4rDMSLz3KL4Js7xycN/+4qxIu+46SvW1XBDXpa54WyPTrT6dBVr0T5e8Qx1d9WKt+bU/vhVrsLk4zj3w/gfsq46gkSHrp595IrZoMw/ADwcc8IU/GeYycgv5JqSP00JTX/gOrXj4eWuj6Uk8Hy0U0o6RKrDCfNxDx4DSf+icnCdxgcfQnB95uoHl0EHiuYEg3j+cQFMhzLVDQiE0NvqggBAWQpgodgkPzwWDQFiKMWyGKLSExKGH9oGArrQ0rXsrkXAaA3rasIIYknnHlIWUk04QaOKRDy5LRfTcriTDd2+KG5YRv9/tGjdcBJW1Y5cVF0HFyozvTkNPTmMSjmBIB47G13GN05+6iBmq6HZ1szUpFru0oir95kvlPG7+ePkqVWAbjaIqi9FBpAmcW7Yl6aE/Lbjk2KPODIVkd3whXyLwr7/+hoqLC2NhzcuPlJsXaffdd42X1UJ8EdS8PG4MSXpY6M/qR2Zvh54H3uI7PGB/SE/CEWjqxj/8pEWYSOP4NhiBlm5Q4dswHnyAQIfwgMscmryART3xWPDB2/X+yCOPxHGASdx/SIEGcQubiQrBvERFoagUE9YuxOYbFexhFukRaF8nayJaK813E9tCYWLyjV6RZSYTlLxIaxNM44fRC4LPd+JSkQh+uJS1MyHKDDc+wDaz4Gc+z2iBPNxoMPxnSsEPGhEfwSVv0wV8UMQRHpaNNJl5MeROfrgoqVgk7lBb+/Z4OyYLTRw8yK93UEE3q259uPxtjR4/pNe0lPwnTthVtVtr47hhRx/vdGtvV1dvfkmu4fD75Zf/qBzvU05rs8ePHxcbm4TdOkpQ1qazsvpObWFq4h90QUgQSjdy1A/4hQIKneAP95RhvYT7oU1XtllCT2joqSF5+Dsu9YRWGhzCX3+XwNvmm7jmX/fk5j/g/UP10BAUpH/84x/3WtHcfffdsTILhQ5KJBQHKCpQBqEEQsGDAolwrLus6DEBmX+zxdAKDly2NN5www2x8spWQCjNrBgjLRXK/BgrM/KzogIFWLh+S1wYNBxywzgoZi6//PLYoghlGUoyWwWhnPNDvlbYEYafeDy2/MJqD2UaeIfl4FbNTMs4enLMRKEjTAUzMFqgEXKjBc6U9Ze//GUaj2WxwvHee38RK6QS2iUC3dhUr2V3LtHipQu09Pb5unXpXC29baFuW7pMty+7R0uW3KlFSxbq0ssuVHlVnrLYnZWej06YOE7125IGxxPvxu3tWrr09ngr5pLblmrpsmVxme++607dvuwuLV1yj+668xeaO3eezjzzNJ162ok6a8ppOvPMU2Ol3h2336M777hXd9/9n7rrrrtjRVkomOTNiIR6hZbQDj9n3dn6DxrCMyi1UJh5CzH8hLWXecL18fOf/zyOj+KLtKTjtkjXHXWFH0s+8wouPHvRRRfFdU/9U5/gAz+CMw0LPM+DwRHfXffEZ7utGxo3EP8wAk2hzAi4vLtlwmU4E/5oGd1C0qohuGEPhECGPZDTEofezqeDOh/mxr7jmbiGRWvpFpPwzHyIR+9nAxRwN94M8d0buExhGfvzI4jgZHqQnjB6Z+b94EK57IY9CfgxBAeXMF8PuU0DXOzFbbUGHuy53WfvfbVmdbKUhcKJ+eqHy1dpzLgJSd143ZfeJzulVBaXInCbZaFyi/os3+LtllGkXSYO19Z6btbsUE/6TOx33vhIu+/+ORWWFihV0DfSwlY8hb14evPIfvsdoC1batXBkSvxaKJbb775jgoL+zaHYPKZm5vVuyuMYTd0yxRw6sM9JfXFA93gG9ez6ch8GY2zG0RoQ+/pIbxpiKIMuGFeKLbC3pg68rDZ9Uq9hBc/AN/8EuYJXPjHYZQL/z+MQFMwMzF+CuNWjPdw6yVEdQWEfgtw+M0V4ErknXhopSEkROKhVw2VXa5o4lOZpOHxHMcMwXfm2ggRcEx4cPZDOcgrLJ+/4RLuh/dQGB2P4TUNkctm1+XzO40Lm08MF5e5NmanLgNxEXyG4uBMHJh4woSJWr9+o0HGF7GvXLVZ5RXDestifHIoD2ePxbuvAmEOyj0uFuiVydAdBVOP9OE7KzSoYnA8z04V9gk0cLNJm2409tprHzU1JXahTGnRhC//6BMVFvbdrBILcLoBiNOnkmE0Q/BePNPls4GHBQ5ahD/TDz5zWrs+bijkCRRg1Bl8Y4G0htywiJ+5pdIw+3ND/jBfOp55tVegnSkRvA4dMrktxQwAN8zALZGZlm8IHfEee+yxmDYuMMQK14gN0+vVfHevZ4MWYDk/27UaB3DnQAJ+CJQJ5gpxJTl/wonDu8voCiScIbJv2CBPykSeKNT4Djzih3gatudLvBumTURdTrsuD++UwY+/41qgHDesJ3/nG8Nm1rFdNlxwcNl5x890wMYrbhhIizYc3MGZMiLQXt5yPowC6uvq1Zk+9ZI59dvvvKeKQcmc3BZZxj87Kye2qeY9K5Wl7BQNE3wTxXPpXXYdq20NzKG7EgUY2vBPVqm8vCKJz62ZKRrVTzcIubk56QPv29XayrJdolJ79933PnWlLvEyccoUBOPKOXXhz/VruuFCT1ZYgGHa4Uep6obcMIhnnnWdES/8AY+DC4zDztwwP+JYrvAbNi7xegXawIjMsIICgaR/tuU2AMeHmQjDBSBP+I3w3//+9zGTmMFxadUcDxcYKA0oJAzFD79vqTQBged09vONtPxIa6GLA9KM7LzN4MAOf34nrZeynA/w0XxjjWbcSGvhxR+G+91hzE99iIJpZdihS3lcppCOtPKO5+9+t8sBBwyTnSfl5fE7OPGODoG4pHMjzJAbQXdDBS1Q2DHXJh55QgNGGdu29e1Wa2tr1VtvvqEBvbdXEjel0lJur0wLbrpHTmWnlJ0FnyQP/l3HT1BDw45YIOE1TDo//OiDuHEiPocNuHzZ2fBV3zv809KSnLqCS1r2sDOScJqcFMZEif04/jB9b5w0v1qJBZ34uUPBH9IwXK82DJ/waR4iDY2/N2M4HmvTxAn5hs7O3/9aN5RF/J8SaDMKgYz/KURM5PTQAwWOrZKY+KMsQHFgJQCTfL7bOsYucShcSBgK5R6afJ03Qmni4RKPrYPkYYUD+QwYkDBMSAAsm1BWoDRAWYHSIFOJBQ7A5Al/KH+Iz+OzwWBy4EMPBArmtxLLiglc5szhD7zvu+++GA543HPPPfHh6YYX4tyf34JsmhAHazPTADqg/IMO+P0Ny6ef/vSnsSUaeNniLVTMgAtKFxQxKHpITz3OmTMnVvC5AaAMCLSH5uAAPvTQNHauI+iIBh9YwAEeijnqPiwbac18+P2g+feuM2CRP1MCFE/AhJ8oNwpOYBIGP1F2ygrtjQt1QFrHIR2KUG4MNS7ki585KnDA2XhjaegRiht9hDrkKfwoZD1FcplQePKNB3pD/5/85CfxqM5xyDdzaE6Z0XtQHvAA5/4eysTjuicu9Z0+gzum7Z8IdNiNM+TmR4Y89lNQFxZC4ue7iZrpki7s5flOfCqOOQvMGxbY82C+Ox9b9PBOeiqR0QJCFqblnTIYJkJP62cmBQ/jFxco/Qc81rAtSCi/MltWMwS9FJVJXJgDIQ0PHwA+vTFLaO79SBvS1rB25gLb+cB4zG9Z1zbtcCmTf64fhsj0FM4L2gDHTOx3lugQVtcb8ExrwyQMbThD8RBPBJphvWnq+KELXJYGTUMLr/EI30OBDmEw5bFwEY5guczA54Ev+BHub7yH/AYMlKWZSiaWnhwP2MBzj2w6A4sOBr4yHXFDnoM25hvoTlzCKKPDcUlDGPWzs9+fo6nLZ9yoLx7OCmBEYvzIq3fIbQTIHEGgkOEPAkKEMJwM/CPc77gWQL47PIzrHjpkmFBTTRpgUpgwT2AwdCGdiWsmCWHxzQ1EmB4/j/GDeWBypwWW/aHrvAij8hBYhqQwPj8Tnfkyw2vTM4RhwjuMvIBLXB78hPmd+AgVwgrOpqOZ0fTERdDI1w0JMEIGNI1oIBheG1/DxA3rl4YpFGjSM+Smh/aPNIZDGO88NEA0jC6ny8W78cC1QBtOWEbg8c6PPKgvfsTlxzd/97cQF+IgpDQuCJrzBQcrp4jjNP3RlJGq6Ug68wB0dX25jIaPmxnX6byGTV7k67Jklof3P/cjHY+H6+Yr8ukVaCMGokQMM4NgLrDDccMKyAwHIQtNf8hROPKEACYaAu1K6i+Nw7DFNb6kp0C8A8cExY9RQfgLcXQ4Qz7vQQ4FIIQXwnW+uPRCtgozYwCP5R5XopkJGGHanfmJhwIOwQRGKNDG2eXwOy4CjRLL+Yb5ucIJ82GCYVr8ZjDXmderwROaAtcCHeaPP3wHFst70IZ8afyMk2EBj8cCnYnLX3rP5BEEFxxcBtcFcOAp08J8EvaUbgycJ++e46JLIo3Th+WgLLybNp/lm4fc4BfiCO6UKbNcxgnX5QvjcSwReIT4fUqg+QAj0ZV7CGKgrjQTABfgfs/MlHeQBo4bA4eRhh4aYoCQH2u5M/MkH+cPPAjjNLjAseA4HALTOoeEAy55Gx9gMe9C++h0uJmVY+HiGzTiIU/mmDQapgE4snQUrt+a2C5r6BoOcB2O34yHn2E9jYbLYdc0sut8nRZ6OG/g8CBc9ND0vvxCBkLfAGzTGQVb2ECAHwJNPpm8EcKCFgiRe2hoF5YNv59MgXbeLhPvpi11hp+8TQO7xMtMCwzCLJSmAXWLWabLYPjEtbD4G8pc0kFH09Vw7IZlc1h/LvHgW+z6nQ/4k7/f8bssoWt6uEz+xskm5BXi0CvQFBTiE+Gyyy6LlTkoVlDw4PJgqYKihyOFULDgokjCf++998Z+LLeskMHvcCuSSA+hrGl14UEqc8jtgrji/H7hhRfGiiEUQhxWj7IA5guJTiWEJ3eSFoKxQ8V4gx83/aFwQNFwwgknxEqJY445phc+4TwoIHygObChFc+VV17ZSwNbrXn+SNnMDCHRCaf8EJ88UdCg6EKjj+koguf4zJFuvvnmOA/qAvpB00zaUjcoSlCqQBdoYrjARrEErVAUmWHNIEynoAvwoQ1KQhQ84A6u5g0EmikFDOW0vIOPlUHwA1ZX6DCoD8rhsthv1wINQ2fWMfAJ54fijXqCz8CR/PCTF3xl137imndRAlJ26hC6sPWWd76bN8Gd2zkNm3f85AE9rYC0ws20BQ7fgQ2tefjGwzcexyUet6dyNh91B87kgwsuoczwPfMhHmGUkbrh/Qc/+EFcP5Yh3F6B5sWEDyP8b/udh92wN6RH5ecWKH4J5k1+txsyge+7Al8zEr2nmY80MAjzTOcJDggPii1gMdQK4zsf0sH0KIX+Xnq43AguGk7ys4Axt6UHJQ83rn8uPzcsxGFozloyP9PPrsuBSzkJt7Dg0uvSIJKn8QvzNS6UH9vwkO7kSVnC+Jl+09su9YMf7TA6DH70wOCV+aMRZhML9WQ8wDFsbDLzC9+xJ3DPZ9g09E5v12nAi7x4Jy30Ma3CchvWZ3FdD+RrGgCfUZTz/Xtc1xl0/dQhgX8P0M+a1pnbDQvoZSsI0MWm+cA1UULXFUVYOK8GF+CziSOMD8xwqyTx6HUZ0lJpMBVumMZ+BDrc0/xZy7uzeAgBjGr4uMyD6QWNf39poZdpx3fTD0uxTHhmxjAPaMDjcuJnbZqhvRvCEH6YB40NSrEwLXlmHprXH96EAd/fyANlJDoH8IP24BLiip86/vDDD2NtrsuOENpvITfcTJeG3rCNd2jtZYG2C16mKcozcDBeIb9l4vnn3p0vHVYmfv8b78YXWHEPTQAFojD/148zt2tC0iqysdvMZuGCGA7DHz60mH73fmgTCPgQ0N+BQU+IjTbfnD/MSE/O97DinQ6XfDZu3Bj37tDHedj9LDRzXLvsSUYYWDYjD3Ajj1BB57jG1Xj73d9x6e2Y94Z0cxlC+pkO/kbZVq1aFY8MXBchXPwOBzcLtNMjbGEP3R8tnD6EiyACjzKDA3iF9Wn4lAcrQE9jgOU6wM+TSQ9/Jz/mrZk08b5k4sF3wHBjYxrzDT2Pl8/AJxOOcfxLLjB4XnnllRj3EF/85PX3PpSBHj8+U8yFCgn+f+UH8RC2C4f7wAMPxBVL5cLoVDAPzE5Y+BBOi+kwTERDRRB+tPX+DjwUEqw5U3l+6JmoYGDxAJc0du1nWE5jYNyNN++ZZXIcu/0xHUNcRgYuGxXO8tTee3PgfF/PS1qev5QP5py+jwucQ9pQdtMB1++mISMZekto5nycJ+8IH+/0WIwiXDfkQWNoBRhx+3tMK2DYD80QaBo1ym46h3jiJw8EgSkF6Q0DF7wsCOTrb86DOmY1xTQGHnmxIcICjOt0wHI48BAO4puWdjNx/EvvpOPBysw0Nr7he3+0+yxhwOBhtMlxSNHpp58eT+5PPPHEWHGA8uD/rweFAvmiQEApBgHNaLg7e0wkf7/00ktjBQR4owRCGWEtt+MAmwPLydNx2O7IpgvHAS5+WmOH4bJ5gW1tofIDOFZ+/Dl6EYcyhg8KEp8mAnxwQ/mDws9lMF14Bwb5odjyd8pAGO/Ao6e1sGXiH5bFcUxD8Jg1a1bMA8A0baAh8F1OLMxQghkWeZAnVlycaQa+4JL5mEbAM0yURJSVHv8v1TmN6dSpUz9Vv+AELHA1bQybOuI7LnVmfHEpMw0fVmjEMS3BnfTIAjBxr7766jitecJuCO+z+kkLnwGXOuQhn0xa/a3vlBXlHRZvEYoOMmxubo5bM1q0/8sHRjB8/DAYjAIOmQ848WSGk44wuwgDChaWXwinN3YawhzufA2XdI4XwiNeGI6feTTh5Ol8ncZw+3MpXxifd9M8M4+6urqYHmE4MElDGP7wG36XxeHGgTz5Bt7+hmsYIU7EMY1CfB2HMIQvhBP6Hc95h25mPOLyvb86N5wwDX7igsPOHscPeQVYPJTLeToecPDbdbjjgR/TAcIJC13H/Vtc9tCTp3ECRkirv8UPTMoNTGD/P8lYEv2H+EvAAAAAAElFTkSuQmCC;" parent="Dez18VXg3sy8JYcPx_31-115" vertex="1">
          <mxGeometry x="64.12" y="46.89999999999998" width="81.76" height="83.1" as="geometry" />
        </mxCell>
        <mxCell id="Dez18VXg3sy8JYcPx_31-114" value="Sử dụng app MOMO hoặc &lt;br style=&quot;font-size: 9px;&quot;&gt;ứng dụng Camera hỗ trợ QR code để quét mã." style="text;html=1;align=center;verticalAlign=middle;resizable=0;points=[];autosize=1;strokeColor=none;fillColor=none;fontSize=9;" parent="Dez18VXg3sy8JYcPx_31-115" vertex="1">
          <mxGeometry x="5" y="140" width="200" height="30" as="geometry" />
        </mxCell>
        <mxCell id="Dez18VXg3sy8JYcPx_31-116" value="" style="group" parent="1" vertex="1" connectable="0">
          <mxGeometry x="617" y="-463.5" width="210" height="230" as="geometry" />
        </mxCell>
        <mxCell id="Dez18VXg3sy8JYcPx_31-102" value="" style="rounded=0;whiteSpace=wrap;html=1;" parent="Dez18VXg3sy8JYcPx_31-116" vertex="1">
          <mxGeometry width="210" height="230" as="geometry" />
        </mxCell>
        <mxCell id="Dez18VXg3sy8JYcPx_31-103" value="Visa" style="text;html=1;align=center;verticalAlign=middle;resizable=0;points=[];autosize=1;strokeColor=none;fillColor=none;fontSize=14;fontStyle=1" parent="Dez18VXg3sy8JYcPx_31-116" vertex="1">
          <mxGeometry x="85" y="10" width="40" height="20" as="geometry" />
        </mxCell>
        <mxCell id="Dez18VXg3sy8JYcPx_31-104" value="Giá trị thanh toán :" style="text;html=1;align=center;verticalAlign=middle;resizable=0;points=[];autosize=1;strokeColor=none;fillColor=none;fontSize=11;" parent="Dez18VXg3sy8JYcPx_31-116" vertex="1">
          <mxGeometry y="37" width="110" height="20" as="geometry" />
        </mxCell>
        <mxCell id="Dez18VXg3sy8JYcPx_31-106" value="xxx.đ" style="rounded=0;whiteSpace=wrap;html=1;fontSize=11;" parent="Dez18VXg3sy8JYcPx_31-116" vertex="1">
          <mxGeometry x="114.5" y="37" width="70.5" height="20" as="geometry" />
        </mxCell>
        <mxCell id="Dez18VXg3sy8JYcPx_31-107" value="&lt;font color=&quot;#999999&quot;&gt;Số thẻ&lt;/font&gt;" style="rounded=1;whiteSpace=wrap;html=1;align=left;" parent="Dez18VXg3sy8JYcPx_31-116" vertex="1">
          <mxGeometry x="15" y="80" width="180" height="30" as="geometry" />
        </mxCell>
        <mxCell id="Dez18VXg3sy8JYcPx_31-108" value="&lt;font color=&quot;#999999&quot;&gt;MM/YY&lt;/font&gt;" style="rounded=1;whiteSpace=wrap;html=1;align=left;" parent="Dez18VXg3sy8JYcPx_31-116" vertex="1">
          <mxGeometry x="15" y="120" width="94.5" height="30" as="geometry" />
        </mxCell>
        <mxCell id="Dez18VXg3sy8JYcPx_31-109" value="Thanh toán" style="rounded=1;whiteSpace=wrap;html=1;align=center;" parent="Dez18VXg3sy8JYcPx_31-116" vertex="1">
          <mxGeometry x="52.75" y="170" width="104.5" height="40" as="geometry" />
        </mxCell>
        <mxCell id="Dez18VXg3sy8JYcPx_31-110" value="&lt;font color=&quot;#999999&quot;&gt;CVV&lt;/font&gt;" style="rounded=1;whiteSpace=wrap;html=1;align=left;" parent="Dez18VXg3sy8JYcPx_31-116" vertex="1">
          <mxGeometry x="120.5" y="120" width="74.5" height="30" as="geometry" />
        </mxCell>
        <mxCell id="SR2tJm6ZsBHu3xr8q06L-6" value="Cancel" style="rounded=1;whiteSpace=wrap;html=1;" parent="Dez18VXg3sy8JYcPx_31-116" vertex="1">
          <mxGeometry x="133" y="10" width="70" height="20" as="geometry" />
        </mxCell>
        <mxCell id="xeQGUiYXKvnCCXj6hmbg-4" value="MỤC N" style="rounded=0;whiteSpace=wrap;html=1;fontSize=18;align=center;verticalAlign=middle;" parent="1" vertex="1">
          <mxGeometry x="-235" y="-709" width="70" height="50" as="geometry" />
        </mxCell>
        <mxCell id="xeQGUiYXKvnCCXj6hmbg-6" value="" style="endArrow=none;dashed=1;html=1;rounded=0;entryX=0;entryY=0.5;entryDx=0;entryDy=0;exitX=1;exitY=0.5;exitDx=0;exitDy=0;" parent="1" target="xeQGUiYXKvnCCXj6hmbg-4" edge="1">
          <mxGeometry width="50" height="50" relative="1" as="geometry">
            <mxPoint x="-370.0000000000002" y="-684" as="sourcePoint" />
            <mxPoint x="-240" y="-709" as="targetPoint" />
            <Array as="points">
              <mxPoint x="-440" y="-684" />
            </Array>
          </mxGeometry>
        </mxCell>
        <mxCell id="ZLB3XHUYT8p_NBxtVnVK-3" value="Đăng nhập/ đăng ký" style="rounded=0;whiteSpace=wrap;html=1;fontSize=12;align=center;verticalAlign=middle;" parent="1" vertex="1">
          <mxGeometry x="-271.25" y="-804" width="91.25" height="30" as="geometry" />
        </mxCell>
        <mxCell id="xeQGUiYXKvnCCXj6hmbg-7" value="" style="edgeStyle=orthogonalEdgeStyle;rounded=0;orthogonalLoop=1;jettySize=auto;html=1;entryX=-0.008;entryY=0.152;entryDx=0;entryDy=0;entryPerimeter=0;endArrow=none;exitX=0.792;exitY=0.608;exitDx=0;exitDy=0;exitPerimeter=0;" parent="1" source="YEjJ85sY0pqEXyLxRJ9N-4" target="YEjJ85sY0pqEXyLxRJ9N-6" edge="1">
          <mxGeometry relative="1" as="geometry">
            <Array as="points" />
            <mxPoint x="-110" y="-789" as="sourcePoint" />
            <mxPoint x="-81.79999999999973" y="-807.2500000000002" as="targetPoint" />
          </mxGeometry>
        </mxCell>
        <mxCell id="xeQGUiYXKvnCCXj6hmbg-10" style="edgeStyle=orthogonalEdgeStyle;rounded=0;orthogonalLoop=1;jettySize=auto;html=1;exitX=0.5;exitY=1;exitDx=0;exitDy=0;entryX=0.5;entryY=1;entryDx=0;entryDy=0;fontSize=17;" parent="1" source="Dez18VXg3sy8JYcPx_31-111" target="YEjJ85sY0pqEXyLxRJ9N-1" edge="1">
          <mxGeometry relative="1" as="geometry" />
        </mxCell>
        <mxCell id="xeQGUiYXKvnCCXj6hmbg-14" style="edgeStyle=orthogonalEdgeStyle;rounded=0;orthogonalLoop=1;jettySize=auto;html=1;exitX=0.5;exitY=1;exitDx=0;exitDy=0;fontSize=17;endArrow=none;endFill=0;" parent="1" source="Dez18VXg3sy8JYcPx_31-102" edge="1">
          <mxGeometry relative="1" as="geometry">
            <mxPoint x="100" y="-180" as="targetPoint" />
            <Array as="points">
              <mxPoint x="722" y="-180" />
              <mxPoint x="160" y="-180" />
            </Array>
          </mxGeometry>
        </mxCell>
        <mxCell id="xeQGUiYXKvnCCXj6hmbg-15" value="&lt;font style=&quot;font-size: 12px&quot;&gt;thanh toán thành công, về menu&lt;br&gt;&lt;/font&gt;" style="text;html=1;align=center;verticalAlign=middle;resizable=0;points=[];autosize=1;strokeColor=none;fillColor=none;fontSize=17;" parent="1" vertex="1">
          <mxGeometry x="-235" y="-210" width="190" height="30" as="geometry" />
        </mxCell>
        <mxCell id="xeQGUiYXKvnCCXj6hmbg-16" value="... (tùy theo hình thức)" style="rounded=1;whiteSpace=wrap;html=1;fontSize=20;align=center;verticalAlign=middle;fontStyle=1" parent="1" vertex="1">
          <mxGeometry x="285" y="-399" width="285" height="89" as="geometry" />
        </mxCell>
        <mxCell id="xeQGUiYXKvnCCXj6hmbg-19" value="" style="swimlane;startSize=0;fontSize=12;" parent="1" vertex="1">
          <mxGeometry x="-800" y="-1130" width="410" height="270" as="geometry" />
        </mxCell>
        <mxCell id="xeQGUiYXKvnCCXj6hmbg-24" value="Special Deals" style="text;html=1;strokeColor=none;fillColor=none;align=center;verticalAlign=middle;whiteSpace=wrap;rounded=0;fontSize=17;" parent="xeQGUiYXKvnCCXj6hmbg-19" vertex="1">
          <mxGeometry x="30" y="100" width="130" height="40" as="geometry" />
        </mxCell>
        <mxCell id="xeQGUiYXKvnCCXj6hmbg-25" value="Feedback" style="text;html=1;strokeColor=none;fillColor=none;align=center;verticalAlign=middle;whiteSpace=wrap;rounded=0;fontSize=17;" parent="xeQGUiYXKvnCCXj6hmbg-19" vertex="1">
          <mxGeometry x="300" y="100" width="70" height="40" as="geometry" />
        </mxCell>
        <mxCell id="xeQGUiYXKvnCCXj6hmbg-26" value="" style="rounded=0;whiteSpace=wrap;html=1;fontSize=12;" parent="xeQGUiYXKvnCCXj6hmbg-19" vertex="1">
          <mxGeometry y="220" width="410" height="50" as="geometry" />
        </mxCell>
        <mxCell id="xeQGUiYXKvnCCXj6hmbg-28" value="footer: thông tin liên lạc: sdt, url, qr code. Pháp lý, ..." style="text;html=1;strokeColor=none;fillColor=none;align=center;verticalAlign=middle;whiteSpace=wrap;rounded=0;fontSize=17;" parent="xeQGUiYXKvnCCXj6hmbg-19" vertex="1">
          <mxGeometry y="220" width="260" height="40" as="geometry" />
        </mxCell>
        <mxCell id="xeQGUiYXKvnCCXj6hmbg-29" value="" style="rounded=0;whiteSpace=wrap;html=1;fontSize=12;" parent="xeQGUiYXKvnCCXj6hmbg-19" vertex="1">
          <mxGeometry width="410" height="90" as="geometry" />
        </mxCell>
        <mxCell id="xeQGUiYXKvnCCXj6hmbg-32" value="Đăng nhập/ đăng ký" style="rounded=0;whiteSpace=wrap;html=1;fontSize=12;align=center;verticalAlign=middle;" parent="xeQGUiYXKvnCCXj6hmbg-19" vertex="1">
          <mxGeometry x="310" y="10" width="91.25" height="30" as="geometry" />
        </mxCell>
        <mxCell id="xeQGUiYXKvnCCXj6hmbg-33" value="Xem MENU" style="rounded=0;whiteSpace=wrap;html=1;fontSize=12;align=center;verticalAlign=middle;" parent="xeQGUiYXKvnCCXj6hmbg-19" vertex="1">
          <mxGeometry x="310" y="50" width="91.25" height="30" as="geometry" />
        </mxCell>
        <mxCell id="xeQGUiYXKvnCCXj6hmbg-42" value="TÊN NHÀ HÀNG" style="text;html=1;strokeColor=none;fillColor=none;align=center;verticalAlign=middle;whiteSpace=wrap;rounded=0;fontSize=29;fontStyle=1" parent="xeQGUiYXKvnCCXj6hmbg-19" vertex="1">
          <mxGeometry y="5" width="250" height="40" as="geometry" />
        </mxCell>
        <mxCell id="xeQGUiYXKvnCCXj6hmbg-43" value="[giới thiệu]" style="text;html=1;strokeColor=none;fillColor=none;align=center;verticalAlign=middle;whiteSpace=wrap;rounded=0;fontSize=17;" parent="xeQGUiYXKvnCCXj6hmbg-19" vertex="1">
          <mxGeometry x="-10" y="40" width="130" height="40" as="geometry" />
        </mxCell>
        <mxCell id="xeQGUiYXKvnCCXj6hmbg-44" value="&lt;div&gt;Thời gian&lt;/div&gt;&lt;div&gt;Tiêu đề&lt;/div&gt;&lt;div&gt;Mô tả&lt;br&gt;&lt;/div&gt;" style="text;html=1;strokeColor=none;fillColor=none;align=left;verticalAlign=middle;whiteSpace=wrap;rounded=0;fontSize=17;" parent="xeQGUiYXKvnCCXj6hmbg-19" vertex="1">
          <mxGeometry x="10" y="150" width="130" height="40" as="geometry" />
        </mxCell>
        <mxCell id="xeQGUiYXKvnCCXj6hmbg-51" value="&lt;font style=&quot;font-size: 20px&quot;&gt;hình deal&lt;/font&gt;" style="rounded=1;whiteSpace=wrap;html=1;fontSize=29;align=center;" parent="xeQGUiYXKvnCCXj6hmbg-19" vertex="1">
          <mxGeometry x="130" y="140" width="120" height="70" as="geometry" />
        </mxCell>
        <mxCell id="xeQGUiYXKvnCCXj6hmbg-57" value="" style="rounded=0;whiteSpace=wrap;html=1;fontSize=20;align=left;" parent="xeQGUiYXKvnCCXj6hmbg-19" vertex="1">
          <mxGeometry x="270" y="90" width="6" height="130" as="geometry" />
        </mxCell>
        <mxCell id="SR2tJm6ZsBHu3xr8q06L-1" value="Xắp xếp theo" style="rounded=0;whiteSpace=wrap;html=1;fontSize=12;align=center;verticalAlign=middle;" parent="1" vertex="1">
          <mxGeometry x="-185" y="-642" width="60" height="30.5" as="geometry" />
        </mxCell>
        <mxCell id="SR2tJm6ZsBHu3xr8q06L-2" style="edgeStyle=orthogonalEdgeStyle;rounded=0;orthogonalLoop=1;jettySize=auto;html=1;exitX=1;exitY=0.5;exitDx=0;exitDy=0;entryX=-0.005;entryY=0.086;entryDx=0;entryDy=0;entryPerimeter=0;" parent="1" source="xeQGUiYXKvnCCXj6hmbg-32" target="uo45ZAAMJ8PjfpSmK8Dm-3" edge="1">
          <mxGeometry relative="1" as="geometry">
            <mxPoint x="-340" y="-1140" as="targetPoint" />
          </mxGeometry>
        </mxCell>
        <mxCell id="SR2tJm6ZsBHu3xr8q06L-3" value="Back" style="rounded=0;whiteSpace=wrap;html=1;fontSize=5;align=center;" parent="1" vertex="1">
          <mxGeometry x="-60" y="-840" width="30" height="20" as="geometry" />
        </mxCell>
        <mxCell id="SR2tJm6ZsBHu3xr8q06L-5" value="Cancel" style="rounded=1;whiteSpace=wrap;html=1;" parent="1" vertex="1">
          <mxGeometry x="500" y="-642" width="70" height="20" as="geometry" />
        </mxCell>
        <mxCell id="4-SJ1iFri7ZXC2Sx2RJ--2" value="Back" style="rounded=0;whiteSpace=wrap;html=1;fontSize=5;align=center;" vertex="1" parent="1">
          <mxGeometry x="-160" y="-1110" width="30" height="20" as="geometry" />
        </mxCell>
      </root>
    </mxGraphModel>
  </diagram>
</mxfile>
